<svg width="24" height="24" viewBox="0 0 24 24" fill="none" xmlns="http://www.w3.org/2000/svg">
<g clip-path="url(#clip0_6661_5498)">
<g filter="url(#filter0_d_6661_5498)">
<circle cx="12.0008" cy="11.9988" r="11.0769" fill="#35AFF1"/>
</g>
<circle cx="11.9995" cy="11.9976" r="10.1538" fill="url(#paint0_linear_6661_5498)"/>
<circle cx="11.9991" cy="12.003" r="8.30769" fill="url(#paint1_linear_6661_5498)"/>
<path opacity="0.2" d="M22.1542 12.1195C22.1526 12.3877 22.1405 12.6536 22.1185 12.9168C21.748 7.64523 17.3992 2.94667 12.0582 2.91261C6.71686 2.87833 2.30961 7.52101 1.87256 12.7874C1.85402 12.5238 1.84526 12.2578 1.84687 11.9895C1.8825 6.34846 6.45724 1.8044 12.0649 1.84005C17.6724 1.87589 22.1898 6.47816 22.1542 12.1195Z" fill="white"/>
<path fill-rule="evenodd" clip-rule="evenodd" d="M12.0006 5.53906C8.43199 5.53906 5.53906 8.43199 5.53906 12.0006C5.53906 15.5692 8.43199 18.4621 12.0006 18.4621C15.5692 18.4621 18.4621 15.5692 18.4621 12.0006C18.4621 8.43199 15.5692 5.53906 12.0006 5.53906ZM11.0608 15.6251C10.7788 15.8292 10.4031 15.5444 10.5235 15.2178L11.2643 13.2074C11.327 13.0371 11.2502 12.847 11.0867 12.7682L9.091 11.8053C8.85071 11.6894 8.82139 11.3588 9.03753 11.2024L12.9405 8.37787C13.2225 8.1738 13.5982 8.45861 13.4778 8.78523L12.737 10.7956C12.6743 10.9659 12.7511 11.156 12.9146 11.2349L14.9103 12.1977C15.1506 12.3136 15.1799 12.6442 14.9638 12.8006L11.0608 15.6251Z" fill="#166495"/>
<circle cx="12.0008" cy="11.9988" r="11.3077" stroke="black" stroke-width="0.461538"/>
</g>
<defs>
<filter id="filter0_d_6661_5498" x="0.923828" y="0.921875" width="22.1543" height="23.0754" filterUnits="userSpaceOnUse" color-interpolation-filters="sRGB">
<feFlood flood-opacity="0" result="BackgroundImageFix"/>
<feColorMatrix in="SourceAlpha" type="matrix" values="0 0 0 0 0 0 0 0 0 0 0 0 0 0 0 0 0 0 127 0" result="hardAlpha"/>
<feOffset dy="0.923077"/>
<feComposite in2="hardAlpha" operator="out"/>
<feColorMatrix type="matrix" values="0 0 0 0 0 0 0 0 0 0 0 0 0 0 0 0 0 0 0.5 0"/>
<feBlend mode="normal" in2="BackgroundImageFix" result="effect1_dropShadow_6661_5498"/>
<feBlend mode="normal" in="SourceGraphic" in2="effect1_dropShadow_6661_5498" result="shape"/>
</filter>
<linearGradient id="paint0_linear_6661_5498" x1="6.55958" y1="3.4256" x2="17.4395" y2="20.5696" gradientUnits="userSpaceOnUse">
<stop stop-color="#84D4FF"/>
<stop offset="0.5" stop-color="#61C7FF"/>
<stop offset="1" stop-color="#42BDFF"/>
</linearGradient>
<linearGradient id="paint1_linear_6661_5498" x1="7.54822" y1="4.98949" x2="16.4501" y2="19.0165" gradientUnits="userSpaceOnUse">
<stop stop-color="#35AFF1"/>
<stop offset="0.5" stop-color="#4DC0FF"/>
<stop offset="1" stop-color="#9EDDFF"/>
</linearGradient>
<clipPath id="clip0_6661_5498">
<rect width="24" height="24" fill="white"/>
</clipPath>
</defs>
</svg>
