<svg width="26" height="26" viewBox="0 0 26 26" fill="none" xmlns="http://www.w3.org/2000/svg">
<circle opacity="0.5" cx="13" cy="14" r="12" fill="black"/>
<circle cx="13" cy="13" r="12" fill="#35AFF1"/>
<circle cx="12.999" cy="13" r="11" fill="url(#paint0_linear_8495_8521)"/>
<circle cx="12.998" cy="13.0039" r="9" fill="url(#paint1_linear_8495_8521)"/>
<path opacity="0.2" d="M23.9998 13.1284C23.9981 13.419 23.985 13.7071 23.9612 13.9922C23.5598 8.28135 18.8485 3.19125 13.0624 3.15435C7.27603 3.11721 2.50151 8.14679 2.02804 13.852C2.00795 13.5665 1.99846 13.2783 2.0002 12.9877C2.03881 6.87652 6.99478 1.95379 13.0697 1.99241C19.1446 2.03124 24.0384 7.01703 23.9998 13.1284Z" fill="white"/>
<path fill-rule="evenodd" clip-rule="evenodd" d="M13 6C9.134 6 6 9.134 6 13C6 16.866 9.134 20 13 20C16.866 20 20 16.866 20 13C20 9.134 16.866 6 13 6ZM11.9819 16.9266C11.6764 17.1477 11.2694 16.8392 11.3998 16.4853L12.2023 14.3074C12.2703 14.1229 12.187 13.9169 12.01 13.8315L9.84794 12.7884C9.58761 12.6628 9.55585 12.3047 9.79 12.1353L14.0182 9.07538C14.3237 8.8543 14.7307 9.16285 14.6003 9.51668L13.7978 11.6946C13.7298 11.8791 13.813 12.085 13.9901 12.1704L16.1522 13.2135C16.4125 13.3391 16.4443 13.6972 16.2101 13.8667L11.9819 16.9266Z" fill="#166495"/>
<circle cx="13" cy="13" r="12.2308" stroke="black" stroke-width="0.461538"/>
<defs>
<linearGradient id="paint0_linear_8495_8521" x1="7.10572" y1="3.71367" x2="18.8923" y2="22.2863" gradientUnits="userSpaceOnUse">
<stop stop-color="#84D4FF"/>
<stop offset="0.5" stop-color="#61C7FF"/>
<stop offset="1" stop-color="#42BDFF"/>
</linearGradient>
<linearGradient id="paint1_linear_8495_8521" x1="8.17626" y1="5.40593" x2="17.8199" y2="20.6018" gradientUnits="userSpaceOnUse">
<stop stop-color="#35AFF1"/>
<stop offset="0.5" stop-color="#4DC0FF"/>
<stop offset="1" stop-color="#9EDDFF"/>
</linearGradient>
</defs>
</svg>
