<svg width="24" height="24" viewBox="0 0 24 24" fill="none" xmlns="http://www.w3.org/2000/svg">
<g clip-path="url(#clip0_6661_5514)">
<g filter="url(#filter0_d_6661_5514)">
<circle cx="12.0008" cy="11.9988" r="11.0769" fill="#EB8E07"/>
</g>
<circle cx="11.9995" cy="11.9976" r="10.1538" fill="url(#paint0_linear_6661_5514)"/>
<circle cx="11.9991" cy="12.003" r="8.30769" fill="url(#paint1_linear_6661_5514)"/>
<path opacity="0.8" d="M22.1542 12.1195C22.1526 12.3877 22.1405 12.6536 22.1185 12.9168C21.748 7.64523 17.3992 2.94667 12.0582 2.91261C6.71686 2.87833 2.30961 7.52101 1.87256 12.7874C1.85402 12.5238 1.84526 12.2578 1.84687 11.9895C1.8825 6.34846 6.45724 1.8044 12.0649 1.84005C17.6724 1.87589 22.1898 6.47816 22.1542 12.1195Z" fill="white"/>
<path fill-rule="evenodd" clip-rule="evenodd" d="M11.9996 18.4016C15.5342 18.4016 18.3996 15.5362 18.3996 12.0016C18.3996 8.46694 15.5342 5.60156 11.9996 5.60156C8.46499 5.60156 5.59961 8.46694 5.59961 12.0016C5.59961 15.5362 8.46499 18.4016 11.9996 18.4016ZM14.959 12.8416C14.959 12.0719 14.31 11.6124 13.0119 11.4631L11.4181 11.2822C11.1194 11.2477 10.9155 11.2075 10.8064 11.1616C10.703 11.1099 10.6513 11.0352 10.6513 10.9376V10.8773C10.6513 10.6303 11.0677 10.5068 11.9005 10.5068C12.3945 10.5068 12.7592 10.5556 12.9947 10.6533C13.2359 10.7452 13.3565 10.8887 13.3565 11.084V11.1443H14.8298V11.084C14.8298 10.6131 14.6546 10.234 14.3042 9.94679C13.9596 9.65387 13.4542 9.4672 12.7879 9.38679V8.65448H11.1768V9.37818C10.5221 9.45284 10.0166 9.62515 9.66055 9.8951C9.31019 10.1651 9.135 10.5154 9.135 10.9462V11.0323C9.135 11.4401 9.29295 11.7618 9.60885 11.9973C9.92475 12.2327 10.4043 12.3849 11.0476 12.4539L12.6932 12.6262C12.9688 12.6549 13.1584 12.698 13.2618 12.7554C13.3652 12.8128 13.4168 12.899 13.4168 13.0139V13.0742C13.4168 13.2235 13.3077 13.3326 13.0895 13.4016C12.877 13.4705 12.5381 13.5049 12.0728 13.5049C11.5444 13.5049 11.1539 13.4504 10.9012 13.3413C10.6484 13.2264 10.5221 13.0541 10.5221 12.8243V12.764H9.04023V12.8243C9.04023 13.347 9.21829 13.7605 9.57439 14.0649C9.93623 14.3636 10.4704 14.5532 11.1768 14.6336V15.3486H12.7879V14.6336C13.4772 14.5532 14.0113 14.3665 14.3904 14.0736C14.7694 13.7749 14.959 13.3929 14.959 12.9277V12.8416Z" fill="url(#paint2_linear_6661_5514)"/>
<path fill-rule="evenodd" clip-rule="evenodd" d="M11.9996 18.4016C15.5342 18.4016 18.3996 15.5362 18.3996 12.0016C18.3996 8.46694 15.5342 5.60156 11.9996 5.60156C8.46499 5.60156 5.59961 8.46694 5.59961 12.0016C5.59961 15.5362 8.46499 18.4016 11.9996 18.4016ZM14.959 12.8416C14.959 12.0719 14.31 11.6124 13.0119 11.4631L11.4181 11.2822C11.1194 11.2477 10.9155 11.2075 10.8064 11.1616C10.703 11.1099 10.6513 11.0352 10.6513 10.9376V10.8773C10.6513 10.6303 11.0677 10.5068 11.9005 10.5068C12.3945 10.5068 12.7592 10.5556 12.9947 10.6533C13.2359 10.7452 13.3565 10.8887 13.3565 11.084V11.1443H14.8298V11.084C14.8298 10.6131 14.6546 10.234 14.3042 9.94679C13.9596 9.65387 13.4542 9.4672 12.7879 9.38679V8.65448H11.1768V9.37818C10.5221 9.45284 10.0166 9.62515 9.66055 9.8951C9.31019 10.1651 9.135 10.5154 9.135 10.9462V11.0323C9.135 11.4401 9.29295 11.7618 9.60885 11.9973C9.92475 12.2327 10.4043 12.3849 11.0476 12.4539L12.6932 12.6262C12.9688 12.6549 13.1584 12.698 13.2618 12.7554C13.3652 12.8128 13.4168 12.899 13.4168 13.0139V13.0742C13.4168 13.2235 13.3077 13.3326 13.0895 13.4016C12.877 13.4705 12.5381 13.5049 12.0728 13.5049C11.5444 13.5049 11.1539 13.4504 10.9012 13.3413C10.6484 13.2264 10.5221 13.0541 10.5221 12.8243V12.764H9.04023V12.8243C9.04023 13.347 9.21829 13.7605 9.57439 14.0649C9.93623 14.3636 10.4704 14.5532 11.1768 14.6336V15.3486H12.7879V14.6336C13.4772 14.5532 14.0113 14.3665 14.3904 14.0736C14.7694 13.7749 14.959 13.3929 14.959 12.9277V12.8416Z" fill="#883308"/>
<circle cx="12.0008" cy="11.9988" r="11.3077" stroke="black" stroke-width="0.461538"/>
</g>
<defs>
<filter id="filter0_d_6661_5514" x="0.923828" y="0.921875" width="22.1543" height="23.0754" filterUnits="userSpaceOnUse" color-interpolation-filters="sRGB">
<feFlood flood-opacity="0" result="BackgroundImageFix"/>
<feColorMatrix in="SourceAlpha" type="matrix" values="0 0 0 0 0 0 0 0 0 0 0 0 0 0 0 0 0 0 127 0" result="hardAlpha"/>
<feOffset dy="0.923077"/>
<feComposite in2="hardAlpha" operator="out"/>
<feColorMatrix type="matrix" values="0 0 0 0 0 0 0 0 0 0 0 0 0 0 0 0 0 0 0.5 0"/>
<feBlend mode="normal" in2="BackgroundImageFix" result="effect1_dropShadow_6661_5514"/>
<feBlend mode="normal" in="SourceGraphic" in2="effect1_dropShadow_6661_5514" result="shape"/>
</filter>
<linearGradient id="paint0_linear_6661_5514" x1="6.55958" y1="3.4256" x2="17.4395" y2="20.5696" gradientUnits="userSpaceOnUse">
<stop stop-color="#FFFC00"/>
<stop offset="0.5" stop-color="#FFF000"/>
<stop offset="1" stop-color="#FFE400"/>
</linearGradient>
<linearGradient id="paint1_linear_6661_5514" x1="7.54822" y1="4.98949" x2="16.4501" y2="19.0165" gradientUnits="userSpaceOnUse">
<stop stop-color="#FFDE00"/>
<stop offset="0.5" stop-color="#FDEC50"/>
<stop offset="1" stop-color="#FBFA9F"/>
</linearGradient>
<linearGradient id="paint2_linear_6661_5514" x1="8.48795" y1="5.71554" x2="15.3213" y2="16.3165" gradientUnits="userSpaceOnUse">
<stop stop-color="#E8991E"/>
<stop offset="0.5" stop-color="#E88908"/>
<stop offset="1" stop-color="#D97500"/>
</linearGradient>
<clipPath id="clip0_6661_5514">
<rect width="24" height="24" fill="white"/>
</clipPath>
</defs>
</svg>
