<svg width="26" height="26" viewBox="0 0 26 26" fill="none" xmlns="http://www.w3.org/2000/svg">
<circle opacity="0.5" cx="13" cy="14" r="12" fill="black"/>
<circle cx="13" cy="13" r="12" fill="#EB8E07"/>
<circle cx="12.999" cy="13" r="11" fill="url(#paint0_linear_8495_8522)"/>
<circle cx="12.998" cy="13.0039" r="9" fill="url(#paint1_linear_8495_8522)"/>
<path opacity="0.8" d="M23.9998 13.1284C23.9981 13.419 23.985 13.7071 23.9612 13.9922C23.5598 8.28135 18.8485 3.19125 13.0624 3.15435C7.27603 3.11721 2.50151 8.14679 2.02804 13.852C2.00795 13.5665 1.99846 13.2783 2.0002 12.9877C2.03881 6.87652 6.99478 1.95379 13.0697 1.99241C19.1446 2.03124 24.0384 7.01703 23.9998 13.1284Z" fill="white"/>
<path fill-rule="evenodd" clip-rule="evenodd" d="M12.9988 19.937C16.828 19.937 19.9321 16.8328 19.9321 13.0036C19.9321 9.17447 16.828 6.07031 12.9988 6.07031C9.16959 6.07031 6.06543 9.17447 6.06543 13.0036C6.06543 16.8328 9.16959 19.937 12.9988 19.937ZM16.2047 13.9136C16.2047 13.0799 15.5017 12.5821 14.0954 12.4203L12.3688 12.2243C12.0452 12.187 11.8243 12.1434 11.7061 12.0936C11.5941 12.0376 11.5381 11.9568 11.5381 11.851V11.7857C11.5381 11.5181 11.9892 11.3843 12.8914 11.3843C13.4265 11.3843 13.8217 11.4372 14.0768 11.543C14.3381 11.6425 14.4688 11.7981 14.4688 12.0096V12.075H16.0648V12.0096C16.0648 11.4994 15.875 11.0888 15.4955 10.7776C15.1221 10.4603 14.5746 10.2581 13.8528 10.171V9.37764H12.1074V10.1616C11.3981 10.2425 10.8505 10.4292 10.4648 10.7216C10.0852 11.0141 9.89544 11.3936 9.89544 11.8603V11.9536C9.89544 12.3954 10.0666 12.7439 10.4088 12.999C10.751 13.2541 11.2706 13.419 11.9674 13.4936L13.7501 13.6803C14.0488 13.7114 14.2541 13.7581 14.3661 13.8203C14.4781 13.8825 14.5341 13.9759 14.5341 14.1003V14.1656C14.5341 14.3274 14.4159 14.4456 14.1794 14.5203C13.9492 14.595 13.5821 14.6323 13.0781 14.6323C12.5057 14.6323 12.0825 14.5732 11.8088 14.455C11.535 14.3305 11.3981 14.1439 11.3981 13.895V13.8296H9.79277V13.895C9.79277 14.4612 9.98567 14.9092 10.3714 15.239C10.7634 15.5626 11.3421 15.7679 12.1074 15.855V16.6296H13.8528V15.855C14.5994 15.7679 15.1781 15.5657 15.5888 15.2483C15.9994 14.9248 16.2047 14.511 16.2047 14.007V13.9136Z" fill="url(#paint2_linear_8495_8522)"/>
<path fill-rule="evenodd" clip-rule="evenodd" d="M12.9988 19.937C16.828 19.937 19.9321 16.8328 19.9321 13.0036C19.9321 9.17447 16.828 6.07031 12.9988 6.07031C9.16959 6.07031 6.06543 9.17447 6.06543 13.0036C6.06543 16.8328 9.16959 19.937 12.9988 19.937ZM16.2047 13.9136C16.2047 13.0799 15.5017 12.5821 14.0954 12.4203L12.3688 12.2243C12.0452 12.187 11.8243 12.1434 11.7061 12.0936C11.5941 12.0376 11.5381 11.9568 11.5381 11.851V11.7857C11.5381 11.5181 11.9892 11.3843 12.8914 11.3843C13.4265 11.3843 13.8217 11.4372 14.0768 11.543C14.3381 11.6425 14.4688 11.7981 14.4688 12.0096V12.075H16.0648V12.0096C16.0648 11.4994 15.875 11.0888 15.4955 10.7776C15.1221 10.4603 14.5746 10.2581 13.8528 10.171V9.37764H12.1074V10.1616C11.3981 10.2425 10.8505 10.4292 10.4648 10.7216C10.0852 11.0141 9.89544 11.3936 9.89544 11.8603V11.9536C9.89544 12.3954 10.0666 12.7439 10.4088 12.999C10.751 13.2541 11.2706 13.419 11.9674 13.4936L13.7501 13.6803C14.0488 13.7114 14.2541 13.7581 14.3661 13.8203C14.4781 13.8825 14.5341 13.9759 14.5341 14.1003V14.1656C14.5341 14.3274 14.4159 14.4456 14.1794 14.5203C13.9492 14.595 13.5821 14.6323 13.0781 14.6323C12.5057 14.6323 12.0825 14.5732 11.8088 14.455C11.535 14.3305 11.3981 14.1439 11.3981 13.895V13.8296H9.79277V13.895C9.79277 14.4612 9.98567 14.9092 10.3714 15.239C10.7634 15.5626 11.3421 15.7679 12.1074 15.855V16.6296H13.8528V15.855C14.5994 15.7679 15.1781 15.5657 15.5888 15.2483C15.9994 14.9248 16.2047 14.511 16.2047 14.007V13.9136Z" fill="#883308"/>
<circle cx="13" cy="13" r="12.2308" stroke="black" stroke-width="0.461538"/>
<defs>
<linearGradient id="paint0_linear_8495_8522" x1="7.10572" y1="3.71367" x2="18.8923" y2="22.2863" gradientUnits="userSpaceOnUse">
<stop stop-color="#FFFC00"/>
<stop offset="0.5" stop-color="#FFF000"/>
<stop offset="1" stop-color="#FFE400"/>
</linearGradient>
<linearGradient id="paint1_linear_8495_8522" x1="8.17626" y1="5.40593" x2="17.8199" y2="20.6018" gradientUnits="userSpaceOnUse">
<stop stop-color="#FFDE00"/>
<stop offset="0.5" stop-color="#FDEC50"/>
<stop offset="1" stop-color="#FBFA9F"/>
</linearGradient>
<linearGradient id="paint2_linear_8495_8522" x1="9.19447" y1="6.19378" x2="16.5972" y2="17.6782" gradientUnits="userSpaceOnUse">
<stop stop-color="#E8991E"/>
<stop offset="0.5" stop-color="#E88908"/>
<stop offset="1" stop-color="#D97500"/>
</linearGradient>
</defs>
</svg>
