<svg width="26" height="26" viewBox="0 0 26 26" fill="none" xmlns="http://www.w3.org/2000/svg">
<circle opacity="0.5" cx="13" cy="14" r="12" fill="black"/>
<circle cx="13" cy="13" r="12" fill="#EB8E07"/>
<circle cx="12.999" cy="13" r="11" fill="url(#paint0_linear_8495_8523)"/>
<circle cx="12.998" cy="13.0039" r="9" fill="url(#paint1_linear_8495_8523)"/>
<path opacity="0.8" d="M23.9998 13.1284C23.9981 13.419 23.985 13.7071 23.9612 13.9922C23.5598 8.28135 18.8485 3.19125 13.0624 3.15435C7.27603 3.11721 2.50151 8.14679 2.02804 13.852C2.00795 13.5665 1.99846 13.2783 2.0002 12.9877C2.03881 6.87652 6.99478 1.95379 13.0697 1.99241C19.1446 2.03124 24.0384 7.01703 23.9998 13.1284Z" fill="white"/>
<path fill-rule="evenodd" clip-rule="evenodd" d="M12.9988 19.937C16.828 19.937 19.9321 16.8328 19.9321 13.0036C19.9321 9.17447 16.828 6.07031 12.9988 6.07031C9.16959 6.07031 6.06543 9.17447 6.06543 13.0036C6.06543 16.8328 9.16959 19.937 12.9988 19.937ZM10.7591 15.8782C10.9241 16.1269 11.5568 16.9647 12.1477 17.2456C12.7387 17.5266 13.4472 17.6206 14.2167 17.4967C14.9862 17.3729 16.4594 16.641 16.4607 15.1766L16.4633 12.5485C16.4634 12.4286 16.463 12.3213 16.4627 12.2315C16.4624 12.0896 16.4621 11.9911 16.4638 11.9547C16.5114 10.9455 15.3359 11.1175 15.3354 11.6934C15.3364 10.6426 13.973 10.7843 13.9725 11.3235C13.9733 10.4708 12.5846 10.4806 12.5711 11.3303L12.5758 9.27491C12.5758 9.27491 12.6273 8.26776 11.7405 8.28589C11.1493 8.29797 10.9695 8.86994 10.9617 9.28035L10.9553 13.2456C10.9553 13.2456 10.5343 12.4156 9.56628 12.3448C8.59824 12.274 8.56121 13.4507 9.1025 13.6449C9.72473 13.8673 10.0884 14.5957 10.4022 15.2242C10.5246 15.4694 10.6394 15.6994 10.7591 15.8782Z" fill="url(#paint2_linear_8495_8523)"/>
<path fill-rule="evenodd" clip-rule="evenodd" d="M12.9988 19.937C16.828 19.937 19.9321 16.8328 19.9321 13.0036C19.9321 9.17447 16.828 6.07031 12.9988 6.07031C9.16959 6.07031 6.06543 9.17447 6.06543 13.0036C6.06543 16.8328 9.16959 19.937 12.9988 19.937ZM10.7591 15.8782C10.9241 16.1269 11.5568 16.9647 12.1477 17.2456C12.7387 17.5266 13.4472 17.6206 14.2167 17.4967C14.9862 17.3729 16.4594 16.641 16.4607 15.1766L16.4633 12.5485C16.4634 12.4286 16.463 12.3213 16.4627 12.2315C16.4624 12.0896 16.4621 11.9911 16.4638 11.9547C16.5114 10.9455 15.3359 11.1175 15.3354 11.6934C15.3364 10.6426 13.973 10.7843 13.9725 11.3235C13.9733 10.4708 12.5846 10.4806 12.5711 11.3303L12.5758 9.27491C12.5758 9.27491 12.6273 8.26776 11.7405 8.28589C11.1493 8.29797 10.9695 8.86994 10.9617 9.28035L10.9553 13.2456C10.9553 13.2456 10.5343 12.4156 9.56628 12.3448C8.59824 12.274 8.56121 13.4507 9.1025 13.6449C9.72473 13.8673 10.0884 14.5957 10.4022 15.2242C10.5246 15.4694 10.6394 15.6994 10.7591 15.8782Z" fill="#883308"/>
<circle cx="13" cy="13" r="12.2308" stroke="black" stroke-width="0.461538"/>
<defs>
<linearGradient id="paint0_linear_8495_8523" x1="7.10572" y1="3.71367" x2="18.8923" y2="22.2863" gradientUnits="userSpaceOnUse">
<stop stop-color="#FFFC00"/>
<stop offset="0.5" stop-color="#FFF000"/>
<stop offset="1" stop-color="#FFE400"/>
</linearGradient>
<linearGradient id="paint1_linear_8495_8523" x1="8.17626" y1="5.40593" x2="17.8199" y2="20.6018" gradientUnits="userSpaceOnUse">
<stop stop-color="#FFDE00"/>
<stop offset="0.5" stop-color="#FDEC50"/>
<stop offset="1" stop-color="#FBFA9F"/>
</linearGradient>
<linearGradient id="paint2_linear_8495_8523" x1="9.19447" y1="6.19378" x2="16.5972" y2="17.6782" gradientUnits="userSpaceOnUse">
<stop stop-color="#E8991E"/>
<stop offset="0.5" stop-color="#E88908"/>
<stop offset="1" stop-color="#D97500"/>
</linearGradient>
</defs>
</svg>
