<svg width="24" height="24" viewBox="0 0 24 24" fill="none" xmlns="http://www.w3.org/2000/svg">
<g clip-path="url(#clip0_6661_5531)">
<g filter="url(#filter0_d_6661_5531)">
<circle cx="12.0008" cy="11.9988" r="11.0769" fill="#EB8E07"/>
</g>
<circle cx="11.9995" cy="11.9976" r="10.1538" fill="url(#paint0_linear_6661_5531)"/>
<circle cx="11.9991" cy="12.003" r="8.30769" fill="url(#paint1_linear_6661_5531)"/>
<path opacity="0.8" d="M22.1542 12.1195C22.1526 12.3877 22.1405 12.6536 22.1185 12.9168C21.748 7.64523 17.3992 2.94667 12.0582 2.91261C6.71686 2.87833 2.30961 7.52101 1.87256 12.7874C1.85402 12.5238 1.84526 12.2578 1.84687 11.9895C1.8825 6.34846 6.45724 1.8044 12.0649 1.84005C17.6724 1.87589 22.1898 6.47816 22.1542 12.1195Z" fill="white"/>
<path fill-rule="evenodd" clip-rule="evenodd" d="M11.9996 18.4016C15.5342 18.4016 18.3996 15.5362 18.3996 12.0016C18.3996 8.46694 15.5342 5.60156 11.9996 5.60156C8.46499 5.60156 5.59961 8.46694 5.59961 12.0016C5.59961 15.5362 8.46499 18.4016 11.9996 18.4016ZM9.93219 14.655C10.0846 14.8846 10.6686 15.6579 11.214 15.9172C11.7595 16.1766 12.4136 16.2634 13.1239 16.149C13.8342 16.0347 15.194 15.3592 15.1953 14.0073L15.1976 11.5814C15.1977 11.4707 15.1974 11.3717 15.1971 11.2888C15.1968 11.1578 15.1965 11.0669 15.1981 11.0333C15.242 10.1017 14.157 10.2605 14.1565 10.7921C14.1574 9.82209 12.8989 9.95291 12.8985 10.4506C12.8992 9.66355 11.6173 9.67259 11.6049 10.457L11.6092 8.55965C11.6092 8.55965 11.6567 7.62998 10.8381 7.64671C10.2924 7.65786 10.1264 8.18583 10.1192 8.56467L10.1133 12.2249C10.1133 12.2249 9.72474 11.4587 8.83116 11.3934C7.93759 11.328 7.90341 12.4143 8.40306 12.5935C8.97743 12.7988 9.31311 13.4711 9.60276 14.0513C9.71576 14.2776 9.82176 14.49 9.93219 14.655Z" fill="url(#paint2_linear_6661_5531)"/>
<path fill-rule="evenodd" clip-rule="evenodd" d="M11.9996 18.4016C15.5342 18.4016 18.3996 15.5362 18.3996 12.0016C18.3996 8.46694 15.5342 5.60156 11.9996 5.60156C8.46499 5.60156 5.59961 8.46694 5.59961 12.0016C5.59961 15.5362 8.46499 18.4016 11.9996 18.4016ZM9.93219 14.655C10.0846 14.8846 10.6686 15.6579 11.214 15.9172C11.7595 16.1766 12.4136 16.2634 13.1239 16.149C13.8342 16.0347 15.194 15.3592 15.1953 14.0073L15.1976 11.5814C15.1977 11.4707 15.1974 11.3717 15.1971 11.2888C15.1968 11.1578 15.1965 11.0669 15.1981 11.0333C15.242 10.1017 14.157 10.2605 14.1565 10.7921C14.1574 9.82209 12.8989 9.95291 12.8985 10.4506C12.8992 9.66355 11.6173 9.67259 11.6049 10.457L11.6092 8.55965C11.6092 8.55965 11.6567 7.62998 10.8381 7.64671C10.2924 7.65786 10.1264 8.18583 10.1192 8.56467L10.1133 12.2249C10.1133 12.2249 9.72474 11.4587 8.83116 11.3934C7.93759 11.328 7.90341 12.4143 8.40306 12.5935C8.97743 12.7988 9.31311 13.4711 9.60276 14.0513C9.71576 14.2776 9.82176 14.49 9.93219 14.655Z" fill="#883308"/>
<circle cx="12.0008" cy="11.9988" r="11.3077" stroke="black" stroke-width="0.461538"/>
</g>
<defs>
<filter id="filter0_d_6661_5531" x="0.923828" y="0.921875" width="22.1543" height="23.0754" filterUnits="userSpaceOnUse" color-interpolation-filters="sRGB">
<feFlood flood-opacity="0" result="BackgroundImageFix"/>
<feColorMatrix in="SourceAlpha" type="matrix" values="0 0 0 0 0 0 0 0 0 0 0 0 0 0 0 0 0 0 127 0" result="hardAlpha"/>
<feOffset dy="0.923077"/>
<feComposite in2="hardAlpha" operator="out"/>
<feColorMatrix type="matrix" values="0 0 0 0 0 0 0 0 0 0 0 0 0 0 0 0 0 0 0.5 0"/>
<feBlend mode="normal" in2="BackgroundImageFix" result="effect1_dropShadow_6661_5531"/>
<feBlend mode="normal" in="SourceGraphic" in2="effect1_dropShadow_6661_5531" result="shape"/>
</filter>
<linearGradient id="paint0_linear_6661_5531" x1="6.55958" y1="3.4256" x2="17.4395" y2="20.5696" gradientUnits="userSpaceOnUse">
<stop stop-color="#FFFC00"/>
<stop offset="0.5" stop-color="#FFF000"/>
<stop offset="1" stop-color="#FFE400"/>
</linearGradient>
<linearGradient id="paint1_linear_6661_5531" x1="7.54822" y1="4.98949" x2="16.4501" y2="19.0165" gradientUnits="userSpaceOnUse">
<stop stop-color="#FFDE00"/>
<stop offset="0.5" stop-color="#FDEC50"/>
<stop offset="1" stop-color="#FBFA9F"/>
</linearGradient>
<linearGradient id="paint2_linear_6661_5531" x1="8.48795" y1="5.71554" x2="15.3213" y2="16.3165" gradientUnits="userSpaceOnUse">
<stop stop-color="#E8991E"/>
<stop offset="0.5" stop-color="#E88908"/>
<stop offset="1" stop-color="#D97500"/>
</linearGradient>
<clipPath id="clip0_6661_5531">
<rect width="24" height="24" fill="white"/>
</clipPath>
</defs>
</svg>
