<svg  viewBox="0 0 32 32" fill="none" xmlns="http://www.w3.org/2000/svg">
<g clip-path="url(#clip0_7946_17895)">
<rect width="32" height="32" rx="16" fill="white"/>
<g clip-path="url(#clip1_7946_17895)">
<g clip-path="url(#clip2_7946_17895)">
<path d="M29.7188 -1H1.28125C-0.530934 -1 -2 0.469066 -2 2.28125V30.7188C-2 32.5309 -0.530934 34 1.28125 34H29.7188C31.5309 34 33 32.5309 33 30.7188V2.28125C33 0.469066 31.5309 -1 29.7188 -1Z" fill="url(#paint0_linear_7946_17895)"/>
<g clip-path="url(#clip3_7946_17895)">
<path d="M20.4413 24.8362C21.8894 24.1772 22.2405 22.8336 22.2756 21.0963C22.3019 19.941 22.179 18.5974 22.4687 17.3222C22.7495 16.0899 23.4692 14.926 23.9606 13.8562C24.6979 12.3072 24.97 10.938 23.987 9.72273C22.9777 8.50749 21.5559 8.46471 19.827 8.81559C18.6509 9.07232 17.3257 9.46599 16.0004 9.46599C14.6752 9.46599 13.3499 9.07232 12.1827 8.81559C10.4449 8.45615 9.01438 8.50749 8.02264 9.72273C7.03091 10.938 7.30298 12.3072 8.0402 13.8562C8.53169 14.926 9.24256 16.0899 9.5322 17.3308C9.82182 18.5974 9.69894 19.941 9.72528 21.0963C9.76038 22.8336 10.1114 24.1772 11.5596 24.8362C11.9896 25.0416 12.4109 25.1358 12.8234 25.1358C13.78 25.1358 14.7103 24.6394 15.6845 23.9033C16.6499 23.2016 17.6855 22.2688 18.8615 21.7125C20.0639 21.1477 21.4155 20.968 22.5652 20.6855C24.303 20.2662 25.5579 19.6329 25.9178 18.1181C26.2776 16.6119 25.4263 15.4823 24.0573 14.3954C23.1181 13.6423 21.9772 12.8892 21.1434 11.8793C20.3272 10.8781 19.8621 9.63716 19.3179 8.58452C18.5105 7.05263 17.5977 6 16.0004 6C14.4119 6 13.4904 7.05263 12.6917 8.58452C12.1476 9.63716 11.6736 10.8695 10.8487 11.8793C10.0237 12.8978 8.88274 13.6423 7.95243 14.3954C6.58331 15.4823 5.732 16.6119 6.08305 18.1181C6.44289 19.6329 7.69792 20.2662 9.4181 20.6855C10.5941 20.968 11.9369 21.1477 13.1393 21.7125C14.3066 22.2688 15.351 23.193 16.3076 23.9119C17.2818 24.6394 18.2121 25.1358 19.1687 25.1358C19.59 25.1358 20.0112 25.0416 20.4413 24.8362ZM19.8357 23.6123C18.8528 24.0573 18.0278 23.4412 17.1852 22.825C16.1321 22.0548 14.9999 21.0621 13.7624 20.4801C12.4811 19.8811 11.0154 19.65 9.75161 19.3505C8.71599 19.0937 7.7067 18.8456 7.46095 17.81C7.22399 16.7831 8.02264 16.1327 8.83008 15.4652C9.83938 14.6521 11.0768 13.8135 11.9457 12.7437C12.8321 11.6825 13.3587 10.3389 13.9555 9.20069C14.4382 8.26788 14.9209 7.37784 16.0004 7.37784C17.0887 7.37784 17.5626 8.26788 18.0453 9.20069C18.6333 10.3389 19.1687 11.6739 20.0464 12.7437C20.924 13.822 22.1527 14.6521 23.162 15.4652C23.987 16.1327 24.7769 16.7831 24.5399 17.81C24.2942 18.8456 23.2849 19.0937 22.2492 19.3505C21.0469 19.6329 19.5198 19.8811 18.2384 20.4801C17.0009 21.0621 15.8337 22.0719 14.8156 22.8336C13.9731 23.4412 13.1393 24.0573 12.1651 23.6123C11.1997 23.1502 11.1646 22.1233 11.1383 21.0878C11.1119 19.8212 11.2173 18.3663 10.9101 17.0142C10.5941 15.7133 9.87448 14.4382 9.31279 13.2572C8.89151 12.3244 8.45269 11.4001 9.11969 10.5871C9.80426 9.76553 10.8136 9.9538 11.8579 10.1592C13.1305 10.4245 14.5786 10.8438 16.0004 10.8438C17.4222 10.8438 18.8703 10.4245 20.1429 10.1592C21.1873 9.94525 22.1966 9.76553 22.8724 10.5871C23.5482 11.4001 23.1093 12.3244 22.6881 13.2572C22.1264 14.4382 21.3979 15.7133 21.0995 17.0227C20.7836 18.3663 20.8889 19.8212 20.8626 21.0878C20.8362 22.1233 20.8099 23.1502 19.8357 23.6123Z" fill="white" fill-opacity="0.85"/>
</g>
</g>
</g>
</g>
<defs>
<linearGradient id="paint0_linear_7946_17895" x1="15.5" y1="-1" x2="15.5" y2="34" gradientUnits="userSpaceOnUse">
<stop stop-color="#E0A2F3"/>
<stop offset="1" stop-color="#D669ED"/>
</linearGradient>
<clipPath id="clip0_7946_17895">
<rect width="32" height="32" rx="16" fill="white"/>
</clipPath>
<clipPath id="clip1_7946_17895">
<rect width="32" height="32" rx="16" fill="white"/>
</clipPath>
<clipPath id="clip2_7946_17895">
<rect width="32" height="32" fill="white"/>
</clipPath>
<clipPath id="clip3_7946_17895">
<rect width="20" height="20" fill="white" transform="translate(6 6)"/>
</clipPath>
</defs>
</svg>
