<svg  viewBox="0 0 32 32" fill="none" xmlns="http://www.w3.org/2000/svg">
<path d="M32 16C32 24.8366 24.8366 32 16 32C7.16344 32 0 24.8366 0 16C0 7.16344 7.16344 0 16 0C24.8366 0 32 7.16344 32 16Z" fill="url(#paint0_linear_7946_17918)"/>
<g clip-path="url(#clip0_7946_17918)">
<path d="M15.5728 18.1621L13.2565 22.0186C13.1303 22.2432 12.8465 22.316 12.6132 22.1885C12.3862 22.0611 12.3042 21.7758 12.4366 21.5573L15.0251 17.2501L15.5728 18.1621ZM20.3387 9.71619C20.7108 9.75868 21.2091 9.94683 21.6631 10.2017C23.2398 11.0818 23.8326 12.4352 25.3652 13.2849C26.0336 13.6551 26.6201 13.7947 26.8977 13.9465C27.2193 14.1286 27.3707 14.432 27.1688 14.7658L24.6335 18.9961C24.3498 19.4695 23.9525 19.603 23.4983 19.5605C23.1264 19.5181 22.6344 19.3299 22.1803 19.0689C20.6036 18.1889 20.0046 16.8415 18.4783 15.9857C17.9612 15.7066 17.5008 15.5548 17.2044 15.4456L16.9724 15.8318L16.4251 14.9205L19.2099 10.2867C19.4938 9.8133 19.8911 9.67371 20.3387 9.71619Z" fill="white"/>
<path d="M19.5571 21.5573L12.7901 10.2867C12.5063 9.8133 12.109 9.67371 11.6549 9.71619C11.2828 9.75868 10.7846 9.94683 10.3368 10.2017C8.76018 11.0818 8.16105 12.4352 6.62855 13.2849C5.96004 13.6551 5.37353 13.7947 5.09603 13.9465C4.7744 14.1286 4.62934 14.432 4.82485 14.7658L7.36011 18.9961C7.64391 19.4695 8.04123 19.603 8.4953 19.5605C8.86738 19.5181 9.36561 19.3299 9.81338 19.0689C11.3963 18.1889 11.9892 16.8415 13.5217 15.9857C14.0325 15.7066 14.4992 15.5548 14.7956 15.4456L18.7372 22.0186C18.8697 22.2432 19.1535 22.316 19.3868 22.1885C19.6075 22.0611 19.6895 21.7758 19.5571 21.5573Z" fill="white"/>
</g>
<defs>
<linearGradient id="paint0_linear_7946_17918" x1="15.9987" y1="32.0236" x2="15.9987" y2="0.0241809" gradientUnits="userSpaceOnUse">
<stop stop-color="#82B1FF"/>
<stop offset="1" stop-color="#6E76FF"/>
</linearGradient>
<clipPath id="clip0_7946_17918">
<rect width="24" height="14" fill="white" transform="translate(4 9)"/>
</clipPath>
</defs>
</svg>
