<svg  viewBox="0 0 32 32" fill="none" xmlns="http://www.w3.org/2000/svg">
<path d="M32 16C32 24.8366 24.8366 32 16 32C7.16344 32 0 24.8366 0 16C0 7.16344 7.16344 0 16 0C24.8366 0 32 7.16344 32 16Z" fill="url(#paint0_linear_7946_17940)"/>
<path fill-rule="evenodd" clip-rule="evenodd" d="M13.2541 12.4879L15.1784 8.51155C15.4004 8.05279 15.937 7.86852 16.3771 8.09986C16.5499 8.19071 16.6897 8.33763 16.7754 8.51845L18.5926 12.3533C18.7411 12.6665 19.0313 12.8804 19.3641 12.9218L23.1696 13.3955C23.6862 13.4598 24.0549 13.9485 23.9933 14.487C23.9678 14.7087 23.8707 14.9148 23.7177 15.0713L20.71 18.1486C20.5885 18.2729 20.5296 18.4491 20.5508 18.6251L21.0507 22.7796C21.1222 23.3744 20.7177 23.917 20.1471 23.9916C19.9309 24.0198 19.7116 23.9767 19.5201 23.8682L16.3423 22.0669C16.1123 21.9366 15.8356 21.9328 15.6025 22.0568L12.31 23.8093C11.8467 24.0559 11.2793 23.8643 11.0426 23.3813C10.9541 23.2006 10.9215 22.9957 10.9492 22.7949L11.2123 20.8888C11.341 19.9565 11.8969 19.1478 12.7024 18.721L16.3592 16.7834C16.4569 16.7316 16.4958 16.6072 16.4462 16.5054C16.4077 16.4265 16.3254 16.382 16.2414 16.3944L11.769 17.059C11.0854 17.1607 10.3921 16.9604 9.85602 16.5066L8.36648 15.2452C7.94133 14.8853 7.87669 14.2343 8.22195 13.7912C8.38256 13.5852 8.61304 13.4514 8.86567 13.4177L12.6846 12.9077C12.9296 12.875 13.1429 12.7177 13.2541 12.4879Z" fill="white"/>
<defs>
<linearGradient id="paint0_linear_7946_17940" x1="15.9593" y1="4.16902" x2="15.968" y2="32" gradientUnits="userSpaceOnUse">
<stop stop-color="#FAC546"/>
<stop offset="1" stop-color="#FFAB2E"/>
</linearGradient>
</defs>
</svg>
