<svg  viewBox="0 0 32 32" fill="none" xmlns="http://www.w3.org/2000/svg">
<path d="M32 16C32 24.8366 24.8366 32 16 32C7.16344 32 0 24.8366 0 16C0 7.16344 7.16344 0 16 0C24.8366 0 32 7.16344 32 16Z" fill="url(#paint0_linear_7946_17877)"/>
<path d="M16.4687 12.7187C16.4687 12.4599 16.2589 12.25 16 12.25C15.7411 12.25 15.5313 12.4599 15.5313 12.7187V15.5313H12.7187C12.4599 15.5313 12.25 15.7411 12.25 16C12.25 16.2589 12.4599 16.4687 12.7187 16.4687H15.5313V19.2813C15.5313 19.5401 15.7411 19.75 16 19.75C16.2589 19.75 16.4687 19.5401 16.4687 19.2813V16.4687H19.2813C19.5401 16.4687 19.75 16.2589 19.75 16C19.75 15.7411 19.5401 15.5313 19.2813 15.5313H16.4687V12.7187Z" fill="white"/>
<path fill-rule="evenodd" clip-rule="evenodd" d="M16 8.2298C11.7087 8.2298 8.2298 11.7087 8.2298 16C8.2298 20.2913 11.7087 23.7702 16 23.7702C16.4751 23.7702 16.9396 23.7276 17.3903 23.6463C17.7245 23.5859 18.0444 23.8079 18.1047 24.1421C18.165 24.4763 17.943 24.7962 17.6088 24.8565C17.0864 24.9508 16.5487 25 16 25C11.0294 25 7 20.9706 7 16C7 11.0294 11.0294 7 16 7C16.5487 7 17.0864 7.04918 17.6088 7.1435C17.943 7.2038 18.165 7.52366 18.1047 7.85788C18.0444 8.19205 17.7245 8.41408 17.3903 8.35373C16.9396 8.27237 16.4751 8.2298 16 8.2298ZM21.1247 8.60065C20.8457 8.40706 20.4626 8.47631 20.269 8.75531C20.0754 9.03435 20.1447 9.41748 20.4237 9.61107C21.1904 10.1431 21.857 10.8096 22.3889 11.5763C22.5825 11.8553 22.9656 11.9246 23.2447 11.731C23.5237 11.5374 23.5929 11.1543 23.3994 10.8753C22.7836 9.98772 22.0123 9.21642 21.1247 8.60065ZM24.8565 14.3912C24.7962 14.057 24.4763 13.835 24.1421 13.8953C23.808 13.9556 23.5859 14.2755 23.6463 14.6097C23.7276 15.0603 23.7702 15.525 23.7702 16C23.7702 16.475 23.7276 16.9396 23.6463 17.3903C23.5859 17.7245 23.808 18.0443 24.1421 18.1047C24.4763 18.165 24.7962 17.943 24.8565 17.6088C24.9508 17.0864 25 16.5487 25 16C25 15.4513 24.9508 14.9136 24.8565 14.3912ZM23.3994 21.1247C23.5929 20.8457 23.5237 20.4626 23.2447 20.269C22.9656 20.0754 22.5825 20.1446 22.3889 20.4237C21.857 21.1904 21.1904 21.8569 20.4237 22.3889C20.1447 22.5825 20.0754 22.9656 20.269 23.2446C20.4626 23.5237 20.8457 23.5929 21.1247 23.3994C22.0123 22.7836 22.7836 22.0123 23.3994 21.1247Z" fill="white"/>
<defs>
<linearGradient id="paint0_linear_7946_17877" x1="15.9593" y1="4.16902" x2="15.968" y2="32" gradientUnits="userSpaceOnUse">
<stop stop-color="#FAC546"/>
<stop offset="1" stop-color="#FFAB2E"/>
</linearGradient>
</defs>
</svg>
