<svg  viewBox="0 0 20 20" fill="none" xmlns="http://www.w3.org/2000/svg">
<path d="M20 10.2128C20 15.6181 15.5228 20 10 20C4.47715 20 0 15.6181 0 10.2128C0 4.80743 4.47715 0.425532 10 0.425532C15.5228 0.425532 20 4.80743 20 10.2128Z" fill="black" fill-opacity="0.5"/>
<path fill-rule="evenodd" clip-rule="evenodd" d="M20 9.78723C20 15.1926 15.5228 19.5745 10 19.5745C4.47715 19.5745 0 15.1926 0 9.78723C0 4.38189 4.47715 0 10 0C15.5228 0 20 4.38189 20 9.78723ZM10 19.183C15.3019 19.183 19.6 14.9764 19.6 9.78723C19.6 4.59811 15.3019 0.391489 10 0.391489C4.69807 0.391489 0.4 4.59811 0.4 9.78723C0.4 14.9764 4.69807 19.183 10 19.183Z" fill="black"/>
<path d="M19.5652 9.78723C19.5652 14.9576 15.2827 19.1489 10 19.1489C4.71728 19.1489 0.434783 14.9576 0.434783 9.78723C0.434783 4.61691 4.71728 0.425532 10 0.425532C15.2827 0.425532 19.5652 4.61691 19.5652 9.78723Z" fill="url(#paint0_linear_9012_9239)"/>
<path d="M18.6957 9.78723C18.6957 14.4875 14.8025 18.2979 10 18.2979C5.19752 18.2979 1.30435 14.4875 1.30435 9.78723C1.30435 5.08694 5.19752 1.2766 10 1.2766C14.8025 1.2766 18.6957 5.08694 18.6957 9.78723Z" fill="url(#paint1_linear_9012_9239)"/>
<path d="M16.9565 9.78723C16.9565 13.5475 13.842 16.5957 10 16.5957C6.15802 16.5957 3.04348 13.5475 3.04348 9.78723C3.04348 6.027 6.15802 2.97872 10 2.97872C13.842 2.97872 16.9565 6.027 16.9565 9.78723Z" fill="url(#paint2_linear_9012_9239)"/>
<path d="M18.6955 9.96445C18.6942 10.1911 18.6838 10.4159 18.665 10.6383C18.3477 6.18304 14.6233 2.21203 10.0494 2.18325C5.47512 2.15427 1.7008 6.07805 1.32651 10.529C1.31063 10.3062 1.30313 10.0813 1.30451 9.85462C1.33503 5.08706 5.25279 1.24664 10.0551 1.27677C14.8574 1.30706 18.726 5.19668 18.6955 9.96445Z" fill="white" fill-opacity="0.2"/>
<path fill-rule="evenodd" clip-rule="evenodd" d="M4.34783 9.78723C4.34783 6.73204 6.87839 4.25532 10 4.25532C13.1216 4.25532 15.6522 6.73204 15.6522 9.78723C15.6522 12.8424 13.1216 15.3191 10 15.3191C6.87839 15.3191 4.34783 12.8424 4.34783 9.78723ZM10.2898 6.55318C10.2898 6.22416 10.0303 5.95745 9.71012 5.95745C9.38997 5.95745 9.13043 6.22416 9.13043 6.55318V10.1276C9.13043 10.3532 9.25449 10.5595 9.45088 10.6604L11.7696 11.8519C12.056 11.999 12.4042 11.8797 12.5474 11.5855C12.6905 11.2912 12.5745 10.9333 12.2881 10.7862L10.2898 9.75939V6.55318Z" fill="#883308"/>
<defs>
<linearGradient id="paint0_linear_9012_9239" x1="10" y1="0" x2="10" y2="20" gradientUnits="userSpaceOnUse">
<stop stop-color="#FABF33"/>
<stop offset="1" stop-color="#FFDE60"/>
</linearGradient>
<linearGradient id="paint1_linear_9012_9239" x1="10" y1="0" x2="10" y2="20" gradientUnits="userSpaceOnUse">
<stop stop-color="#FFDE60"/>
<stop offset="1" stop-color="#FABF33"/>
</linearGradient>
<linearGradient id="paint2_linear_9012_9239" x1="10" y1="0" x2="10" y2="20" gradientUnits="userSpaceOnUse">
<stop stop-color="#FABF33"/>
<stop offset="1" stop-color="#FFDE60"/>
</linearGradient>
</defs>
</svg>
