<svg  viewBox="0 0 10 14" fill="none" xmlns="http://www.w3.org/2000/svg">
<g filter="url(#filter0_d_8494_10060)">
<mask id="path-1-outside-1_8494_10060" maskUnits="userSpaceOnUse" x="0" y="0" width="10" height="14" fill="black">
<rect fill="white" width="10" height="14"/>
<path fill-rule="evenodd" clip-rule="evenodd" d="M1.2318 1.35984C1.58537 0.935564 2.21593 0.87824 2.64021 1.2318L8.64021 6.2318C8.8682 6.4218 9.00003 6.70325 9.00003 7.00003C9.00003 7.2968 8.8682 7.57825 8.64021 7.76825L2.64021 12.7682C2.21593 13.1218 1.58537 13.0645 1.2318 12.6402C0.87824 12.2159 0.935564 11.5854 1.35984 11.2318L6.43798 7.00003L1.35984 2.76825C0.935564 2.41468 0.87824 1.78412 1.2318 1.35984Z"/>
</mask>
<path fill-rule="evenodd" clip-rule="evenodd" d="M1.2318 1.35984C1.58537 0.935564 2.21593 0.87824 2.64021 1.2318L8.64021 6.2318C8.8682 6.4218 9.00003 6.70325 9.00003 7.00003C9.00003 7.2968 8.8682 7.57825 8.64021 7.76825L2.64021 12.7682C2.21593 13.1218 1.58537 13.0645 1.2318 12.6402C0.87824 12.2159 0.935564 11.5854 1.35984 11.2318L6.43798 7.00003L1.35984 2.76825C0.935564 2.41468 0.87824 1.78412 1.2318 1.35984Z" fill="white"/>
<path d="M2.64021 1.2318L2.32012 1.61591L2.32012 1.61591L2.64021 1.2318ZM1.2318 1.35984L1.61591 1.67993L1.61591 1.67993L1.2318 1.35984ZM8.64021 6.2318L8.9603 5.84769L8.9603 5.84769L8.64021 6.2318ZM8.64021 7.76825L8.9603 8.15236L8.9603 8.15236L8.64021 7.76825ZM2.64021 12.7682L2.32012 12.3841L2.32012 12.3841L2.64021 12.7682ZM1.2318 12.6402L1.61591 12.3201L1.61591 12.3201L1.2318 12.6402ZM1.35984 11.2318L1.67993 11.6159L1.67993 11.6159L1.35984 11.2318ZM6.43798 7.00003L6.75807 7.38414C6.87206 7.28914 6.93798 7.14842 6.93798 7.00003C6.93798 6.85164 6.87206 6.71091 6.75807 6.61591L6.43798 7.00003ZM1.35984 2.76825L1.67993 2.38414L1.67993 2.38414L1.35984 2.76825ZM2.9603 0.847693C2.32389 0.317347 1.37804 0.403333 0.847693 1.03975L1.61591 1.67993C1.7927 1.46779 2.10798 1.43913 2.32012 1.61591L2.9603 0.847693ZM8.9603 5.84769L2.9603 0.847693L2.32012 1.61591L8.32012 6.61591L8.9603 5.84769ZM9.50003 7.00003C9.50003 6.55486 9.30229 6.13268 8.9603 5.84769L8.32012 6.61591C8.43411 6.71091 8.50003 6.85164 8.50003 7.00003H9.50003ZM8.9603 8.15236C9.30229 7.86737 9.50003 7.44519 9.50003 7.00003H8.50003C8.50003 7.14841 8.43411 7.28914 8.32012 7.38414L8.9603 8.15236ZM2.9603 13.1524L8.9603 8.15236L8.32012 7.38414L2.32012 12.3841L2.9603 13.1524ZM0.847693 12.9603C1.37804 13.5967 2.32389 13.6827 2.9603 13.1524L2.32012 12.3841C2.10798 12.5609 1.7927 12.5323 1.61591 12.3201L0.847693 12.9603ZM1.03975 10.8477C0.403333 11.378 0.317347 12.3239 0.847693 12.9603L1.61591 12.3201C1.43913 12.108 1.46779 11.7927 1.67993 11.6159L1.03975 10.8477ZM6.11788 6.61591L1.03975 10.8477L1.67993 11.6159L6.75807 7.38414L6.11788 6.61591ZM1.03975 3.15236L6.11788 7.38414L6.75807 6.61591L1.67993 2.38414L1.03975 3.15236ZM0.847693 1.03975C0.317347 1.67616 0.403333 2.62201 1.03975 3.15236L1.67993 2.38414C1.46779 2.20735 1.43913 1.89207 1.61591 1.67993L0.847693 1.03975Z" fill="black" mask="url(#path-1-outside-1_8494_10060)"/>
</g>
<defs>
<filter id="filter0_d_8494_10060" x="0.5" y="0.5" width="9" height="13.5" filterUnits="userSpaceOnUse" color-interpolation-filters="sRGB">
<feFlood flood-opacity="0" result="BackgroundImageFix"/>
<feColorMatrix in="SourceAlpha" type="matrix" values="0 0 0 0 0 0 0 0 0 0 0 0 0 0 0 0 0 0 127 0" result="hardAlpha"/>
<feOffset dy="0.5"/>
<feComposite in2="hardAlpha" operator="out"/>
<feColorMatrix type="matrix" values="0 0 0 0 0 0 0 0 0 0 0 0 0 0 0 0 0 0 1 0"/>
<feBlend mode="normal" in2="BackgroundImageFix" result="effect1_dropShadow_8494_10060"/>
<feBlend mode="normal" in="SourceGraphic" in2="effect1_dropShadow_8494_10060" result="shape"/>
</filter>
</defs>
</svg>
