<svg width="18" height="19" viewBox="0 0 18 19" fill="none" xmlns="http://www.w3.org/2000/svg">
<g filter="url(#filter0_d_6443_7167)">
<path d="M1.58579 1.58579C2.36684 0.804738 3.63317 0.804738 4.41421 1.58579L9 6.17157L13.5858 1.58579C14.3668 0.804738 15.6332 0.804738 16.4142 1.58579C17.1953 2.36684 17.1953 3.63317 16.4142 4.41421L11.8284 9L16.4141 13.5857C17.1952 14.3668 17.1952 15.6331 16.4141 16.4141C15.6331 17.1952 14.3668 17.1952 13.5857 16.4141L9 11.8284L4.41421 16.4142C3.63317 17.1953 2.36684 17.1953 1.58579 16.4142C0.804738 15.6332 0.804738 14.3668 1.58579 13.5858L6.17157 9L1.58579 4.41421C0.804738 3.63317 0.804738 2.36684 1.58579 1.58579Z" fill="#F3282B"/>
<path d="M4.63179 1.36822C3.73058 0.467005 2.26943 0.467005 1.36822 1.36822C0.467005 2.26943 0.467005 3.73058 1.36822 4.63179L5.73643 9L1.36822 13.3682C0.467005 14.2694 0.467005 15.7306 1.36822 16.6318C2.26943 17.533 3.73058 17.533 4.63179 16.6318L9 12.2636L13.3681 16.6317C14.2694 17.5329 15.7305 17.5329 16.6317 16.6317C17.5329 15.7305 17.5329 14.2694 16.6317 13.3681L12.2636 9L16.6318 4.63179C17.533 3.73058 17.533 2.26943 16.6318 1.36822C15.7306 0.467005 14.2694 0.467005 13.3682 1.36822L9 5.73643L4.63179 1.36822Z" stroke="#7E1712" stroke-width="0.615385" stroke-linecap="round" stroke-linejoin="round"/>
</g>
<defs>
<filter id="filter0_d_6443_7167" x="0.384521" y="0.382812" width="17.231" height="17.8498" filterUnits="userSpaceOnUse" color-interpolation-filters="sRGB">
<feFlood flood-opacity="0" result="BackgroundImageFix"/>
<feColorMatrix in="SourceAlpha" type="matrix" values="0 0 0 0 0 0 0 0 0 0 0 0 0 0 0 0 0 0 127 0" result="hardAlpha"/>
<feOffset dy="0.615385"/>
<feComposite in2="hardAlpha" operator="out"/>
<feColorMatrix type="matrix" values="0 0 0 0 0 0 0 0 0 0 0 0 0 0 0 0 0 0 1 0"/>
<feBlend mode="normal" in2="BackgroundImageFix" result="effect1_dropShadow_6443_7167"/>
<feBlend mode="normal" in="SourceGraphic" in2="effect1_dropShadow_6443_7167" result="shape"/>
</filter>
</defs>
</svg>
