<svg width="18" height="15" viewBox="0 0 18 15" fill="none" xmlns="http://www.w3.org/2000/svg">
<g filter="url(#filter0_d_6443_7164)">
<path fill-rule="evenodd" clip-rule="evenodd" d="M16.5497 1.37071C17.1206 1.89148 17.153 2.76759 16.622 3.32756L7.86909 12.5583C7.60289 12.8391 7.22994 12.999 6.83906 13C6.44818 13.001 6.07436 12.8431 5.80664 12.5637L1.38312 7.94834C0.849096 7.39116 0.876729 6.51489 1.44484 5.99113C2.01294 5.46738 2.9064 5.49448 3.44042 6.05167L6.82978 9.58803L14.5544 1.44168C15.0854 0.881711 15.9787 0.849935 16.5497 1.37071Z" fill="#3CEE40"/>
<path d="M16.8034 3.49958C17.431 2.8378 17.3922 1.80086 16.7181 1.186C16.0468 0.573671 14.9979 0.610638 14.373 1.26966L6.82881 9.22572L3.62091 5.87868C2.99246 5.22298 1.94341 5.19145 1.27538 5.80733C0.60458 6.42575 0.571558 7.46288 1.20263 8.12133L5.62616 12.7367C5.94173 13.066 6.38126 13.2512 6.83971 13.25C7.29817 13.2488 7.7367 13.0613 8.0505 12.7303L16.8034 3.49958Z" stroke="#175F18" stroke-width="0.5" stroke-linecap="round" stroke-linejoin="round"/>
</g>
<defs>
<filter id="filter0_d_6443_7164" x="0.5" y="0.5" width="17" height="13.6154" filterUnits="userSpaceOnUse" color-interpolation-filters="sRGB">
<feFlood flood-opacity="0" result="BackgroundImageFix"/>
<feColorMatrix in="SourceAlpha" type="matrix" values="0 0 0 0 0 0 0 0 0 0 0 0 0 0 0 0 0 0 127 0" result="hardAlpha"/>
<feOffset dy="0.615385"/>
<feComposite in2="hardAlpha" operator="out"/>
<feColorMatrix type="matrix" values="0 0 0 0 0 0 0 0 0 0 0 0 0 0 0 0 0 0 1 0"/>
<feBlend mode="normal" in2="BackgroundImageFix" result="effect1_dropShadow_6443_7164"/>
<feBlend mode="normal" in="SourceGraphic" in2="effect1_dropShadow_6443_7164" result="shape"/>
</filter>
</defs>
</svg>
