<svg width="4" height="19" viewBox="0 0 4 19" fill="none" xmlns="http://www.w3.org/2000/svg">
<g filter="url(#filter0_d_6443_7171)">
<path d="M1.1338 12.5657C0.992958 12.5657 0.87324 12.52 0.774648 12.4286C0.676056 12.3219 0.626761 12.1848 0.626761 12.0171V1.54857C0.626761 1.39619 0.676056 1.26667 0.774648 1.16C0.87324 1.05333 0.992958 1 1.1338 1H2.84507C3 1 3.11972 1.05333 3.20423 1.16C3.30282 1.26667 3.35211 1.39619 3.35211 1.54857V12.0171C3.35211 12.1848 3.30282 12.3219 3.20423 12.4286C3.11972 12.52 3 12.5657 2.84507 12.5657H1.1338ZM1.00704 17C0.852113 17 0.725352 16.9467 0.626761 16.84C0.542254 16.7333 0.5 16.6038 0.5 16.4514V14.3257C0.5 14.1581 0.542254 14.021 0.626761 13.9143C0.725352 13.8076 0.852113 13.7543 1.00704 13.7543H2.97183C3.12676 13.7543 3.25352 13.8076 3.35211 13.9143C3.4507 14.021 3.5 14.1581 3.5 14.3257V16.4514C3.5 16.6038 3.4507 16.7333 3.35211 16.84C3.25352 16.9467 3.12676 17 2.97183 17H1.00704Z" fill="#F0A238"/>
<path d="M0.627777 12.5643L0.633006 12.57L0.638654 12.5752C0.776116 12.7027 0.945156 12.7657 1.1338 12.7657H2.84507C3.04117 12.7657 3.21984 12.7063 3.3511 12.5643C3.48909 12.415 3.55211 12.2268 3.55211 12.0171V1.54857C3.55211 1.3511 3.48731 1.17431 3.35614 1.02975C3.22841 0.872369 3.04892 0.8 2.84507 0.8H1.1338C0.935237 0.8 0.762883 0.878075 0.627777 1.02425C0.493227 1.16982 0.426761 1.34858 0.426761 1.54857V12.0171C0.426761 12.2268 0.489786 12.415 0.627777 12.5643ZM0.469996 16.9642L0.474723 16.9702L0.479889 16.9758C0.61908 17.1263 0.80051 17.2 1.00704 17.2H2.97183C3.17836 17.2 3.35979 17.1263 3.49898 16.9758C3.63353 16.8302 3.7 16.6514 3.7 16.4514V14.3257C3.7 14.1161 3.63698 13.9278 3.49898 13.7785C3.35979 13.6279 3.17836 13.5543 2.97183 13.5543H1.00704C0.80051 13.5543 0.61908 13.6279 0.479889 13.7785L0.474723 13.7841L0.469996 13.7901C0.351484 13.9397 0.3 14.1237 0.3 14.3257V16.4514C0.3 16.6432 0.354139 16.818 0.469996 16.9642Z" stroke="#6E440A" stroke-width="0.4"/>
</g>
<defs>
<filter id="filter0_d_6443_7171" x="0.100098" y="0.601562" width="3.7998" height="17.4123" filterUnits="userSpaceOnUse" color-interpolation-filters="sRGB">
<feFlood flood-opacity="0" result="BackgroundImageFix"/>
<feColorMatrix in="SourceAlpha" type="matrix" values="0 0 0 0 0 0 0 0 0 0 0 0 0 0 0 0 0 0 127 0" result="hardAlpha"/>
<feOffset dy="0.615385"/>
<feComposite in2="hardAlpha" operator="out"/>
<feColorMatrix type="matrix" values="0 0 0 0 0 0 0 0 0 0 0 0 0 0 0 0 0 0 1 0"/>
<feBlend mode="normal" in2="BackgroundImageFix" result="effect1_dropShadow_6443_7171"/>
<feBlend mode="normal" in="SourceGraphic" in2="effect1_dropShadow_6443_7171" result="shape"/>
</filter>
</defs>
</svg>
