<svg width="97" height="29" viewBox="0 0 97 29" fill="none" xmlns="http://www.w3.org/2000/svg">
<g filter="url(#filter0_dii_3322_4227)">
<rect x="15" y="3" width="80" height="22" rx="6" fill="#A90A31"/>
</g>
<circle cx="14" cy="14.9336" r="14" fill="#883308"/>
<circle cx="14" cy="14" r="14" fill="#FFE007"/>
<circle cx="14" cy="14" r="14" fill="url(#paint0_linear_3322_4227)"/>
<g filter="url(#filter1_i_3322_4227)">
<g clip-path="url(#clip0_3322_4227)">
<rect x="2.80078" y="2.80078" width="22.4" height="22.4" rx="11.2" fill="white"/>
<path d="M12.1323 1.86719H15.8657V3.73385C15.8657 4.76478 15.0299 5.60052 13.999 5.60052C12.9681 5.60052 12.1323 4.76479 12.1323 3.73386V1.86719Z" fill="#883308"/>
<path d="M12.1323 24.2651C12.1323 23.2342 12.9681 22.3984 13.999 22.3984C15.0299 22.3984 15.8657 23.2342 15.8657 24.2651V26.1318H12.1323V24.2651Z" fill="#883308"/>
<path d="M1.86572 12.1328H3.73239C4.76332 12.1328 5.59906 12.9685 5.59906 13.9995C5.59906 15.0304 4.76332 15.8661 3.73239 15.8661H1.86572V12.1328Z" fill="#883308"/>
<path d="M22.3999 13.9995C22.3999 12.9685 23.2356 12.1328 24.2666 12.1328H26.1332V15.8661H24.2666C23.2356 15.8661 22.3999 15.0304 22.3999 13.9995Z" fill="#883308"/>
<circle cx="13.999" cy="13.9995" r="1.86667" fill="#883308"/>
<path d="M13.999 9.33203V13.9987H20.5324" stroke="#883308" stroke-width="1.4" stroke-linecap="round"/>
</g>
</g>
<defs>
<filter id="filter0_dii_3322_4227" x="13" y="2" width="84" height="27" filterUnits="userSpaceOnUse" color-interpolation-filters="sRGB">
<feFlood flood-opacity="0" result="BackgroundImageFix"/>
<feColorMatrix in="SourceAlpha" type="matrix" values="0 0 0 0 0 0 0 0 0 0 0 0 0 0 0 0 0 0 127 0" result="hardAlpha"/>
<feOffset dy="2"/>
<feGaussianBlur stdDeviation="1"/>
<feComposite in2="hardAlpha" operator="out"/>
<feColorMatrix type="matrix" values="0 0 0 0 0 0 0 0 0 0 0 0 0 0 0 0 0 0 0.3 0"/>
<feBlend mode="normal" in2="BackgroundImageFix" result="effect1_dropShadow_3322_4227"/>
<feBlend mode="normal" in="SourceGraphic" in2="effect1_dropShadow_3322_4227" result="shape"/>
<feColorMatrix in="SourceAlpha" type="matrix" values="0 0 0 0 0 0 0 0 0 0 0 0 0 0 0 0 0 0 127 0" result="hardAlpha"/>
<feOffset dx="-1" dy="-2"/>
<feGaussianBlur stdDeviation="0.5"/>
<feComposite in2="hardAlpha" operator="arithmetic" k2="-1" k3="1"/>
<feColorMatrix type="matrix" values="0 0 0 0 0 0 0 0 0 0 0 0 0 0 0 0 0 0 0.3 0"/>
<feBlend mode="normal" in2="shape" result="effect2_innerShadow_3322_4227"/>
<feColorMatrix in="SourceAlpha" type="matrix" values="0 0 0 0 0 0 0 0 0 0 0 0 0 0 0 0 0 0 127 0" result="hardAlpha"/>
<feOffset dx="-1" dy="1"/>
<feGaussianBlur stdDeviation="0.5"/>
<feComposite in2="hardAlpha" operator="arithmetic" k2="-1" k3="1"/>
<feColorMatrix type="matrix" values="0 0 0 0 1 0 0 0 0 1 0 0 0 0 1 0 0 0 0.15 0"/>
<feBlend mode="normal" in2="effect2_innerShadow_3322_4227" result="effect3_innerShadow_3322_4227"/>
</filter>
<filter id="filter1_i_3322_4227" x="2.80078" y="2.80078" width="22.3999" height="22.8651" filterUnits="userSpaceOnUse" color-interpolation-filters="sRGB">
<feFlood flood-opacity="0" result="BackgroundImageFix"/>
<feBlend mode="normal" in="SourceGraphic" in2="BackgroundImageFix" result="shape"/>
<feColorMatrix in="SourceAlpha" type="matrix" values="0 0 0 0 0 0 0 0 0 0 0 0 0 0 0 0 0 0 127 0" result="hardAlpha"/>
<feOffset dy="1.4"/>
<feGaussianBlur stdDeviation="0.233333"/>
<feComposite in2="hardAlpha" operator="arithmetic" k2="-1" k3="1"/>
<feColorMatrix type="matrix" values="0 0 0 0 0 0 0 0 0 0 0 0 0 0 0 0 0 0 0.3 0"/>
<feBlend mode="normal" in2="shape" result="effect1_innerShadow_3322_4227"/>
</filter>
<linearGradient id="paint0_linear_3322_4227" x1="14" y1="0" x2="14" y2="28" gradientUnits="userSpaceOnUse">
<stop stop-color="#FFDE60"/>
<stop offset="1" stop-color="#FABF33"/>
</linearGradient>
<clipPath id="clip0_3322_4227">
<rect x="2.80078" y="2.80078" width="22.4" height="22.4" rx="11.2" fill="white"/>
</clipPath>
</defs>
</svg>
