<svg width="62" height="62" viewBox="0 0 62 62" fill="none" xmlns="http://www.w3.org/2000/svg">
<g filter="url(#filter0_dd_3322_4391)">
<circle cx="31" cy="27" r="19" fill="#A6552D"/>
</g>
<g filter="url(#filter1_ii_3322_4391)">
<circle cx="31" cy="25" r="19" fill="#EFC609"/>
</g>
<g filter="url(#filter2_i_3322_4391)">
<circle cx="31" cy="25" r="15" fill="#A6552D"/>
</g>
<path d="M44 25C44 32.1797 38.1797 38 31 38C23.8203 38 18 32.1797 18 25C18 17.8203 23.8203 12 31 12C38.1797 12 44 17.8203 44 25Z" fill="#FF3CD5"/>
<circle cx="31" cy="25" r="14" stroke="#422212" stroke-width="2"/>
<path opacity="0.3" d="M32.9307 14.8733C35.1732 16.9468 34.3758 21.4562 31.1497 24.9452C27.9236 28.4343 23.4904 29.5818 21.2479 27.5083C19.0054 25.4348 19.8028 20.9255 23.0289 17.4364C26.255 13.9473 30.6882 12.7998 32.9307 14.8733Z" fill="white"/>
<path opacity="0.3" d="M40.8236 26.6878C42.0439 27.8964 41.5088 30.4152 39.6284 32.3138C37.748 34.2124 35.2345 34.7718 34.0142 33.5633C32.7939 32.3547 33.329 29.8359 35.2094 27.9373C37.0898 26.0387 39.6033 25.4793 40.8236 26.6878Z" fill="white"/>
<path opacity="0.8" d="M22.4991 16.9903C22.542 16.7999 22.7841 16.7406 22.9101 16.8896L23.9702 18.1427L25.5713 18.5034C25.7617 18.5463 25.8211 18.7884 25.6721 18.9144L24.419 19.9745L24.0583 21.5757C24.0154 21.766 23.7733 21.8254 23.6473 21.6764L22.5872 20.4233L20.986 20.0626C20.7956 20.0197 20.7363 19.7776 20.8853 19.6516L22.1384 18.5915L22.4991 16.9903Z" fill="white"/>
<g filter="url(#filter3_d_3322_4391)">
<path fill-rule="evenodd" clip-rule="evenodd" d="M30.6265 29.3423L27.4759 31.2724C27.1483 31.473 26.72 31.3701 26.5193 31.0426C26.4213 30.8825 26.3921 30.6897 26.4383 30.5079L26.926 28.5883C27.1021 27.8953 27.5762 27.316 28.2208 27.0066L31.6579 25.3563C31.8182 25.2794 31.8857 25.0871 31.8088 24.9269C31.7465 24.7971 31.6056 24.7245 31.4637 24.7491L27.6377 25.4114C26.86 25.5461 26.0625 25.3313 25.4575 24.8244L24.2488 23.8115C23.9544 23.5647 23.9157 23.1259 24.1625 22.8315C24.2825 22.6883 24.4551 22.5994 24.6414 22.5848L28.3342 22.2958C28.5951 22.2754 28.8224 22.1103 28.9226 21.8685L30.3472 18.4296C30.4942 18.0746 30.9012 17.9061 31.2561 18.0531C31.4265 18.1237 31.5619 18.2592 31.6325 18.4296L33.0571 21.8685C33.1573 22.1103 33.3846 22.2754 33.6455 22.2958L37.3587 22.5864C37.7417 22.6164 38.0278 22.9511 37.9978 23.3342C37.9835 23.5184 37.8963 23.6894 37.7557 23.8093L34.9239 26.2234C34.7244 26.3934 34.6375 26.6609 34.6988 26.9156L35.5694 30.5322C35.6593 30.9058 35.4294 31.2814 35.0559 31.3714C34.8764 31.4146 34.6871 31.3846 34.5297 31.2882L31.3532 29.3423C31.1302 29.2057 30.8495 29.2057 30.6265 29.3423Z" fill="white"/>
<path d="M27.6065 31.4856L27.6065 31.4856C27.1611 31.7583 26.579 31.6185 26.3062 31.1732L26.3062 31.1732C26.1729 30.9556 26.1332 30.6935 26.196 30.4463L26.4383 30.5079L26.196 30.4463L26.6837 28.5267C26.878 27.7619 27.4013 27.1227 28.1126 26.7812L28.2208 27.0066L28.1126 26.7812L31.5497 25.131L31.5497 25.131C31.5855 25.1138 31.6006 25.0709 31.5834 25.0351C31.5695 25.0061 31.538 24.9899 31.5064 24.9954L31.5064 24.9954L27.6804 25.6578C26.8302 25.805 25.9583 25.5702 25.2969 25.016L25.2969 25.016L24.0883 24.0031L24.2476 23.8129L24.0883 24.0031C23.688 23.6676 23.6354 23.0712 23.9709 22.6709C23.9709 22.6709 23.9709 22.6709 23.9709 22.6709L24.1625 22.8315L27.6065 31.4856ZM27.6065 31.4856L30.7571 29.5555M27.6065 31.4856L30.7571 29.5555M37.9179 23.9995L37.9178 23.9995L35.0861 26.4137L35.086 26.4137C34.9583 26.5226 34.9026 26.6939 34.9418 26.8571C34.9418 26.8571 34.9419 26.8572 34.9419 26.8572L35.8124 30.4737C35.9347 30.9815 35.6221 31.4921 35.1145 31.6144L37.9179 23.9995ZM37.9179 23.9995C38.109 23.8365 38.2275 23.6042 38.2471 23.3537L37.9179 23.9995ZM30.7571 29.5555C30.7571 29.5555 30.7571 29.5555 30.7571 29.5555C30.8999 29.468 31.0798 29.468 31.2227 29.5555L34.3991 31.5013M30.7571 29.5555L34.3991 31.5013M34.3991 31.5013C34.613 31.6324 34.8704 31.6732 35.1145 31.6144L34.3991 31.5013ZM33.2881 21.7728L33.0571 21.8685L38.2471 23.3536C38.2878 22.833 37.8988 22.3779 37.3782 22.3371L33.665 22.0466C33.4979 22.0335 33.3523 21.9277 33.2881 21.7728Z" stroke="black" stroke-width="0.5"/>
</g>
<defs>
<filter id="filter0_dd_3322_4391" x="0" y="0" width="62" height="62" filterUnits="userSpaceOnUse" color-interpolation-filters="sRGB">
<feFlood flood-opacity="0" result="BackgroundImageFix"/>
<feColorMatrix in="SourceAlpha" type="matrix" values="0 0 0 0 0 0 0 0 0 0 0 0 0 0 0 0 0 0 127 0" result="hardAlpha"/>
<feOffset dy="2"/>
<feComposite in2="hardAlpha" operator="out"/>
<feColorMatrix type="matrix" values="0 0 0 0 0 0 0 0 0 0 0 0 0 0 0 0 0 0 0.5 0"/>
<feBlend mode="normal" in2="BackgroundImageFix" result="effect1_dropShadow_3322_4391"/>
<feColorMatrix in="SourceAlpha" type="matrix" values="0 0 0 0 0 0 0 0 0 0 0 0 0 0 0 0 0 0 127 0" result="hardAlpha"/>
<feOffset dy="4"/>
<feGaussianBlur stdDeviation="6"/>
<feComposite in2="hardAlpha" operator="out"/>
<feColorMatrix type="matrix" values="0 0 0 0 0 0 0 0 0 0 0 0 0 0 0 0 0 0 0.6 0"/>
<feBlend mode="normal" in2="effect1_dropShadow_3322_4391" result="effect2_dropShadow_3322_4391"/>
<feBlend mode="normal" in="SourceGraphic" in2="effect2_dropShadow_3322_4391" result="shape"/>
</filter>
<filter id="filter1_ii_3322_4391" x="12" y="5.5" width="38" height="38.5" filterUnits="userSpaceOnUse" color-interpolation-filters="sRGB">
<feFlood flood-opacity="0" result="BackgroundImageFix"/>
<feBlend mode="normal" in="SourceGraphic" in2="BackgroundImageFix" result="shape"/>
<feColorMatrix in="SourceAlpha" type="matrix" values="0 0 0 0 0 0 0 0 0 0 0 0 0 0 0 0 0 0 127 0" result="hardAlpha"/>
<feOffset dy="-1"/>
<feGaussianBlur stdDeviation="0.25"/>
<feComposite in2="hardAlpha" operator="arithmetic" k2="-1" k3="1"/>
<feColorMatrix type="matrix" values="0 0 0 0 1 0 0 0 0 1 0 0 0 0 1 0 0 0 0.3 0"/>
<feBlend mode="normal" in2="shape" result="effect1_innerShadow_3322_4391"/>
<feColorMatrix in="SourceAlpha" type="matrix" values="0 0 0 0 0 0 0 0 0 0 0 0 0 0 0 0 0 0 127 0" result="hardAlpha"/>
<feOffset dy="1"/>
<feComposite in2="hardAlpha" operator="arithmetic" k2="-1" k3="1"/>
<feColorMatrix type="matrix" values="0 0 0 0 1 0 0 0 0 1 0 0 0 0 1 0 0 0 0.3 0"/>
<feBlend mode="normal" in2="effect1_innerShadow_3322_4391" result="effect2_innerShadow_3322_4391"/>
</filter>
<filter id="filter2_i_3322_4391" x="16" y="10" width="30" height="31" filterUnits="userSpaceOnUse" color-interpolation-filters="sRGB">
<feFlood flood-opacity="0" result="BackgroundImageFix"/>
<feBlend mode="normal" in="SourceGraphic" in2="BackgroundImageFix" result="shape"/>
<feColorMatrix in="SourceAlpha" type="matrix" values="0 0 0 0 0 0 0 0 0 0 0 0 0 0 0 0 0 0 127 0" result="hardAlpha"/>
<feOffset dy="1"/>
<feGaussianBlur stdDeviation="4"/>
<feComposite in2="hardAlpha" operator="arithmetic" k2="-1" k3="1"/>
<feColorMatrix type="matrix" values="0 0 0 0 0 0 0 0 0 0 0 0 0 0 0 0 0 0 0.6 0"/>
<feBlend mode="normal" in2="shape" result="effect1_innerShadow_3322_4391"/>
</filter>
<filter id="filter3_d_3322_4391" x="23.5" y="17.5" width="15" height="14.8906" filterUnits="userSpaceOnUse" color-interpolation-filters="sRGB">
<feFlood flood-opacity="0" result="BackgroundImageFix"/>
<feColorMatrix in="SourceAlpha" type="matrix" values="0 0 0 0 0 0 0 0 0 0 0 0 0 0 0 0 0 0 127 0" result="hardAlpha"/>
<feOffset dy="0.5"/>
<feComposite in2="hardAlpha" operator="out"/>
<feColorMatrix type="matrix" values="0 0 0 0 0 0 0 0 0 0 0 0 0 0 0 0 0 0 1 0"/>
<feBlend mode="normal" in2="BackgroundImageFix" result="effect1_dropShadow_3322_4391"/>
<feBlend mode="normal" in="SourceGraphic" in2="effect1_dropShadow_3322_4391" result="shape"/>
</filter>
</defs>
</svg>
