<svg width="42" height="42" viewBox="0 0 42 42" fill="none" xmlns="http://www.w3.org/2000/svg">
<g filter="url(#filter0_iii_3322_4364)">
<path d="M40.9 19.6953L40.7699 18.9655C40.3998 17.3959 39.6096 15.9663 38.4494 14.7866L27.2066 3.55936C26.0663 2.41964 24.6459 1.61985 23.0655 1.23994L22.3053 1.08998C22.0052 1.03999 21.7052 1.02 21.4051 1H21.3251L20.6049 1C20.2948 1.01 19.9847 1.03999 19.6847 1.08998L18.9345 1.23994C17.3441 1.62984 15.9237 2.42964 14.8135 3.55936L3.57064 14.7866C2.41035 15.9463 1.61015 17.3959 1.24006 18.9755L1.10002 19.7053C1.03001 20.1452 1 20.5751 1 20.995C1 21.4149 1.03001 21.8448 1.10002 22.3047L1.24006 23.0245C1.61015 24.6041 2.41035 26.0437 3.57064 27.2034L14.7834 38.4106C15.9137 39.5604 17.3541 40.3702 18.9545 40.7601L19.7147 40.91C20.1348 40.97 20.5649 41 20.995 41C21.4251 41 21.8652 40.97 22.2853 40.91L23.0355 40.7601C24.6159 40.3602 26.0563 39.5604 27.1865 38.4306L38.4494 27.1835C39.5996 26.0237 40.3898 24.5841 40.7599 23.0145L40.9 22.2947C40.97 21.8548 41 21.4249 41 21.005C41 20.5851 40.97 20.1552 40.9 19.6953Z" fill="#FEA700"/>
</g>
<path d="M40.91 19.6853L40.9 19.6953M40.9 19.6953L40.7699 18.9655C40.3998 17.3959 39.6096 15.9663 38.4494 14.7866L27.2066 3.55936C26.0663 2.41964 24.6459 1.61985 23.0655 1.23994L22.3053 1.08998C22.0052 1.03999 21.7052 1.02 21.4051 1H21.3251L20.6049 1C20.2948 1.01 19.9847 1.03999 19.6847 1.08998L18.9345 1.23994C17.3441 1.62984 15.9237 2.42964 14.8135 3.55936L3.57064 14.7866C2.41035 15.9463 1.61015 17.3959 1.24006 18.9755L1.10002 19.7053C1.03001 20.1452 1 20.5751 1 20.995C1 21.4149 1.03001 21.8448 1.10002 22.3047L1.24006 23.0245C1.61015 24.6041 2.41035 26.0437 3.57064 27.2034L14.7834 38.4106C15.9137 39.5604 17.3541 40.3702 18.9545 40.7601L19.7147 40.91C20.1348 40.97 20.5649 41 20.995 41C21.4251 41 21.8652 40.97 22.2853 40.91L23.0355 40.7601C24.6159 40.3602 26.0563 39.5604 27.1865 38.4306L38.4494 27.1835C39.5996 26.0237 40.3898 24.5841 40.7599 23.0145L40.9 22.2947C40.97 21.8548 41 21.4249 41 21.005C41 20.5851 40.97 20.1552 40.9 19.6953Z" stroke="#192632"/>
<g filter="url(#filter1_i_3322_4364)">
<path d="M37 21C37 21.32 36.96 21.64 36.9 21.95C36.9 21.97 36.89 21.98 36.89 22C36.71 22.86 36.28 23.69 35.61 24.37L24.37 35.6C23.69 36.28 22.86 36.7 22 36.9C21.98 36.9 21.97 36.91 21.95 36.91C21.64 36.97 21.32 37 21 37C20.68 37 20.36 36.97 20.05 36.91C20.03 36.91 20.02 36.9 20 36.9C19.13 36.7 18.3 36.28 17.63 35.6L6.4 24.37C5.72 23.69 5.29 22.86 5.11 22C5.11 21.98 5.1 21.97 5.1 21.95C5.04 21.64 5 21.32 5 21C5 20.68 5.04 20.36 5.1 20.05C5.1 20.03 5.11 20.02 5.11 20C5.29 19.13 5.72 18.3 6.4 17.62L17.63 6.39C18.3 5.71 19.13 5.29 20 5.1C20.02 5.1 20.03 5.09 20.05 5.09C20.28 5.04 20.52 5.01 20.76 5H21.24C21.48 5.01 21.72 5.04 21.95 5.09C21.97 5.09 21.98 5.1 22 5.1C22.86 5.29 23.69 5.71 24.37 6.39L35.61 17.62C36.28 18.3 36.71 19.13 36.89 20C36.89 20.02 36.9 20.03 36.9 20.05C36.96 20.36 37 20.68 37 21Z" fill="#A6552D"/>
</g>
<path d="M37.1347 22.0512L37.1379 22.0358C37.1415 22.0232 37.1457 22.0052 37.1481 21.9836C37.2087 21.6672 37.25 21.3354 37.25 21C37.25 20.6646 37.2087 20.3329 37.1481 20.0164C37.1457 19.9945 37.1414 19.9763 37.1378 19.9637L37.1348 19.9493C36.9452 19.0327 36.4923 18.1592 35.7881 17.4445L35.7867 17.4431L24.5468 6.21322C24.5468 6.2132 24.5467 6.21317 24.5467 6.21314C23.8305 5.49693 22.9568 5.05535 22.0539 4.85589L22.0324 4.85112C22.0208 4.848 22.0054 4.84455 21.9874 4.84233C21.7475 4.79115 21.4986 4.76056 21.2504 4.75022L21.2504 4.75H21.24H20.76V4.74978L20.7496 4.75022C20.5014 4.76056 20.2525 4.79115 20.0126 4.84233C19.994 4.84462 19.9783 4.84821 19.9666 4.85139L19.9467 4.85576C19.0341 5.05504 18.1596 5.49655 17.4526 6.21388C17.4524 6.2141 17.4521 6.21432 17.4519 6.21454L6.22322 17.4432C5.50803 18.1584 5.05487 19.0325 4.86518 19.9493L4.86222 19.9637C4.85864 19.9763 4.85431 19.9945 4.85189 20.0163C4.79128 20.3328 4.75 20.6645 4.75 21C4.75 21.3355 4.79128 21.6672 4.85189 21.9837C4.85428 22.0052 4.85853 22.0233 4.86209 22.0359L4.8653 22.0512C5.05507 22.9579 5.50821 23.8318 6.22322 24.5468L17.4519 35.7755C17.4521 35.7757 17.4524 35.7759 17.4526 35.7761C18.1597 36.4935 19.0335 36.9343 19.944 37.1436L19.9716 37.15H19.9719C19.9838 37.153 19.9989 37.1562 20.0164 37.1581C20.3382 37.2195 20.6693 37.25 21 37.25C21.3307 37.25 21.6618 37.2195 21.9836 37.1581C22.0011 37.1562 22.0163 37.153 22.0281 37.15H22.0287L22.0566 37.1435C22.9573 36.934 23.8304 36.4931 24.5467 35.7769C24.5467 35.7768 24.5468 35.7768 24.5468 35.7768L35.7867 24.5469L35.7881 24.5455C36.4921 23.831 36.945 22.9577 37.1347 22.0512ZM19.9459 37.1422L19.9471 37.1426C19.9445 37.1418 19.9439 37.1415 19.9459 37.1422ZM22.0541 37.1422C22.0561 37.1415 22.0555 37.1418 22.0529 37.1426L22.0541 37.1422Z" stroke="#192632" stroke-width="0.5"/>
<defs>
<filter id="filter0_iii_3322_4364" x="0.5" y="0.5" width="41" height="41" filterUnits="userSpaceOnUse" color-interpolation-filters="sRGB">
<feFlood flood-opacity="0" result="BackgroundImageFix"/>
<feBlend mode="normal" in="SourceGraphic" in2="BackgroundImageFix" result="shape"/>
<feColorMatrix in="SourceAlpha" type="matrix" values="0 0 0 0 0 0 0 0 0 0 0 0 0 0 0 0 0 0 127 0" result="hardAlpha"/>
<feOffset dy="-2"/>
<feComposite in2="hardAlpha" operator="arithmetic" k2="-1" k3="1"/>
<feColorMatrix type="matrix" values="0 0 0 0 0.94902 0 0 0 0 0.423529 0 0 0 0 0 0 0 0 1 0"/>
<feBlend mode="normal" in2="shape" result="effect1_innerShadow_3322_4364"/>
<feColorMatrix in="SourceAlpha" type="matrix" values="0 0 0 0 0 0 0 0 0 0 0 0 0 0 0 0 0 0 127 0" result="hardAlpha"/>
<feOffset dx="0.5" dy="1"/>
<feComposite in2="hardAlpha" operator="arithmetic" k2="-1" k3="1"/>
<feColorMatrix type="matrix" values="0 0 0 0 0.94902 0 0 0 0 0.423529 0 0 0 0 0 0 0 0 1 0"/>
<feBlend mode="normal" in2="effect1_innerShadow_3322_4364" result="effect2_innerShadow_3322_4364"/>
<feColorMatrix in="SourceAlpha" type="matrix" values="0 0 0 0 0 0 0 0 0 0 0 0 0 0 0 0 0 0 127 0" result="hardAlpha"/>
<feOffset dx="-0.5" dy="1"/>
<feComposite in2="hardAlpha" operator="arithmetic" k2="-1" k3="1"/>
<feColorMatrix type="matrix" values="0 0 0 0 0.94902 0 0 0 0 0.423529 0 0 0 0 0 0 0 0 1 0"/>
<feBlend mode="normal" in2="effect2_innerShadow_3322_4364" result="effect3_innerShadow_3322_4364"/>
</filter>
<filter id="filter1_i_3322_4364" x="5" y="5" width="32" height="33" filterUnits="userSpaceOnUse" color-interpolation-filters="sRGB">
<feFlood flood-opacity="0" result="BackgroundImageFix"/>
<feBlend mode="normal" in="SourceGraphic" in2="BackgroundImageFix" result="shape"/>
<feColorMatrix in="SourceAlpha" type="matrix" values="0 0 0 0 0 0 0 0 0 0 0 0 0 0 0 0 0 0 127 0" result="hardAlpha"/>
<feOffset dy="1"/>
<feGaussianBlur stdDeviation="4"/>
<feComposite in2="hardAlpha" operator="arithmetic" k2="-1" k3="1"/>
<feColorMatrix type="matrix" values="0 0 0 0 0 0 0 0 0 0 0 0 0 0 0 0 0 0 0.6 0"/>
<feBlend mode="normal" in2="shape" result="effect1_innerShadow_3322_4364"/>
</filter>
</defs>
</svg>
