<svg width="24" height="24" viewBox="0 0 24 24" fill="none" xmlns="http://www.w3.org/2000/svg">
<path d="M18.5944 11.7009C18.8198 11.5054 18.9609 11.231 18.9886 10.9346C19.0038 10.8261 19.0038 10.716 18.9886 10.6075C18.9886 10.6075 18.9886 10.5327 18.9886 10.486C18.9999 10.3385 18.9807 10.1903 18.9323 10.0504C18.8839 9.9106 18.8072 9.7821 18.7071 9.6729C18.6146 9.5601 18.4995 9.4678 18.3692 9.4019C18.2401 9.3286 18.0953 9.287 17.9469 9.2804L14.4555 9.0187C14.4279 9.0267 14.3986 9.0267 14.3711 9.0187C14.3527 9.0091 14.3366 8.9959 14.3237 8.9798C14.3108 8.9637 14.3013 8.9451 14.296 8.9252L12.9633 5.69159C12.9087 5.55929 12.829 5.4387 12.7286 5.33645C12.6245 5.23149 12.4999 5.14881 12.3626 5.09346C12.2297 5.03399 12.086 5.00219 11.9403 5C11.7198 5.00006 11.5042 5.06509 11.3208 5.18692C11.1345 5.30904 10.9903 5.48521 10.9079 5.69159L9.6033 8.9252C9.593 8.9555 9.5733 8.9817 9.547 9C9.5321 9.0062 9.5162 9.0093 9.5001 9.0093C9.484 9.0093 9.468 9.0062 9.4531 9L5.98057 9.2523C5.76585 9.2782 5.56316 9.3652 5.39673 9.5027C5.23029 9.6403 5.10716 9.8227 5.04204 10.028C4.98599 10.2203 4.98599 10.4245 5.04204 10.6168C5.02824 10.7192 5.02824 10.8229 5.04204 10.9252C5.06972 11.2216 5.21087 11.496 5.43622 11.6916L6.57185 12.6262C7.0989 13.065 7.7619 13.3092 8.4489 13.3178H8.9557L9.8286 13.1682L9.2561 13.4299C8.8927 13.6004 8.5721 13.8495 8.3175 14.1589C8.0134 14.4764 7.7884 14.8605 7.6605 15.2804L7.2476 17.0748C7.2427 17.1526 7.2427 17.2306 7.2476 17.3084L7.1913 17.5421C7.1261 17.835 7.173 18.1415 7.3227 18.4019C7.4231 18.561 7.5618 18.6927 7.7262 18.785C7.8882 18.8809 8.0728 18.9325 8.2612 18.9346C8.4703 18.9352 8.6753 18.8769 8.8525 18.7664L11.8839 16.972H12.0716L15.0562 18.8411C15.2326 18.9445 15.4334 18.9993 15.6381 19H15.9009C16.0448 18.9667 16.1804 18.9049 16.2998 18.8182C16.4191 18.7314 16.5197 18.6216 16.5954 18.4953C16.6733 18.3712 16.7258 18.2331 16.7499 18.0887C16.7741 17.9444 16.7694 17.7967 16.7362 17.6542V17.5701C16.7654 17.4377 16.7654 17.3006 16.7362 17.1682L15.929 13.972L18.5944 11.7009Z" fill="black"/>
<path fill-rule="evenodd" clip-rule="evenodd" d="M11.5938 15.9809L8.66557 17.7847C8.59207 17.8333 8.50877 17.8652 8.42157 17.8781C8.33177 17.8968 8.23907 17.8968 8.14937 17.8781C8.06317 17.8602 7.98267 17.8217 7.91477 17.766C7.84067 17.7125 7.77707 17.646 7.72697 17.5697C7.68097 17.496 7.65207 17.413 7.64257 17.3267C7.62377 17.2405 7.62377 17.1513 7.64257 17.065L8.08367 15.28C8.16777 14.9561 8.32507 14.6556 8.54357 14.4015C8.76077 14.1487 9.02947 13.9448 9.33187 13.8033L12.5605 12.2519C12.5992 12.2379 12.6321 12.2117 12.6543 12.1772C12.6814 12.15 12.7036 12.1184 12.72 12.0837C12.7245 12.0433 12.7245 12.0026 12.72 11.9622C12.7241 11.9249 12.7241 11.8874 12.72 11.8501C12.6918 11.791 12.6459 11.742 12.5886 11.7099C12.5243 11.6909 12.4559 11.6909 12.3916 11.7099L8.80637 12.3361C8.44547 12.3909 8.07677 12.3654 7.72697 12.2613C7.38317 12.158 7.06387 11.9863 6.78848 11.7566L5.65286 10.822C5.56642 10.7695 5.49525 10.6954 5.44638 10.6071C5.40331 10.5327 5.37764 10.4497 5.3713 10.3641C5.35279 10.2778 5.35279 10.1887 5.3713 10.1024C5.3968 10.0204 5.43825 9.94415 5.49331 9.87805C5.55135 9.81005 5.62131 9.75305 5.69979 9.70985C5.78728 9.68015 5.87967 9.66745 5.97196 9.67245L9.43517 9.39205C9.55647 9.38135 9.67287 9.33955 9.77297 9.27055C9.87017 9.19935 9.94497 9.10215 9.98887 8.99025L11.331 5.77526C11.372 5.69773 11.4224 5.62554 11.4812 5.5603C11.5443 5.5057 11.6136 5.45866 11.6877 5.42012C11.7716 5.40683 11.8571 5.40683 11.9411 5.42012C12.0257 5.41967 12.1092 5.43887 12.1851 5.47619C12.2697 5.48824 12.3501 5.52029 12.4197 5.56965C12.4772 5.62848 12.5219 5.69847 12.5511 5.77526L13.8744 8.99025C13.9218 9.10275 13.9998 9.19985 14.0997 9.27055C14.1963 9.33955 14.3097 9.38145 14.4282 9.39205L17.9101 9.67245C18.0399 9.68005 18.1644 9.72635 18.2673 9.80535C18.3703 9.88425 18.4471 9.99235 18.4876 10.1154C18.5281 10.2384 18.5305 10.3706 18.4944 10.495C18.4584 10.6194 18.3856 10.7301 18.2855 10.8127L15.6201 13.065C15.5303 13.1412 15.4651 13.2419 15.4324 13.3547C15.4 13.4709 15.4 13.5937 15.4324 13.7099L16.2489 17.0931C16.2723 17.1747 16.2777 17.2604 16.2648 17.3442C16.2518 17.4281 16.2208 17.5082 16.1738 17.579C16.1309 17.6593 16.0712 17.7294 15.9987 17.7846C15.9262 17.8399 15.8427 17.879 15.7537 17.8994C15.6648 17.9198 15.5725 17.9209 15.483 17.9027C15.3936 17.8845 15.3091 17.8475 15.2353 17.794L12.2695 15.9809C12.1698 15.9137 12.0521 15.8779 11.9317 15.8781C11.8117 15.8805 11.6947 15.9161 11.5938 15.9809Z" fill="white"/>
</svg>
