<svg width="17" height="18" viewBox="0 0 17 18" fill="none" xmlns="http://www.w3.org/2000/svg">
<path fill-rule="evenodd" clip-rule="evenodd" d="M8.63733 0.857144H13.4628C13.9109 0.857128 14.2973 0.857115 14.6157 0.883348C14.9517 0.91104 15.2858 0.972179 15.6074 1.13741C16.0868 1.3837 16.4774 1.77665 16.7221 2.26098C16.8859 2.5853 16.9466 2.92235 16.974 3.26122C17 3.58227 17 3.97206 17 4.4239V9.29003C17 9.74187 17 10.1317 16.974 10.4527C16.9466 10.7916 16.8859 11.1286 16.7221 11.453C16.4775 11.937 16.0868 12.3306 15.6072 12.5771C15.2858 12.7422 14.9519 12.8033 14.6162 12.831C14.2983 12.8572 13.9124 12.8572 13.4652 12.8571H11.8999V14.4357C11.8999 14.8866 11.8999 15.2757 11.8739 15.5964C11.8465 15.9348 11.7859 16.2716 11.6221 16.5956C11.3778 17.0792 10.9876 17.4732 10.5075 17.7199C10.1861 17.885 9.85226 17.9461 9.51663 17.9738C9.19871 18 8.81282 18 8.36567 18H3.53459C3.08742 18 2.7014 18 2.38334 17.9738C2.04768 17.9462 1.71358 17.8851 1.39212 17.7199C0.911837 17.4731 0.522164 17.0793 0.277932 16.5959C0.114076 16.2716 0.0534469 15.9347 0.0259865 15.5958C-2.76401e-05 15.2748 -1.4468e-05 14.885 7.31069e-07 14.4332V9.56715C-1.4468e-05 9.11529 -2.75387e-05 8.72541 0.0259836 8.40427C0.0534321 8.06539 0.114033 7.72821 0.277932 7.40383C0.522406 6.91999 0.912314 6.5268 1.39212 6.28027C1.71379 6.11499 2.04815 6.05388 2.38421 6.0262C2.70267 5.99997 3.08929 5.99998 3.53738 6L5.09995 6L5.09995 4.42429C5.09993 3.97243 5.09992 3.58256 5.12593 3.26142C5.15338 2.92253 5.21398 2.58535 5.37788 2.26098C5.62235 1.77713 6.01226 1.38394 6.49207 1.13741C6.81374 0.972136 7.1481 0.911024 7.48416 0.883345C7.80262 0.857115 8.18924 0.857128 8.63733 0.857144ZM6.79993 6L8.36286 6C8.81091 5.99998 9.1974 5.99997 9.51573 6.0262C9.85176 6.0539 10.1859 6.11504 10.5075 6.28027C10.9868 6.52655 11.3774 6.9195 11.6221 7.40383C11.7859 7.728 11.8465 8.06491 11.8739 8.40341C11.8999 8.72414 11.8999 9.11342 11.8999 9.56436L11.8999 11.1429H13.4325C13.9216 11.1429 14.2374 11.1422 14.4777 11.1224C14.7081 11.1034 14.7935 11.0712 14.8354 11.0496C14.9955 10.9674 15.126 10.8358 15.2074 10.6747C15.2288 10.6323 15.2608 10.546 15.2797 10.3131C15.2994 10.0703 15.3 9.75117 15.3 9.25698V4.45695C15.3 3.96277 15.2994 3.64367 15.2797 3.40081C15.2608 3.16796 15.2288 3.08163 15.2074 3.03925C15.1261 2.87845 14.9961 2.74728 14.8357 2.66485C14.7936 2.64324 14.708 2.61096 14.4772 2.59194C14.2365 2.5721 13.9201 2.57143 13.43 2.57143H8.67007C8.18002 2.57143 7.86348 2.5721 7.62255 2.59194C7.39148 2.61097 7.30582 2.64328 7.26384 2.66485C7.10391 2.74703 6.97406 2.87797 6.89257 3.03925C6.87118 3.08158 6.83914 3.16796 6.82027 3.40097C6.80059 3.64393 6.79993 3.96313 6.79993 4.45731V6ZM2.5226 7.7348C2.29153 7.75383 2.20587 7.78614 2.1639 7.80771C2.00396 7.88989 1.87412 8.02082 1.79263 8.1821C1.77124 8.22443 1.7392 8.31081 1.72032 8.54383C1.70064 8.78679 1.69998 9.10599 1.69998 9.60017V14.4002C1.69998 14.8944 1.70064 15.2134 1.72032 15.4562C1.73918 15.6889 1.7712 15.7752 1.79263 15.8176C1.87436 15.9794 2.00444 16.1105 2.1639 16.1925C2.20573 16.214 2.29119 16.2462 2.5218 16.2652C2.7623 16.285 3.07821 16.2857 3.56733 16.2857H8.33293C8.82207 16.2857 9.13779 16.285 9.37809 16.2652C9.60841 16.2462 9.69378 16.214 9.7357 16.1925C9.89537 16.1104 10.0258 15.9789 10.1074 15.8174C10.1288 15.7751 10.1607 15.689 10.1796 15.4567C10.1992 15.2143 10.1999 14.8959 10.1999 14.4027L10.1999 9.59738C10.1999 9.10413 10.1992 8.78556 10.1796 8.54303C10.1607 8.31047 10.1287 8.22429 10.1074 8.1821C10.0262 8.02131 9.89612 7.89013 9.73571 7.80771C9.69364 7.7861 9.60807 7.75381 9.37727 7.73479C9.13651 7.71495 8.82015 7.71429 8.33008 7.71429H3.57013C3.08007 7.71429 2.76354 7.71495 2.5226 7.7348Z" fill="black"/>
<path fill-rule="evenodd" clip-rule="evenodd" d="M8.63733 7.37221e-07H13.4628C13.9109 -1.45897e-05 14.2973 -2.78726e-05 14.6157 0.0262052C14.9517 0.0538967 15.2858 0.115037 15.6074 0.28027C16.0868 0.526555 16.4774 0.919507 16.7221 1.40384C16.8859 1.72816 16.9466 2.06521 16.974 2.40407C17 2.72513 17 3.11492 17 3.56675V8.43289C17 8.88472 17 9.27452 16.974 9.59557C16.9466 9.93444 16.8859 10.2715 16.7221 10.5958C16.4775 11.0798 16.0868 11.4735 15.6072 11.7199C15.2858 11.885 14.9519 11.9461 14.6162 11.9738C14.2983 12 13.9124 12 13.4652 12H11.8999V13.5785C11.8999 14.0294 11.8999 14.4186 11.8739 14.7392C11.8465 15.0777 11.7859 15.4144 11.6221 15.7385C11.3778 16.2221 10.9876 16.6161 10.5075 16.8628C10.1861 17.0279 9.85226 17.089 9.51663 17.1167C9.19871 17.1429 8.81282 17.1429 8.36567 17.1429H3.53459C3.08742 17.1429 2.7014 17.1429 2.38334 17.1167C2.04768 17.089 1.71358 17.0279 1.39212 16.8628C0.911837 16.616 0.522164 16.2221 0.277932 15.7388C0.114076 15.4145 0.0534469 15.0775 0.0259865 14.7387C-2.76401e-05 14.4176 -1.4468e-05 14.0279 7.31069e-07 13.5761V8.71001C-1.4468e-05 8.25815 -2.75387e-05 7.86827 0.0259836 7.54713C0.0534321 7.20824 0.114033 6.87107 0.277932 6.54669C0.522406 6.06285 0.912314 5.66966 1.39212 5.42313C1.71379 5.25785 2.04815 5.19674 2.38421 5.16906C2.70267 5.14283 3.08929 5.14284 3.53738 5.14286L5.09995 5.14286L5.09995 3.56715C5.09993 3.11529 5.09992 2.72541 5.12593 2.40427C5.15338 2.06539 5.21398 1.72821 5.37788 1.40384C5.62235 0.91999 6.01226 0.526802 6.49207 0.28027C6.81374 0.114993 7.1481 0.0538817 7.48416 0.0262022C7.80262 -2.77704e-05 8.18924 -1.45897e-05 8.63733 7.37221e-07ZM6.79993 5.14286L8.36286 5.14286C8.81091 5.14284 9.1974 5.14283 9.51573 5.16906C9.85176 5.19675 10.1859 5.25789 10.5075 5.42313C10.9868 5.66941 11.3774 6.06236 11.6221 6.54669C11.7859 6.87086 11.8465 7.20777 11.8739 7.54626C11.8999 7.867 11.8999 8.25628 11.8999 8.70722L11.8999 10.2857H13.4325C13.9216 10.2857 14.2374 10.285 14.4777 10.2652C14.7081 10.2462 14.7935 10.214 14.8354 10.1925C14.9955 10.1102 15.126 9.97864 15.2074 9.81754C15.2288 9.77516 15.2608 9.68883 15.2797 9.45597C15.2994 9.21311 15.3 8.89402 15.3 8.39983V3.59981C15.3 3.10562 15.2994 2.78653 15.2797 2.54367C15.2608 2.31082 15.2288 2.22449 15.2074 2.1821C15.1261 2.02131 14.9961 1.89013 14.8357 1.80771C14.7936 1.7861 14.708 1.75382 14.4772 1.7348C14.2365 1.71495 13.9201 1.71429 13.43 1.71429H8.67007C8.18002 1.71429 7.86348 1.71495 7.62255 1.7348C7.39148 1.75383 7.30582 1.78614 7.26384 1.80771C7.10391 1.88989 6.97406 2.02082 6.89257 2.1821C6.87118 2.22443 6.83914 2.31081 6.82027 2.54383C6.80059 2.78679 6.79993 3.10599 6.79993 3.60017V5.14286ZM2.5226 6.87765C2.29153 6.89669 2.20587 6.929 2.1639 6.95057C2.00396 7.03274 1.87412 7.16368 1.79263 7.32496C1.77124 7.36729 1.7392 7.45367 1.72032 7.68668C1.70064 7.92965 1.69998 8.24885 1.69998 8.74303V13.543C1.69998 14.0372 1.70064 14.3562 1.72032 14.599C1.73918 14.8318 1.7712 14.9181 1.79263 14.9605C1.87436 15.1222 2.00444 15.2534 2.1639 15.3353C2.20573 15.3568 2.29119 15.3891 2.5218 15.4081C2.7623 15.4279 3.07821 15.4286 3.56733 15.4286H8.33293C8.82207 15.4286 9.13779 15.4279 9.37809 15.4081C9.60841 15.3891 9.69378 15.3569 9.7357 15.3353C9.89537 15.2533 10.0258 15.1218 10.1074 14.9602C10.1288 14.918 10.1607 14.8319 10.1796 14.5995C10.1992 14.3572 10.1999 14.0388 10.1999 13.5455L10.1999 8.74024C10.1999 8.24699 10.1992 7.92841 10.1796 7.68589C10.1607 7.45332 10.1287 7.36715 10.1074 7.32496C10.0262 7.16416 9.89612 7.03299 9.73571 6.95057C9.69364 6.92895 9.60807 6.89667 9.37727 6.87765C9.13651 6.85781 8.82015 6.85714 8.33008 6.85714H3.57013C3.08007 6.85714 2.76354 6.85781 2.5226 6.87765Z" fill="white"/>
</svg>
