<svg width="20" height="20" viewBox="0 0 20 20" fill="none" xmlns="http://www.w3.org/2000/svg">
<path d="M10 0C15.5225 0 20 4.4775 20 10C20 15.5225 15.5225 20 10 20C4.4775 20 0 15.5225 0 10C0 4.4775 4.4775 0 10 0ZM10 1.66667C5.3975 1.66667 1.66667 5.3975 1.66667 10C1.66667 14.6025 5.3975 18.3333 10 18.3333C14.6025 18.3333 18.3333 14.6025 18.3333 10C18.3333 5.3975 14.6025 1.66667 10 1.66667ZM10.0617 8.33333C10.2592 8.33333 10.3833 8.36417 10.4925 8.4225C10.6008 8.48083 10.6858 8.56583 10.7442 8.67417C10.8025 8.7825 10.8333 8.9075 10.8333 9.105V14.2283C10.8333 14.4258 10.8025 14.55 10.7442 14.6592C10.6874 14.7664 10.5997 14.8541 10.4925 14.9108C10.3842 14.9692 10.2592 15 10.0617 15H9.93833C9.74083 15 9.61667 14.9692 9.5075 14.9108C9.40028 14.8541 9.31259 14.7664 9.25583 14.6592C9.1975 14.5508 9.16667 14.4258 9.16667 14.2283V9.105C9.16667 8.9075 9.1975 8.78333 9.25583 8.67417C9.31259 8.56694 9.40028 8.47926 9.5075 8.4225C9.61583 8.36417 9.74083 8.33333 9.93833 8.33333H10.0617ZM10 4.66667C10.1532 4.66667 10.3049 4.69684 10.4465 4.75547C10.588 4.8141 10.7166 4.90004 10.825 5.00838C10.9333 5.11671 11.0192 5.24532 11.0779 5.38687C11.1365 5.52842 11.1667 5.68012 11.1667 5.83333C11.1667 5.98654 11.1365 6.13825 11.0779 6.2798C11.0192 6.42134 10.9333 6.54996 10.825 6.65829C10.7166 6.76663 10.588 6.85256 10.4465 6.91119C10.3049 6.96982 10.1532 7 10 7C9.69058 7 9.39383 6.87708 9.17504 6.65829C8.95625 6.4395 8.83333 6.14275 8.83333 5.83333C8.83333 5.52391 8.95625 5.22717 9.17504 5.00838C9.39383 4.78958 9.69058 4.66667 10 4.66667Z" fill="#EDFAFF"/>
</svg>
