<svg width="32" height="32" viewBox="0 0 32 32" fill="none" xmlns="http://www.w3.org/2000/svg">
<g filter="url(#filter0_d_4148_4050)">
<circle cx="16.0007" cy="15.988" r="14.7692" fill="#7E1712"/>
</g>
<circle cx="15.9994" cy="15.9994" r="13.5385" fill="#C70102"/>
<circle cx="15.9994" cy="15.9994" r="13.5385" fill="url(#paint0_linear_4148_4050)"/>
<circle cx="16.0005" cy="16.0024" r="9.84615" fill="#F3282B"/>
<circle cx="16.0005" cy="16.0024" r="9.53846" stroke="white" stroke-opacity="0.3" stroke-width="0.615385"/>
<g filter="url(#filter1_d_4148_4050)">
<mask id="path-5-outside-1_4148_4050" maskUnits="userSpaceOnUse" x="10.0778" y="10.0742" width="12" height="12" fill="black">
<rect fill="white" x="10.0778" y="10.0742" width="12" height="12"/>
<path fill-rule="evenodd" clip-rule="evenodd" d="M11.4383 11.4347C11.9189 10.9541 12.6982 10.9541 13.1789 11.4347L16.0009 14.2567L18.8229 11.4347C19.3036 10.9541 20.0828 10.9541 20.5635 11.4347C21.0441 11.9153 21.0441 12.6946 20.5635 13.1753L17.7415 15.9973L20.5634 18.8193C21.0441 19.2999 21.0441 20.0792 20.5634 20.5598C20.0828 21.0405 19.3035 21.0405 18.8229 20.5598L16.0009 17.7379L13.1789 20.5599C12.6982 21.0405 11.9189 21.0405 11.4383 20.5599C10.9577 20.0792 10.9577 19.3 11.4383 18.8193L14.2603 15.9973L11.4383 13.1753C10.9577 12.6946 10.9577 11.9153 11.4383 11.4347Z"/>
</mask>
<path fill-rule="evenodd" clip-rule="evenodd" d="M11.4383 11.4347C11.9189 10.9541 12.6982 10.9541 13.1789 11.4347L16.0009 14.2567L18.8229 11.4347C19.3036 10.9541 20.0828 10.9541 20.5635 11.4347C21.0441 11.9153 21.0441 12.6946 20.5635 13.1753L17.7415 15.9973L20.5634 18.8193C21.0441 19.2999 21.0441 20.0792 20.5634 20.5598C20.0828 21.0405 19.3035 21.0405 18.8229 20.5598L16.0009 17.7379L13.1789 20.5599C12.6982 21.0405 11.9189 21.0405 11.4383 20.5599C10.9577 20.0792 10.9577 19.3 11.4383 18.8193L14.2603 15.9973L11.4383 13.1753C10.9577 12.6946 10.9577 11.9153 11.4383 11.4347Z" fill="#FDF2BC"/>
<path d="M13.1789 11.4347L13.614 10.9996V10.9996L13.1789 11.4347ZM11.4383 11.4347L11.0032 10.9996L11.0032 10.9996L11.4383 11.4347ZM16.0009 14.2567L15.5658 14.6919C15.6812 14.8073 15.8377 14.8721 16.0009 14.8721C16.1641 14.8721 16.3206 14.8073 16.436 14.6919L16.0009 14.2567ZM18.8229 11.4347L19.2581 11.8698V11.8698L18.8229 11.4347ZM20.5635 11.4347L20.9986 10.9996V10.9996L20.5635 11.4347ZM20.5635 13.1753L20.9986 13.6104L20.5635 13.1753ZM17.7415 15.9973L17.3063 15.5622C17.1909 15.6776 17.1261 15.8341 17.1261 15.9973C17.1261 16.1605 17.1909 16.317 17.3063 16.4324L17.7415 15.9973ZM20.5634 18.8193L20.9986 18.3841L20.5634 18.8193ZM20.5634 20.5598L20.9986 20.995L20.9986 20.995L20.5634 20.5598ZM18.8229 20.5598L18.3877 20.995L18.8229 20.5598ZM16.0009 17.7379L16.436 17.3027C16.3206 17.1873 16.1641 17.1225 16.0009 17.1225C15.8377 17.1225 15.6812 17.1873 15.5658 17.3027L16.0009 17.7379ZM13.1789 20.5599L13.614 20.995L13.1789 20.5599ZM11.4383 20.5599L11.0032 20.995H11.0032L11.4383 20.5599ZM11.4383 18.8193L11.8734 19.2545H11.8734L11.4383 18.8193ZM14.2603 15.9973L14.6955 16.4324C14.8109 16.317 14.8757 16.1605 14.8757 15.9973C14.8757 15.8341 14.8109 15.6776 14.6955 15.5622L14.2603 15.9973ZM11.4383 13.1753L11.0032 13.6104H11.0032L11.4383 13.1753ZM13.614 10.9996C12.893 10.2786 11.7241 10.2786 11.0032 10.9996L11.8734 11.8698C12.1138 11.6295 12.5034 11.6295 12.7437 11.8698L13.614 10.9996ZM16.436 13.8216L13.614 10.9996L12.7437 11.8698L15.5658 14.6919L16.436 13.8216ZM18.3878 10.9996L15.5658 13.8216L16.436 14.6919L19.2581 11.8698L18.3878 10.9996ZM20.9986 10.9996C20.2777 10.2786 19.1087 10.2786 18.3878 10.9996L19.2581 11.8698C19.4984 11.6295 19.888 11.6295 20.1283 11.8698L20.9986 10.9996ZM20.9986 13.6104C21.7196 12.8894 21.7196 11.7205 20.9986 10.9996L20.1283 11.8698C20.3687 12.1102 20.3687 12.4998 20.1283 12.7401L20.9986 13.6104ZM18.1766 16.4324L20.9986 13.6104L20.1283 12.7401L17.3063 15.5622L18.1766 16.4324ZM20.9986 18.3841L18.1766 15.5622L17.3063 16.4324L20.1283 19.2544L20.9986 18.3841ZM20.9986 20.995C21.7196 20.274 21.7196 19.1051 20.9986 18.3841L20.1283 19.2544C20.3686 19.4947 20.3686 19.8844 20.1283 20.1247L20.9986 20.995ZM18.3877 20.995C19.1087 21.716 20.2776 21.716 20.9986 20.995L20.1283 20.1247C19.888 20.365 19.4983 20.365 19.258 20.1247L18.3877 20.995ZM15.5658 18.173L18.3877 20.995L19.258 20.1247L16.436 17.3027L15.5658 18.173ZM13.614 20.995L16.436 18.173L15.5658 17.3027L12.7437 20.1247L13.614 20.995ZM11.0032 20.995C11.7241 21.716 12.893 21.716 13.614 20.995L12.7437 20.1247C12.5034 20.3651 12.1138 20.3651 11.8734 20.1247L11.0032 20.995ZM11.0032 18.3842C10.2822 19.1051 10.2822 20.2741 11.0032 20.995L11.8734 20.1247C11.6331 19.8844 11.6331 19.4948 11.8734 19.2545L11.0032 18.3842ZM13.8252 15.5622L11.0032 18.3842L11.8734 19.2545L14.6955 16.4324L13.8252 15.5622ZM11.0032 13.6104L13.8252 16.4324L14.6955 15.5622L11.8734 12.7401L11.0032 13.6104ZM11.0032 10.9996C10.2822 11.7205 10.2822 12.8894 11.0032 13.6104L11.8734 12.7401C11.6331 12.4998 11.6331 12.1102 11.8734 11.8698L11.0032 10.9996Z" fill="#7E1712" mask="url(#path-5-outside-1_4148_4050)"/>
</g>
<defs>
<filter id="filter0_d_4148_4050" x="1.23145" y="1.21875" width="29.5385" height="30.7698" filterUnits="userSpaceOnUse" color-interpolation-filters="sRGB">
<feFlood flood-opacity="0" result="BackgroundImageFix"/>
<feColorMatrix in="SourceAlpha" type="matrix" values="0 0 0 0 0 0 0 0 0 0 0 0 0 0 0 0 0 0 127 0" result="hardAlpha"/>
<feOffset dy="1.23077"/>
<feComposite in2="hardAlpha" operator="out"/>
<feColorMatrix type="matrix" values="0 0 0 0 0 0 0 0 0 0 0 0 0 0 0 0 0 0 0.5 0"/>
<feBlend mode="normal" in2="BackgroundImageFix" result="effect1_dropShadow_4148_4050"/>
<feBlend mode="normal" in="SourceGraphic" in2="effect1_dropShadow_4148_4050" result="shape"/>
</filter>
<filter id="filter1_d_4148_4050" x="10.4625" y="10.457" width="11.0769" height="11.6935" filterUnits="userSpaceOnUse" color-interpolation-filters="sRGB">
<feFlood flood-opacity="0" result="BackgroundImageFix"/>
<feColorMatrix in="SourceAlpha" type="matrix" values="0 0 0 0 0 0 0 0 0 0 0 0 0 0 0 0 0 0 127 0" result="hardAlpha"/>
<feOffset dy="0.615385"/>
<feComposite in2="hardAlpha" operator="out"/>
<feColorMatrix type="matrix" values="0 0 0 0 0 0 0 0 0 0 0 0 0 0 0 0 0 0 1 0"/>
<feBlend mode="normal" in2="BackgroundImageFix" result="effect1_dropShadow_4148_4050"/>
<feBlend mode="normal" in="SourceGraphic" in2="effect1_dropShadow_4148_4050" result="shape"/>
</filter>
<linearGradient id="paint0_linear_4148_4050" x1="2.46094" y1="15.9994" x2="29.5379" y2="15.9994" gradientUnits="userSpaceOnUse">
<stop stop-color="#C70102"/>
<stop offset="0.4" stop-color="#C70102"/>
<stop offset="0.5" stop-color="#F93235"/>
<stop offset="0.6" stop-color="#C70102"/>
<stop offset="1" stop-color="#C70102"/>
</linearGradient>
</defs>
</svg>
