<svg width="162" height="92" viewBox="0 0 162 92" fill="none" xmlns="http://www.w3.org/2000/svg">
<g clip-path="url(#clip0_9618_27156)">
<g filter="url(#filter0_d_9618_27156)">
<circle cx="127.001" cy="45.9946" r="31.8462" fill="#EB8E07"/>
</g>
<circle cx="127" cy="46.0009" r="29.1923" fill="url(#paint0_linear_9618_27156)"/>
<circle cx="127" cy="45.9979" r="23.8846" fill="url(#paint1_linear_9618_27156)"/>
<path d="M126.122 57.0365L119.01 61.6018C118.271 62.0765 117.296 61.8492 116.833 61.0924C116.606 60.7206 116.535 60.268 116.639 59.8415L117.795 55.0803C118.176 53.5154 119.195 52.1934 120.594 51.4505L127.235 47.9297C127.594 47.7395 127.735 47.2873 127.549 46.9203C127.404 46.6347 127.097 46.476 126.786 46.5255L119.39 47.7147C117.624 47.9991 115.824 47.472 114.47 46.2769L111.627 43.7673C110.967 43.1843 110.892 42.1621 111.461 41.4859C111.733 41.1629 112.119 40.9627 112.533 40.9292L120.958 40.2472C121.553 40.1978 122.073 39.8092 122.298 39.2425L125.528 31.0732C125.856 30.2445 126.776 29.8461 127.585 30.1812C127.982 30.3456 128.298 30.6695 128.457 31.077L131.67 39.2538C131.894 39.8218 132.41 40.211 133.006 40.2621L141.474 40.9687C142.344 41.0416 142.991 41.8218 142.919 42.7122C142.886 43.1319 142.695 43.5214 142.384 43.7997L135.859 49.6326C135.419 50.0254 135.227 50.6366 135.359 51.2187L137.342 59.9245C137.54 60.7954 137.012 61.6631 136.163 61.8669C135.752 61.9643 135.319 61.8898 134.963 61.6593L127.802 57.0388C127.289 56.7072 126.636 56.7061 126.122 57.0365Z" fill="url(#paint2_linear_9618_27156)"/>
<path opacity="0.8" d="M156.193 46.3703C156.189 47.1414 156.154 47.9059 156.091 48.6626C155.025 33.5069 142.522 19.9985 127.167 19.9006C111.811 19.802 99.14 33.1498 97.8835 48.2906C97.8302 47.5328 97.805 46.7679 97.8096 45.9967C97.9121 29.7787 111.064 16.7145 127.186 16.817C143.308 16.9201 156.296 30.1516 156.193 46.3703Z" fill="white"/>
<circle cx="127.001" cy="45.9946" r="32.5096" stroke="black" stroke-width="1.32692"/>
</g>
<g clip-path="url(#clip1_9618_27156)">
<g filter="url(#filter1_d_9618_27156)">
<circle cx="35.0009" cy="45.9946" r="31.8462" fill="#EB8E07"/>
</g>
<circle cx="34.9999" cy="46.0009" r="29.1923" fill="url(#paint3_linear_9618_27156)"/>
<circle cx="34.9998" cy="45.9979" r="23.8846" fill="url(#paint4_linear_9618_27156)"/>
<path d="M34.1219 57.0365L27.0101 61.6018C26.2711 62.0765 25.2961 61.8492 24.8326 61.0924C24.6055 60.7206 24.5348 60.268 24.6388 59.8415L25.7954 55.0803C26.1761 53.5154 27.1946 52.1934 28.5935 51.4505L35.2351 47.9297C35.5936 47.7395 35.7346 47.2873 35.5486 46.9203C35.4042 46.6347 35.0971 46.476 34.7858 46.5255L27.3896 47.7147C25.6238 47.9991 23.824 47.472 22.4698 46.2769L19.6267 43.7673C18.9667 43.1843 18.8921 42.1621 19.461 41.4859C19.7331 41.1629 20.1191 40.9627 20.5329 40.9292L28.9575 40.2472C29.5534 40.1978 30.0725 39.8092 30.2975 39.2425L33.5281 31.0732C33.8561 30.2445 34.7762 29.8461 35.585 30.1812C35.9822 30.3456 36.2976 30.6695 36.4575 31.077L39.6697 39.2538C39.8935 39.8218 40.4103 40.211 41.006 40.2621L49.474 40.9687C50.3436 41.0416 50.9905 41.8218 50.9194 42.7122C50.8857 43.1319 50.6947 43.5214 50.3844 43.7997L43.8586 49.6326C43.4188 50.0254 43.2272 50.6366 43.3593 51.2187L45.3417 59.9245C45.5397 60.7954 45.0116 61.6631 44.1633 61.8669C43.7524 61.9643 43.3192 61.8898 42.9625 61.6593L35.8024 57.0388C35.2886 56.7072 34.6361 56.7061 34.1219 57.0365Z" fill="url(#paint5_linear_9618_27156)"/>
<path opacity="0.8" d="M64.1931 46.3703C64.1887 47.1414 64.1538 47.9059 64.0907 48.6626C63.0255 33.5069 50.5224 19.9985 35.1671 19.9006C19.8108 19.802 7.14001 33.1498 5.88349 48.2906C5.83018 47.5328 5.805 46.7679 5.80962 45.9967C5.91207 29.7787 19.0644 16.7145 35.1864 16.817C51.3081 16.9201 64.2956 30.1516 64.1931 46.3703Z" fill="white"/>
<circle cx="35.0009" cy="45.9946" r="32.5096" stroke="black" stroke-width="1.32692"/>
</g>
<g filter="url(#filter2_d_9618_27156)">
<circle cx="81.0016" cy="45.9967" r="42.4615" fill="#EB8E07"/>
</g>
<circle cx="81.0007" cy="46.0012" r="38.9231" fill="url(#paint6_linear_9618_27156)"/>
<circle cx="81.0009" cy="46.0024" r="31.8462" fill="url(#paint7_linear_9618_27156)"/>
<path d="M79.8307 60.7193L70.3483 66.8064C69.3629 67.4393 68.063 67.1362 67.445 66.1271C67.1421 65.6314 67.0479 65.028 67.1866 64.4593L68.7286 58.111C69.2362 56.0245 70.5943 54.2617 72.4595 53.2713L81.3149 48.5769C81.7929 48.3232 81.9809 47.7203 81.733 47.231C81.5404 46.8501 81.1309 46.6386 80.7159 46.7046L70.8543 48.2902C68.4998 48.6694 66.1001 47.9666 64.2946 46.373L60.5037 43.027C59.6237 42.2497 59.5243 40.8868 60.2828 39.9852C60.6456 39.5545 61.1602 39.2875 61.712 39.2429L72.9448 38.3335C73.7394 38.2676 74.4315 37.7495 74.7315 36.9939L79.0389 26.1015C79.4763 24.9965 80.703 24.4654 81.7814 24.9122C82.3111 25.1314 82.7316 25.5632 82.9448 26.1066L87.2277 37.009C87.5262 37.7663 88.2151 38.2852 89.0095 38.3533L100.3 39.2955C101.46 39.3928 102.322 40.433 102.227 41.6202C102.182 42.1797 101.928 42.6991 101.514 43.0702L92.8129 50.8474C92.2265 51.3712 91.971 52.186 92.1472 52.9621L94.7904 64.5699C95.0545 65.7311 94.3502 66.888 93.2191 67.1598C92.6713 67.2896 92.0937 67.1903 91.6182 66.883L82.0714 60.7223C81.3863 60.2801 80.5162 60.2787 79.8307 60.7193Z" fill="url(#paint8_linear_9618_27156)"/>
<path opacity="0.8" d="M119.922 46.4872C119.916 47.5153 119.869 48.5347 119.785 49.5436C118.365 29.336 101.694 11.3249 81.2202 11.1943C60.7452 11.0629 43.8507 28.8598 42.1754 49.0477C42.1043 48.0373 42.0707 47.0174 42.0769 45.9891C42.2135 24.365 59.75 6.94617 81.2459 7.08283C102.742 7.22022 120.058 24.8622 119.922 46.4872Z" fill="white"/>
<circle cx="81.0016" cy="45.9967" r="43.3462" stroke="black" stroke-width="1.76923"/>
<defs>
<filter id="filter0_d_9618_27156" x="95.1548" y="14.1484" width="63.6924" height="66.3453" filterUnits="userSpaceOnUse" color-interpolation-filters="sRGB">
<feFlood flood-opacity="0" result="BackgroundImageFix"/>
<feColorMatrix in="SourceAlpha" type="matrix" values="0 0 0 0 0 0 0 0 0 0 0 0 0 0 0 0 0 0 127 0" result="hardAlpha"/>
<feOffset dy="2.65385"/>
<feComposite in2="hardAlpha" operator="out"/>
<feColorMatrix type="matrix" values="0 0 0 0 0 0 0 0 0 0 0 0 0 0 0 0 0 0 0.5 0"/>
<feBlend mode="normal" in2="BackgroundImageFix" result="effect1_dropShadow_9618_27156"/>
<feBlend mode="normal" in="SourceGraphic" in2="effect1_dropShadow_9618_27156" result="shape"/>
</filter>
<filter id="filter1_d_9618_27156" x="3.15479" y="14.1484" width="63.6924" height="66.3453" filterUnits="userSpaceOnUse" color-interpolation-filters="sRGB">
<feFlood flood-opacity="0" result="BackgroundImageFix"/>
<feColorMatrix in="SourceAlpha" type="matrix" values="0 0 0 0 0 0 0 0 0 0 0 0 0 0 0 0 0 0 127 0" result="hardAlpha"/>
<feOffset dy="2.65385"/>
<feComposite in2="hardAlpha" operator="out"/>
<feColorMatrix type="matrix" values="0 0 0 0 0 0 0 0 0 0 0 0 0 0 0 0 0 0 0.5 0"/>
<feBlend mode="normal" in2="BackgroundImageFix" result="effect1_dropShadow_9618_27156"/>
<feBlend mode="normal" in="SourceGraphic" in2="effect1_dropShadow_9618_27156" result="shape"/>
</filter>
<filter id="filter2_d_9618_27156" x="38.54" y="3.53516" width="84.9229" height="88.4603" filterUnits="userSpaceOnUse" color-interpolation-filters="sRGB">
<feFlood flood-opacity="0" result="BackgroundImageFix"/>
<feColorMatrix in="SourceAlpha" type="matrix" values="0 0 0 0 0 0 0 0 0 0 0 0 0 0 0 0 0 0 127 0" result="hardAlpha"/>
<feOffset dy="3.53846"/>
<feComposite in2="hardAlpha" operator="out"/>
<feColorMatrix type="matrix" values="0 0 0 0 0 0 0 0 0 0 0 0 0 0 0 0 0 0 0.5 0"/>
<feBlend mode="normal" in2="BackgroundImageFix" result="effect1_dropShadow_9618_27156"/>
<feBlend mode="normal" in="SourceGraphic" in2="effect1_dropShadow_9618_27156" result="shape"/>
</filter>
<linearGradient id="paint0_linear_9618_27156" x1="111.36" y1="21.3564" x2="142.64" y2="70.6454" gradientUnits="userSpaceOnUse">
<stop stop-color="#FFFC00"/>
<stop offset="0.5" stop-color="#FFF000"/>
<stop offset="1" stop-color="#FFE400"/>
</linearGradient>
<linearGradient id="paint1_linear_9618_27156" x1="114.204" y1="25.834" x2="139.796" y2="66.1616" gradientUnits="userSpaceOnUse">
<stop stop-color="#FFDE00"/>
<stop offset="0.5" stop-color="#FDEC50"/>
<stop offset="1" stop-color="#FBFA9F"/>
</linearGradient>
<linearGradient id="paint2_linear_9618_27156" x1="126.918" y1="30.0677" x2="127.146" y2="61.9751" gradientUnits="userSpaceOnUse">
<stop stop-color="#FBB03B"/>
<stop offset="0.5" stop-color="#FD9F1E"/>
<stop offset="1" stop-color="#FF8A00"/>
</linearGradient>
<linearGradient id="paint3_linear_9618_27156" x1="19.36" y1="21.3564" x2="50.6398" y2="70.6454" gradientUnits="userSpaceOnUse">
<stop stop-color="#FFFC00"/>
<stop offset="0.5" stop-color="#FFF000"/>
<stop offset="1" stop-color="#FFE400"/>
</linearGradient>
<linearGradient id="paint4_linear_9618_27156" x1="22.2036" y1="25.834" x2="47.7964" y2="66.1616" gradientUnits="userSpaceOnUse">
<stop stop-color="#FFDE00"/>
<stop offset="0.5" stop-color="#FDEC50"/>
<stop offset="1" stop-color="#FBFA9F"/>
</linearGradient>
<linearGradient id="paint5_linear_9618_27156" x1="34.9181" y1="30.0677" x2="35.1461" y2="61.9751" gradientUnits="userSpaceOnUse">
<stop stop-color="#FBB03B"/>
<stop offset="0.5" stop-color="#FD9F1E"/>
<stop offset="1" stop-color="#FF8A00"/>
</linearGradient>
<linearGradient id="paint6_linear_9618_27156" x1="60.1475" y1="13.1419" x2="101.854" y2="78.8606" gradientUnits="userSpaceOnUse">
<stop stop-color="#FFFC00"/>
<stop offset="0.5" stop-color="#FFF000"/>
<stop offset="1" stop-color="#FFE400"/>
</linearGradient>
<linearGradient id="paint7_linear_9618_27156" x1="63.9392" y1="19.1173" x2="98.0629" y2="72.8874" gradientUnits="userSpaceOnUse">
<stop stop-color="#FFDE00"/>
<stop offset="0.5" stop-color="#FDEC50"/>
<stop offset="1" stop-color="#FBFA9F"/>
</linearGradient>
<linearGradient id="paint8_linear_9618_27156" x1="80.8923" y1="24.7608" x2="81.1963" y2="67.304" gradientUnits="userSpaceOnUse">
<stop stop-color="#FBB03B"/>
<stop offset="0.5" stop-color="#FD9F1E"/>
<stop offset="1" stop-color="#FF8A00"/>
</linearGradient>
<clipPath id="clip0_9618_27156">
<rect width="69" height="69" fill="white" transform="translate(92.5 11.5)"/>
</clipPath>
<clipPath id="clip1_9618_27156">
<rect width="69" height="69" fill="white" transform="translate(0.5 11.5)"/>
</clipPath>
</defs>
</svg>
