<svg  viewBox="0 0 15 15" fill="none" xmlns="http://www.w3.org/2000/svg">
<path d="M5.33333 2.16536H3.83333C2.89991 2.16536 2.43285 2.16536 2.07633 2.34702C1.76273 2.50681 1.50795 2.76159 1.34816 3.0752C1.1665 3.43171 1.1665 3.89877 1.1665 4.83219V11.1655C1.1665 12.0989 1.1665 12.5654 1.34816 12.9219C1.50795 13.2355 1.76273 13.4908 2.07633 13.6506C2.43251 13.832 2.899 13.832 3.83059 13.832H10.1691C11.1007 13.832 11.5665 13.832 11.9227 13.6506C12.2363 13.4908 12.4919 13.2353 12.6517 12.9217C12.8332 12.5655 12.8332 12.0995 12.8332 11.1679V9.66536M13.6665 5.4987V1.33203M13.6665 1.33203H9.49984M13.6665 1.33203L7.83317 7.16536" stroke="#A8A8A8" stroke-width="1.66667" stroke-linecap="round" stroke-linejoin="round"/>
</svg>
