<svg viewBox="0 0 28 28" fill="none" xmlns="http://www.w3.org/2000/svg">
<circle cx="13.9997" cy="14.5837" r="13.4167" fill="black" fill-opacity="0.5"/>
<path fill-rule="evenodd" clip-rule="evenodd" d="M27.4163 13.9997C27.4163 21.4095 21.4095 27.4163 13.9997 27.4163C6.58985 27.4163 0.583008 21.4095 0.583008 13.9997C0.583008 6.58985 6.58985 0.583008 13.9997 0.583008C21.4095 0.583008 27.4163 6.58985 27.4163 13.9997ZM13.9997 26.8797C21.1131 26.8797 26.8797 21.1131 26.8797 13.9997C26.8797 6.88625 21.1131 1.11967 13.9997 1.11967C6.88625 1.11967 1.11967 6.88625 1.11967 13.9997C1.11967 21.1131 6.88625 26.8797 13.9997 26.8797Z" fill="black"/>
<g clip-path="url(#clip0_7732_10871)">
<circle cx="14.0003" cy="14.0003" r="12.8333" fill="#35AFF1"/>
<circle cx="13.9997" cy="13.9997" r="11.6667" fill="url(#paint0_linear_7732_10871)"/>
<circle cx="14.0003" cy="14.0003" r="9.33333" fill="url(#paint1_linear_7732_10871)"/>
<path d="M13.9969 22.1663C12.8817 22.1663 11.8306 21.9528 10.8434 21.5258C9.86162 21.0988 8.99453 20.509 8.24217 19.7564C7.48981 19.0038 6.90019 18.1364 6.47332 17.1543C6.04644 16.1668 5.83301 15.1153 5.83301 13.9997C5.83301 12.8841 6.04644 11.8352 6.47332 10.8531C6.90019 9.86563 7.48714 8.99559 8.23417 8.24298C8.98653 7.49036 9.85361 6.90055 10.8354 6.47353C11.8226 6.04652 12.8737 5.83301 13.9889 5.83301C15.1041 5.83301 16.1553 6.04652 17.1425 6.47353C18.1296 6.90055 18.9994 7.49036 19.7517 8.24298C20.5041 8.99559 21.0937 9.86563 21.5206 10.8531C21.9474 11.8352 22.1609 12.8841 22.1609 13.9997C22.1609 15.1153 21.9474 16.1668 21.5206 17.1543C21.0937 18.1364 20.5041 19.0038 19.7517 19.7564C18.9994 20.509 18.1296 21.0988 17.1425 21.5258C16.1607 21.9528 15.1121 22.1663 13.9969 22.1663ZM13.5807 17.3064H18.6152C18.9407 17.3064 19.1648 17.261 19.2875 17.1703C19.4156 17.0795 19.4796 16.9461 19.4796 16.7699C19.4796 16.423 19.3435 16.06 19.0714 15.681C18.7993 15.2967 18.4097 14.9711 17.9028 14.7043C17.4013 14.4374 16.8036 14.3039 16.11 14.3039C15.411 14.3039 14.808 14.4374 14.3011 14.7043C13.7942 14.9711 13.402 15.2967 13.1245 15.681C12.8524 16.06 12.7163 16.423 12.7163 16.7699C12.7163 16.9461 12.7804 17.0795 12.9084 17.1703C13.0418 17.261 13.2659 17.3064 13.5807 17.3064ZM16.11 13.5913C16.5422 13.5913 16.9157 13.4205 17.2305 13.0789C17.5453 12.732 17.7027 12.3076 17.7027 11.8059C17.7027 11.3095 17.5427 10.8985 17.2225 10.5729C16.9077 10.2419 16.5368 10.0765 16.11 10.0765C15.6778 10.0765 15.3016 10.2446 14.9814 10.5809C14.6613 10.9118 14.5012 11.3228 14.5012 11.8139C14.5012 12.3103 14.6613 12.732 14.9814 13.0789C15.3016 13.4205 15.6778 13.5913 16.11 13.5913ZM9.23465 17.3064H12.2841C12.1507 17.1035 12.108 16.85 12.1561 16.5458C12.2094 16.2362 12.3321 15.9266 12.5242 15.617C12.7163 15.3021 12.9564 15.0352 13.2446 14.8163C13.0205 14.6615 12.7617 14.5361 12.4682 14.44C12.1801 14.3386 11.8519 14.2879 11.4837 14.2879C10.8754 14.2879 10.3499 14.416 9.90697 14.6722C9.46943 14.9231 9.1306 15.238 8.89048 15.617C8.65037 15.9906 8.53031 16.3616 8.53031 16.7299C8.53031 16.9167 8.58367 17.0608 8.69039 17.1623C8.80244 17.2583 8.98386 17.3064 9.23465 17.3064ZM11.4837 13.6714C11.8572 13.6714 12.1827 13.522 12.4602 13.223C12.7377 12.9241 12.8764 12.5558 12.8764 12.1181C12.8764 11.6911 12.735 11.3362 12.4522 11.0533C12.1747 10.765 11.8519 10.6209 11.4837 10.6209C11.1102 10.6209 10.7821 10.7677 10.4993 11.0613C10.2165 11.3495 10.0751 11.7045 10.0751 12.1261C10.0751 12.5638 10.2138 12.9321 10.4913 13.231C10.7741 13.5246 11.1049 13.6714 11.4837 13.6714Z" fill="#166495"/>
<g filter="url(#filter0_f_7732_10871)">
<path d="M3.5 1.16699L5.52073 2.33366L-8.47927 26.5824L-10.5 25.4157L3.5 1.16699Z" fill="white" fill-opacity="0.7"/>
</g>
<path d="M25.6661 14.2426C25.6643 14.5533 25.6504 14.8614 25.6252 15.1663C25.1995 9.05892 20.2026 3.61533 14.0659 3.57588C7.92879 3.53616 2.86491 8.91501 2.36275 15.0165C2.34144 14.7111 2.33138 14.4028 2.33322 14.092C2.37417 7.55653 7.6305 2.29195 14.0736 2.33325C20.5166 2.37477 25.7071 7.70679 25.6661 14.2426Z" fill="white" fill-opacity="0.2"/>
</g>
<defs>
<filter id="filter0_f_7732_10871" x="-14" y="-2.33301" width="23.0205" height="32.415" filterUnits="userSpaceOnUse" color-interpolation-filters="sRGB">
<feFlood flood-opacity="0" result="BackgroundImageFix"/>
<feBlend mode="normal" in="SourceGraphic" in2="BackgroundImageFix" result="shape"/>
<feGaussianBlur stdDeviation="1.75" result="effect1_foregroundBlur_7732_10871"/>
</filter>
<linearGradient id="paint0_linear_7732_10871" x1="7.7492" y1="4.15054" x2="20.2501" y2="23.8488" gradientUnits="userSpaceOnUse">
<stop stop-color="#84D4FF"/>
<stop offset="0.5" stop-color="#61C7FF"/>
<stop offset="1" stop-color="#42BDFF"/>
</linearGradient>
<linearGradient id="paint1_linear_7732_10871" x1="8.99996" y1="6.12094" x2="19.0008" y2="21.8797" gradientUnits="userSpaceOnUse">
<stop stop-color="#35AFF1"/>
<stop offset="0.5" stop-color="#4DC0FF"/>
<stop offset="1" stop-color="#9EDDFF"/>
</linearGradient>
<clipPath id="clip0_7732_10871">
<rect x="1.16699" y="1.16699" width="25.6667" height="25.6667" rx="12.8333" fill="white"/>
</clipPath>
</defs>
</svg>
