<svg width="22" height="22" viewBox="0 0 22 22" fill="none" xmlns="http://www.w3.org/2000/svg">
<path d="M11 0C17.0748 0 22 4.92525 22 11C22 17.0748 17.0748 22 11 22C4.92525 22 0 17.0748 0 11C0 4.92525 4.92525 0 11 0ZM11 1.83333C5.93725 1.83333 1.83333 5.93725 1.83333 11C1.83333 16.0627 5.93725 20.1667 11 20.1667C16.0627 20.1667 20.1667 16.0627 20.1667 11C20.1667 5.93725 16.0627 1.83333 11 1.83333ZM11.0678 9.16667C11.2851 9.16667 11.4217 9.20058 11.5417 9.26475C11.6609 9.32892 11.7544 9.42242 11.8186 9.54158C11.8827 9.66075 11.9167 9.79825 11.9167 10.0155V15.6512C11.9167 15.8684 11.8827 16.005 11.8186 16.1251C11.7561 16.243 11.6597 16.3395 11.5417 16.4019C11.4226 16.4661 11.2851 16.5 11.0678 16.5H10.9322C10.7149 16.5 10.5783 16.4661 10.4583 16.4019C10.3403 16.3395 10.2439 16.243 10.1814 16.1251C10.1173 16.0059 10.0833 15.8684 10.0833 15.6512V10.0155C10.0833 9.79825 10.1173 9.66167 10.1814 9.54158C10.2439 9.42364 10.3403 9.32718 10.4583 9.26475C10.5774 9.20058 10.7149 9.16667 10.9322 9.16667H11.0678ZM11 5.13333C11.1685 5.13333 11.3354 5.16653 11.4911 5.23102C11.6468 5.29552 11.7883 5.39004 11.9075 5.50921C12.0266 5.62838 12.1212 5.76986 12.1856 5.92556C12.2501 6.08126 12.2833 6.24814 12.2833 6.41667C12.2833 6.5852 12.2501 6.75208 12.1856 6.90778C12.1212 7.06348 12.0266 7.20495 11.9075 7.32412C11.7883 7.44329 11.6468 7.53782 11.4911 7.60231C11.3354 7.66681 11.1685 7.7 11 7.7C10.6596 7.7 10.3332 7.56479 10.0925 7.32412C9.85188 7.08345 9.71667 6.75703 9.71667 6.41667C9.71667 6.07631 9.85188 5.74989 10.0925 5.50921C10.3332 5.26854 10.6596 5.13333 11 5.13333Z" fill="#EDFAFF"/>
</svg>
