<svg viewBox="0 0 28 32" fill="current" xmlns="http://www.w3.org/2000/svg">
<path fill-rule="evenodd" clip-rule="evenodd" d="M2.33102 13.157C1.9836 13.5526 1.68929 13.9944 1.45902 14.471C1.39504 14.6052 1.33822 14.7418 1.28776 14.8824C0.886719 15.9965 0.886719 17.3662 0.886719 19.8227V23.3574C0.886719 23.8053 0.886719 24.2186 0.889151 24.5994C0.901647 26.5554 0.978271 27.6907 1.44816 28.6894L1.45893 28.7122C1.96712 29.7637 2.78173 30.6381 3.77152 31.2086C3.9055 31.2861 4.04277 31.3581 4.18301 31.4243C5.22083 31.928 6.41473 31.991 8.55286 31.9989C8.85829 32 9.18299 32 9.52926 32H18.4739C18.9385 32 19.3645 32 19.7571 31.9973C21.7048 31.9838 22.8329 31.9034 23.8201 31.4243C23.9616 31.3574 24.1001 31.2848 24.2353 31.2064C25.2235 30.6358 26.0366 29.7624 26.5441 28.7122L26.5549 28.6894C26.9752 27.7944 27.0809 26.7917 27.1075 25.1918C27.1165 24.6541 27.1165 24.0488 27.1165 23.3574V19.824C27.1165 19.2664 27.1165 18.7648 27.1118 18.3093C27.0958 16.7581 27.0254 15.7439 26.7153 14.8825C26.6649 14.7419 26.608 14.6052 26.5441 14.471C26.3136 13.994 26.019 13.5519 25.6712 13.1561C25.1589 12.5718 24.5328 12.0901 23.8302 11.7472C23.8072 11.7364 23.7838 11.7258 23.7605 11.7154C23.4045 11.5541 23.0294 11.4416 22.6045 11.363V8.56054C22.5987 7.66246 22.4525 6.78832 22.1838 5.96301C22.1723 5.90186 22.1561 5.84082 22.1349 5.78032C21.3782 3.61054 19.8222 1.86544 17.7539 0.865158C16.5622 0.28796 15.2843 -0.00157544 14.0019 7.34956e-06C12.7193 -0.00168197 11.4411 0.287853 10.2492 0.865157C8.18083 1.86544 6.62483 3.61054 5.86824 5.78032C5.84698 5.84082 5.8307 5.90186 5.8192 5.96301C5.55056 6.78832 5.40442 7.66246 5.39869 8.56054V11.363C4.97358 11.4416 4.59853 11.5541 4.24257 11.7154C4.21921 11.7258 4.19595 11.7364 4.1728 11.7472C3.46987 12.0902 2.84353 12.5724 2.33102 13.157ZM9.52928 11.1815C8.91899 11.1815 8.37578 11.1815 7.88694 11.1875V8.56883C7.90354 5.99099 9.55408 3.68851 11.9943 2.83421C12.6507 2.60576 13.3275 2.49179 14.0019 2.49078C14.676 2.49186 15.3526 2.60582 16.0088 2.83421C18.4489 3.68851 20.0995 5.99099 20.1161 8.56883V11.1875C19.6273 11.1815 19.0843 11.1815 18.4741 11.1815H9.52928ZM15.2814 19.8832C15.2814 19.1762 14.7085 18.6032 14.0014 18.6032C13.2946 18.6032 12.7215 19.1762 12.7215 19.8832V23.4386C12.7215 24.1454 13.2946 24.7186 14.0014 24.7186C14.7085 24.7186 15.2814 24.1454 15.2814 23.4386V19.8832Z"/>
</svg>
