<svg width="22" height="22" viewBox="0 0 22 22" fill="none" xmlns="http://www.w3.org/2000/svg">
<path fill-rule="evenodd" clip-rule="evenodd" d="M11.0007 1.91316C8.5905 1.91316 6.27906 2.87059 4.57482 4.57482C2.87059 6.27906 1.91316 8.5905 1.91316 11.0007C1.91316 13.4108 2.87059 15.7222 4.57482 17.4265C6.27906 19.1307 8.5905 20.0881 11.0007 20.0881C13.4108 20.0881 15.7222 19.1307 17.4265 17.4265C19.1307 15.7222 20.0881 13.4108 20.0881 11.0007C20.0881 8.5905 19.1307 6.27906 17.4265 4.57482C15.7222 2.87059 13.4108 1.91316 11.0007 1.91316ZM0 11.0007C0 4.92447 4.92447 0 11.0007 0C17.0768 0 22.0013 4.92447 22.0013 11.0007C22.0013 17.0768 17.0768 22.0013 11.0007 22.0013C4.92447 22.0013 0 17.0768 0 11.0007Z" fill="#EDFAFF"/>
<path fill-rule="evenodd" clip-rule="evenodd" d="M7.81152 8.58329C7.81152 7.73758 8.14748 6.9265 8.74549 6.3285C9.3435 5.73049 10.1546 5.39453 11.0003 5.39453C11.846 5.39453 12.6571 5.73049 13.2551 6.3285C13.8531 6.9265 14.189 7.73758 14.189 8.58329C14.189 9.97893 13.2755 10.7126 12.6633 11.1249V11.1259C12.4079 11.2971 12.2347 11.4425 12.1209 11.5946C12.0078 11.745 11.95 11.9298 11.9573 12.1178V12.3972C11.9573 12.6509 11.8566 12.8942 11.6772 13.0736C11.4978 13.253 11.2545 13.3537 11.0008 13.3537C10.7471 13.3537 10.5037 13.253 10.3244 13.0736C10.145 12.8942 10.0442 12.6509 10.0442 12.3972V12.1178C10.0442 10.7031 10.9682 9.9598 11.5938 9.53891C11.8425 9.37151 12.0099 9.22993 12.12 9.08358C12.228 8.93973 12.283 8.76302 12.2759 8.58329C12.2759 8.24498 12.1415 7.92052 11.9023 7.6813C11.663 7.44208 11.3386 7.30769 11.0003 7.30769C10.662 7.30769 10.3375 7.44208 10.0983 7.6813C9.85907 7.92052 9.72468 8.24498 9.72468 8.58329C9.72468 8.83699 9.6239 9.08029 9.4445 9.25969C9.26511 9.43908 9.0218 9.53986 8.7681 9.53986C8.5144 9.53986 8.27109 9.43908 8.0917 9.25969C7.9123 9.08029 7.81152 8.83699 7.81152 8.58329Z" fill="#EDFAFF"/>
<path d="M12.1005 15.9282C12.1005 16.0727 12.0721 16.2157 12.0168 16.3492C11.9615 16.4826 11.8805 16.6039 11.7783 16.7061C11.6762 16.8082 11.5549 16.8892 11.4214 16.9445C11.288 16.9998 11.1449 17.0283 11.0005 17.0283C10.856 17.0283 10.7129 16.9998 10.5795 16.9445C10.446 16.8892 10.3247 16.8082 10.2226 16.7061C10.1204 16.6039 10.0394 16.4826 9.98413 16.3492C9.92884 16.2157 9.90039 16.0727 9.90039 15.9282C9.90039 15.6364 10.0163 15.3566 10.2226 15.1503C10.4289 14.944 10.7087 14.8281 11.0005 14.8281C11.2922 14.8281 11.572 14.944 11.7783 15.1503C11.9846 15.3566 12.1005 15.6364 12.1005 15.9282Z" fill="#EDFAFF"/>
</svg>
