<svg width="26" height="20" viewBox="0 0 26 20" fill="none" xmlns="http://www.w3.org/2000/svg">
<path d="M6.62151 7.63177L10.6364 4.34037V15.6597L6.62151 12.3684H2.36364V7.63177H6.62151ZM1.18182 14.7367H5.77778L12.0349 19.8662C12.1405 19.9528 12.2727 20 12.4091 20C12.7354 20 13 19.735 13 19.4079V0.592093C13 0.455418 12.9528 0.322947 12.8665 0.217166C12.6598 -0.0359107 12.2875 -0.0732114 12.0349 0.133849L5.77778 5.26343H1.18182C0.529124 5.26343 0 5.79359 0 6.44758V13.5525C0 14.2065 0.529124 14.7367 1.18182 14.7367ZM26 9.99995C26 13.8982 24.291 17.3965 21.5826 19.7837L19.9071 18.1048C22.1896 16.1501 23.6364 13.2443 23.6364 9.99995C23.6364 6.75557 22.1896 3.84981 19.9071 1.89511L21.5826 0.216243C24.291 2.60336 26 6.10167 26 9.99995ZM20.0909 9.99995C20.0909 7.73621 19.0344 5.71981 17.3884 4.41873L15.6995 6.11101C16.9252 6.96681 17.7273 8.38951 17.7273 9.99995C17.7273 11.6104 16.9252 13.033 15.6995 13.8888L17.3884 15.5811C19.0344 14.2801 20.0909 12.2636 20.0909 9.99995Z" fill="white"/>
</svg>
