<svg viewBox="0 0 29 28" fill="none" xmlns="http://www.w3.org/2000/svg">
<g filter="url(#filter0_d_2229_12577)">
<circle cx="14.5002" cy="14.0012" r="12.9231" fill="#EB8E07"/>
</g>
<circle cx="14.5005" cy="13.9985" r="11.8462" fill="url(#paint0_linear_2229_12577)"/>
<circle cx="14.4999" cy="14.0009" r="9.69231" fill="url(#paint1_linear_2229_12577)"/>
<path d="M14.1436 18.485L11.2576 20.3376C10.9578 20.5303 10.5621 20.438 10.374 20.1309C10.2819 19.98 10.2532 19.7964 10.2954 19.6233L10.7647 17.6912C10.9192 17.0562 11.3325 16.5197 11.9002 16.2183L14.5953 14.7895C14.7408 14.7123 14.798 14.5288 14.7226 14.3799C14.6639 14.264 14.5393 14.1996 14.413 14.2197L11.4117 14.7023C10.6951 14.8177 9.96472 14.6038 9.41521 14.1188L8.26148 13.1004C7.99364 12.8639 7.96338 12.4491 8.19423 12.1747C8.30466 12.0436 8.46127 11.9623 8.62921 11.9488L12.0479 11.672C12.2897 11.6519 12.5004 11.4942 12.5917 11.2643L13.9026 7.94919C14.0357 7.61291 14.4091 7.45126 14.7373 7.58724C14.8985 7.65394 15.0265 7.78538 15.0914 7.95076L16.3949 11.2689C16.4857 11.4994 16.6954 11.6573 16.9371 11.678L20.3734 11.9648C20.7263 11.9944 20.9888 12.311 20.96 12.6723C20.9463 12.8426 20.8688 13.0006 20.7428 13.1136L18.0947 15.4806C17.9162 15.64 17.8385 15.888 17.8921 16.1242L18.6965 19.657C18.7769 20.0104 18.5626 20.3625 18.2183 20.4452C18.0516 20.4847 17.8758 20.4545 17.7311 20.361L14.8255 18.486C14.617 18.3514 14.3522 18.351 14.1436 18.485Z" fill="url(#paint2_linear_2229_12577)"/>
<path opacity="0.8" d="M26.3454 14.1491C26.3436 14.462 26.3294 14.7723 26.3038 15.0793C25.8716 8.9292 20.7979 3.44754 14.5667 3.40781C8.3352 3.36781 3.19341 8.78428 2.68352 14.9284C2.66188 14.6209 2.65166 14.3105 2.65354 13.9975C2.69511 7.4163 8.03231 2.1149 14.5746 2.15649C21.1167 2.19831 26.387 7.56762 26.3454 14.1491Z" fill="white"/>
<circle cx="14.5002" cy="14.0012" r="13.1923" stroke="black" stroke-width="0.538462"/>
<defs>
<filter id="filter0_d_2229_12577" x="1.57715" y="1.07812" width="25.8457" height="26.9246" filterUnits="userSpaceOnUse" color-interpolation-filters="sRGB">
<feFlood flood-opacity="0" result="BackgroundImageFix"/>
<feColorMatrix in="SourceAlpha" type="matrix" values="0 0 0 0 0 0 0 0 0 0 0 0 0 0 0 0 0 0 127 0" result="hardAlpha"/>
<feOffset dy="1.07692"/>
<feComposite in2="hardAlpha" operator="out"/>
<feColorMatrix type="matrix" values="0 0 0 0 0 0 0 0 0 0 0 0 0 0 0 0 0 0 0.5 0"/>
<feBlend mode="normal" in2="BackgroundImageFix" result="effect1_dropShadow_2229_12577"/>
<feBlend mode="normal" in="SourceGraphic" in2="effect1_dropShadow_2229_12577" result="shape"/>
</filter>
<linearGradient id="paint0_linear_2229_12577" x1="8.15382" y1="3.99784" x2="20.8471" y2="23.9992" gradientUnits="userSpaceOnUse">
<stop stop-color="#FFFC00"/>
<stop offset="0.5" stop-color="#FFF000"/>
<stop offset="1" stop-color="#FFE400"/>
</linearGradient>
<linearGradient id="paint1_linear_2229_12577" x1="9.30724" y1="5.81846" x2="19.6927" y2="22.1833" gradientUnits="userSpaceOnUse">
<stop stop-color="#FFDE00"/>
<stop offset="0.5" stop-color="#FDEC50"/>
<stop offset="1" stop-color="#FBFA9F"/>
</linearGradient>
<linearGradient id="paint2_linear_2229_12577" x1="14.4667" y1="7.54115" x2="14.5592" y2="20.4891" gradientUnits="userSpaceOnUse">
<stop stop-color="#FBB03B"/>
<stop offset="0.5" stop-color="#FD9F1E"/>
<stop offset="1" stop-color="#FF8A00"/>
</linearGradient>
</defs>
</svg>
