<svg  viewBox="0 0 22 18" fill="none" xmlns="http://www.w3.org/2000/svg">
<path d="M15.2925 5.07367C15.1336 5.10973 12.6027 6.78247 7.69994 10.0921C6.98157 10.5853 6.3309 10.8257 5.74792 10.8131C5.10522 10.7992 3.86894 10.4497 2.94989 10.151C2.81482 10.1071 2.68306 10.0656 2.55591 10.0256C1.62192 9.73189 0.936069 9.5162 1.00474 8.96847M15.2925 5.07367L2.34382 7.97397C1.49173 8.31287 1.04537 8.64437 1.00474 8.96847M15.2925 5.07367C15.4046 5.04822 15.5599 5.01623 15.6651 5.10978M15.2925 5.07367L15.6651 5.10978M1.00474 8.96847L0.756678 8.93737C0.789809 8.67311 0.979245 8.45555 1.22092 8.27606C1.46841 8.09226 1.81443 7.9157 2.24765 7.74317C7.49265 5.45805 10.9924 3.95054 12.745 3.22157L12.841 3.4524L12.745 3.22157C15.2435 2.18236 16.7582 1.57002 17.7336 1.21604C18.7048 0.863629 19.1677 0.756922 19.5511 0.750166L19.5555 1.00012L19.5511 0.750166C19.6452 0.748509 19.7868 0.75904 19.9373 0.795002C20.0862 0.83058 20.263 0.895536 20.4105 1.01528V1.01528C20.6656 1.22226 20.7289 1.49902 20.7556 1.65466C20.7821 1.80909 20.8146 2.15138 20.7882 2.42912L20.7882 2.42915C20.5161 5.28811 19.3419 12.2056 18.7457 15.3925C18.489 16.7653 17.953 17.3801 17.2928 17.4409C16.6964 17.4958 16.1827 17.2958 15.7052 17.0153C15.4671 16.8754 15.2326 16.7122 14.9993 16.5465C14.9595 16.5182 14.9198 16.4899 14.8801 16.4616C14.6841 16.322 14.4876 16.1818 14.2813 16.0467L14.2813 16.0466C13.4873 15.5261 12.866 15.1038 12.2518 14.6856L12.1712 14.6308C11.5843 14.231 10.9974 13.8313 10.2638 13.3479C9.80649 13.0465 9.50345 12.7581 9.3482 12.4608C9.18352 12.1454 9.19656 11.8423 9.32007 11.5607C9.43607 11.2962 9.64834 11.0529 9.87302 10.8242C9.97414 10.7213 10.083 10.6164 10.1925 10.5109C10.2067 10.4972 10.2209 10.4834 10.2352 10.4697C10.36 10.3493 10.4859 10.2269 10.609 10.0991L10.609 10.0991C10.6754 10.0301 10.996 9.732 11.4431 9.31623C11.9233 8.86978 12.5493 8.28763 13.1633 7.70776C13.7608 7.14355 14.3508 6.57783 14.7964 6.13019C15.0196 5.90603 15.204 5.71396 15.3344 5.56766C15.3999 5.49418 15.4488 5.43555 15.4814 5.39209C15.4921 5.37782 15.4999 5.36658 15.5056 5.35809C15.5057 5.3472 15.5051 5.33485 15.5033 5.3228C15.5017 5.31186 15.4995 5.30375 15.4975 5.29832C15.4936 5.29771 15.4878 5.29715 15.4794 5.29709C15.4496 5.29686 15.414 5.30287 15.3657 5.31348C15.3622 5.31518 15.3576 5.31752 15.3517 5.32064C15.3284 5.33295 15.2946 5.35205 15.2491 5.37902C15.1585 5.43268 15.03 5.51227 14.8626 5.61861C14.5283 5.83098 14.0454 6.14589 13.413 6.56385C12.1488 7.39946 10.2914 8.64433 7.8406 10.2987C7.09961 10.8073 6.39772 11.0772 5.74251 11.063C5.39082 11.0554 4.89749 10.9581 4.39173 10.8313C3.88017 10.703 3.33556 10.5392 2.87261 10.3887L2.87259 10.3887C2.74583 10.3475 2.61949 10.3078 2.49551 10.2688C2.08723 10.1405 1.7045 10.0202 1.41635 9.88064C1.22546 9.78817 1.04763 9.6748 0.923312 9.52201C0.791036 9.35943 0.728408 9.16286 0.756677 8.93737L1.00474 8.96847ZM15.6651 5.10978C15.7704 5.20333 15.76 5.38049 15.7489 5.42802L15.6651 5.10978ZM15.5042 5.29998C15.5042 5.3 15.5037 5.29987 15.503 5.29949L15.5042 5.29998ZM15.3478 5.31747L15.3478 5.31746L15.3478 5.31747Z" fill="white" stroke="black" stroke-width="0.5"/>
</svg>
