<svg width="22" height="20" viewBox="0 0 22 20" fill="none" xmlns="http://www.w3.org/2000/svg">
<path fill-rule="evenodd" clip-rule="evenodd" d="M19.8136 2.39686L2.97292 9.1288L6.29467 10.3156C6.5177 10.3954 6.71957 10.5286 6.884 10.7043C7.04842 10.88 7.17081 11.0934 7.2413 11.3272L8.74307 16.3092L10.037 14.8074L8.74909 13.8636C8.56449 13.7281 8.41162 13.5512 8.30181 13.3459C8.192 13.1407 8.12807 12.9124 8.11477 12.678C8.10146 12.4436 8.13912 12.2091 8.22495 11.9919C8.31077 11.7746 8.44257 11.5803 8.61056 11.4232L13.9481 6.43498C14.0456 6.34055 14.1603 6.26726 14.2854 6.21938C14.4105 6.1715 14.5435 6.14999 14.6767 6.15611C14.8099 6.16223 14.9406 6.19585 15.0612 6.25501C15.1817 6.31418 15.2897 6.3977 15.3789 6.5007C15.468 6.6037 15.5365 6.72412 15.5804 6.85493C15.6242 6.98574 15.6426 7.12431 15.6343 7.26256C15.6261 7.40081 15.5914 7.53596 15.5323 7.66014C15.4732 7.78431 15.3909 7.89501 15.2902 7.98578L10.4215 12.536L12.116 13.7791L12.1502 13.8052L16.7759 17.5148L19.8136 2.39686ZM11.6623 16.0485L16.1836 19.6746C16.3856 19.8364 16.6238 19.9422 16.8759 19.9821C17.128 20.0221 17.3857 19.9948 17.6249 19.903C17.8641 19.8112 18.0769 19.6577 18.2434 19.4571C18.4099 19.2564 18.5246 19.0151 18.5768 18.7558L21.9668 1.88688C22.2108 0.673984 21.0654 -0.337631 19.9531 0.106645L0.965208 7.69585C-0.34683 8.22043 -0.312699 10.1602 1.0154 10.6348L5.40124 12.2022L7.09073 17.8068C7.17005 18.0708 7.31534 18.3083 7.51178 18.495C7.70823 18.6817 7.9488 18.8109 8.20899 18.8695C8.46919 18.9282 8.73969 18.9141 8.99292 18.8287C9.24616 18.7433 9.47308 18.5897 9.65056 18.3835L11.6623 16.0485Z" fill="#EDFAFF"/>
</svg>
