<svg viewBox="0 0 27 26" fill="none" xmlns="http://www.w3.org/2000/svg">
<g clip-path="url(#clip0_2331_13886)">
<g filter="url(#filter0_d_2331_13886)">
<circle cx="13.166" cy="13" r="12" fill="#35AFF1"/>
</g>
<circle cx="13.166" cy="13" r="11" fill="url(#paint0_linear_2331_13886)"/>
<circle cx="13.166" cy="13" r="9" fill="url(#paint1_linear_2331_13886)"/>
<path opacity="0.2" d="M24.1658 13.1363C24.1641 13.4268 24.151 13.7149 24.1272 14C23.7258 8.28916 19.0145 3.19906 13.2284 3.16217C7.44204 3.12502 2.66752 8.1546 2.19405 13.8599C2.17397 13.5743 2.16448 13.2861 2.16622 12.9955C2.20482 6.88433 7.16079 1.9616 13.2357 2.00023C19.3106 2.03905 24.2044 7.02484 24.1658 13.1363Z" fill="white"/>
<path fill-rule="evenodd" clip-rule="evenodd" d="M17.3153 8C17.6062 8 17.897 8.04312 18.2016 8.18441C18.5668 8.35506 18.7595 8.62296 18.8953 8.82113C19.0729 9.11203 19.1666 9.44639 19.166 9.78721C19.1672 10.1228 19.0826 10.4532 18.9201 10.7469L13.7176 19.682C13.6032 19.8795 13.3919 20.0008 13.1637 20C12.9355 19.9992 12.7251 19.8766 12.612 19.6784L7.50581 10.7616L7.50122 10.7542C7.38469 10.5616 7.20394 10.2643 7.17182 9.87988C7.11272 9.156 7.50914 8.47147 8.16644 8.16239C8.51144 8.00183 8.86102 8 9.08123 8H17.3153ZM12.5265 9.27734H9.08015C8.85352 9.27734 8.76635 9.29111 8.70579 9.31955C8.53061 9.40067 8.4255 9.58331 8.44338 9.77553C8.44796 9.83057 8.46998 9.89204 8.60028 10.1067L8.60853 10.1205L12.5265 16.962V9.27734ZM13.8047 16.9969L17.8144 10.1104C17.8649 10.0107 17.8907 9.90022 17.8896 9.7884C17.8896 9.69023 17.8694 9.60491 17.8235 9.51683C17.7934 9.47077 17.7597 9.4272 17.7226 9.38655C17.7056 9.36796 17.685 9.35298 17.6621 9.34251C17.553 9.29436 17.4343 9.27236 17.3152 9.27829H13.8047V16.9969Z" fill="white"/>
<circle cx="13.166" cy="13" r="12.25" stroke="black" stroke-width="0.5"/>
</g>
<defs>
<filter id="filter0_d_2331_13886" x="1.16602" y="1" width="24" height="25" filterUnits="userSpaceOnUse" color-interpolation-filters="sRGB">
<feFlood flood-opacity="0" result="BackgroundImageFix"/>
<feColorMatrix in="SourceAlpha" type="matrix" values="0 0 0 0 0 0 0 0 0 0 0 0 0 0 0 0 0 0 127 0" result="hardAlpha"/>
<feOffset dy="1"/>
<feComposite in2="hardAlpha" operator="out"/>
<feColorMatrix type="matrix" values="0 0 0 0 0 0 0 0 0 0 0 0 0 0 0 0 0 0 0.5 0"/>
<feBlend mode="normal" in2="BackgroundImageFix" result="effect1_dropShadow_2331_13886"/>
<feBlend mode="normal" in="SourceGraphic" in2="effect1_dropShadow_2331_13886" result="shape"/>
</filter>
<linearGradient id="paint0_linear_2331_13886" x1="7.27271" y1="3.71367" x2="19.0593" y2="22.2863" gradientUnits="userSpaceOnUse">
<stop stop-color="#84D4FF"/>
<stop offset="0.5" stop-color="#61C7FF"/>
<stop offset="1" stop-color="#42BDFF"/>
</linearGradient>
<linearGradient id="paint1_linear_2331_13886" x1="8.34423" y1="5.40202" x2="17.9879" y2="20.5979" gradientUnits="userSpaceOnUse">
<stop stop-color="#35AFF1"/>
<stop offset="0.5" stop-color="#4DC0FF"/>
<stop offset="1" stop-color="#9EDDFF"/>
</linearGradient>
<clipPath id="clip0_2331_13886">
<rect width="26" height="26" fill="white" transform="translate(0.166016)"/>
</clipPath>
</defs>
</svg>
