<svg width="15" height="14" viewBox="0 0 15 14" fill="none" xmlns="http://www.w3.org/2000/svg">
<path fill-rule="evenodd" clip-rule="evenodd" d="M9.21267 5.8258C9.49922 5.23202 9.65981 4.56607 9.65981 3.8626C9.65981 2.53086 9.08425 1.33355 8.16829 0.50587C8.63905 0.186553 9.20723 0 9.81886 0C11.4448 0 12.763 1.31813 12.763 2.94413C12.763 4.57014 11.4448 5.88828 9.81886 5.88828C9.61105 5.88828 9.40833 5.86675 9.21267 5.8258ZM8.37983 3.86332C8.37983 5.65387 6.92831 7.10539 5.13777 7.10539C3.34722 7.10539 1.89569 5.65387 1.89569 3.86332C1.89569 2.07277 3.34722 0.621244 5.13777 0.621244C6.92831 0.621244 8.37983 2.07277 8.37983 3.86332ZM11.6198 11.1133C11.5206 9.45681 11.2745 8.56875 10.1143 7.11395C11.281 6.95216 11.8597 6.7221 12.695 5.94727C14.4627 7.38724 14.5965 9.28227 14.4624 9.60553C14.0862 10.5097 13.3037 10.7709 11.6198 11.1133ZM0.0158953 10.6174C0.110569 9.73639 0.426267 8.9386 0.957952 8.23677C1.27184 7.82245 1.64417 7.46372 2.07958 7.15654C3.95193 8.73276 6.44839 8.73276 8.24098 7.10145C9.27239 7.80405 9.99594 8.82676 10.2772 9.9953C10.3637 10.3545 10.4104 10.7659 10.4007 11.0839C10.3955 11.255 10.3867 11.3065 10.3412 11.4315C10.1031 12.0859 9.15403 12.6044 7.67535 12.888C7.14918 12.9888 6.63487 13.0493 5.94714 13.0909C5.71118 13.1051 4.68752 13.1051 4.45156 13.0909C3.78869 13.0507 3.29433 12.9941 2.78782 12.9003C2.23042 12.797 1.71942 12.6532 1.32129 12.4875C0.556191 12.1691 0.112882 11.7591 0.0116257 11.2762C-0.0057212 11.1935 -0.00312991 10.7943 0.0158953 10.6174Z" fill="white"/>
</svg>
