<svg width="22" height="20" viewBox="0 0 22 20" fill="none" xmlns="http://www.w3.org/2000/svg">
<path d="M20.3454 0L22 1.60001L19.1035 4.3992L22 7.2L19.1035 9.99925L22 12.8L19.1043 15.6L22 18.4L20.3454 20L15.7951 15.6L18.6908 12.8L15.7951 10L18.6908 7.2L15.7951 4.4L20.3454 0ZM12.7379 0.653186C12.8234 0.754251 12.8701 0.880817 12.8701 1.0114V18.9886C12.8701 19.301 12.6081 19.5542 12.2851 19.5542C12.1501 19.5542 12.0191 19.5091 11.9147 19.4264L5.72017 14.5245L1.17001 14.5255C0.523836 14.5255 0 14.019 0 13.3942V6.60589C0 5.98105 0.523836 5.47452 1.17001 5.47452L5.72017 5.47351L11.9147 0.573582C12.1647 0.375751 12.5332 0.411389 12.7379 0.653186ZM10.5301 4.59205L6.55557 7.73607L2.34001 7.73613V12.2628L6.55538 12.2615L10.5301 15.4069V4.59205Z" fill="white"/>
</svg>
