<svg width="20" height="15" viewBox="0 0 20 15" fill="none" xmlns="http://www.w3.org/2000/svg">
<path fill-rule="evenodd" clip-rule="evenodd" d="M4 0C1.79086 0 0 1.79086 0 4V11C0 13.2091 1.79086 15 4 15H14C15.8638 15 17.4299 13.7252 17.874 12H13C11.3431 12 10 10.6569 10 9V6C10 4.34315 11.3431 3 13 3H17.874C17.4299 1.27477 15.8638 0 14 0H4Z" fill="white"/>
<path fill-rule="evenodd" clip-rule="evenodd" d="M13 4C11.8954 4 11 4.89543 11 6V9C11 10.1046 11.8954 11 13 11H18C19.1046 11 20 10.1046 20 9V6C20 4.89543 19.1046 4 18 4H13ZM14.5 9C15.3284 9 16 8.32843 16 7.5C16 6.67157 15.3284 6 14.5 6C13.6716 6 13 6.67157 13 7.5C13 8.32843 13.6716 9 14.5 9Z" fill="white"/>
</svg>
