<svg  viewBox="0 0 23 21" fill="current" xmlns="http://www.w3.org/2000/svg">
<g filter="url(#filter0_d_9161_10109)">
<path d="M17.1106 18.3566L17.1106 14.1335C17.1106 13.8459 17.3314 13.62 17.6125 13.62L20.8343 13.62C20.8343 13.62 20.8745 13.62 20.8945 13.62C22.2897 13.62 23.0224 11.9149 22.0689 10.8672C19.2485 7.76522 14.772 2.83492 12.6643 0.523845C12.032 -0.174615 10.968 -0.174615 10.3357 0.523845C8.22797 2.83492 3.75152 7.76522 0.931149 10.8672C-0.0223553 11.9149 0.710339 13.62 2.10547 13.62C2.12554 13.62 2.14562 13.62 2.16569 13.62L5.38753 13.62C5.66856 13.62 5.88938 13.8459 5.88938 14.1335L5.88938 18.3566C5.88938 19.2605 6.61203 20 7.49528 20L15.5148 20C16.398 20 17.1207 19.2605 17.1207 18.3566L17.1106 18.3566Z"/>
<path d="M16.8606 18.3566L16.8606 18.5261C16.7783 19.217 16.1995 19.75 15.5148 19.75L7.49528 19.75C6.75552 19.75 6.13938 19.1279 6.13938 18.3566L6.13938 14.1335C6.13938 13.7133 5.81205 13.37 5.38753 13.37L2.16569 13.37L2.16557 13.37L2.16545 13.37L2.16534 13.37L2.16522 13.37L2.1651 13.37L2.16498 13.37L2.16486 13.37L2.16475 13.37L2.16463 13.37L2.16451 13.37L2.16439 13.37L2.16428 13.37L2.16416 13.37L2.16404 13.37L2.16392 13.37L2.16381 13.37L2.16369 13.37L2.16357 13.37L2.16345 13.37L2.16334 13.37L2.16322 13.37L2.1631 13.37L2.16298 13.37L2.16287 13.37L2.16275 13.37L2.16263 13.37L2.16251 13.37L2.16239 13.37L2.16228 13.37L2.16216 13.37L2.16204 13.37L2.16192 13.37L2.16181 13.37L2.16169 13.37L2.16157 13.37L2.16145 13.37L2.16134 13.37L2.16122 13.37L2.1611 13.37L2.16098 13.37L2.16087 13.37L2.16075 13.37L2.16063 13.37L2.16051 13.37L2.1604 13.37L2.16028 13.37L2.16016 13.37L2.16004 13.37L2.15992 13.37L2.15981 13.37L2.15969 13.37L2.15957 13.37L2.15945 13.37L2.15934 13.37L2.15922 13.37L2.1591 13.37L2.15898 13.37L2.15887 13.37L2.15875 13.37L2.15863 13.37L2.15851 13.37L2.1584 13.37L2.15828 13.37L2.15816 13.37L2.15804 13.37L2.15793 13.37L2.15781 13.37L2.15769 13.37L2.15757 13.37L2.15745 13.37L2.15734 13.37L2.15722 13.37L2.1571 13.37L2.15698 13.37L2.15687 13.37L2.15675 13.37L2.15663 13.37L2.15651 13.37L2.1564 13.37L2.15628 13.37L2.15616 13.37L2.15604 13.37L2.15593 13.37L2.15581 13.37L2.15569 13.37L2.15557 13.37L2.15546 13.37L2.15534 13.37L2.15522 13.37L2.1551 13.37L2.15498 13.37L2.15487 13.37L2.15475 13.37L2.15463 13.37L2.15451 13.37L2.1544 13.37L2.15428 13.37L2.15416 13.37L2.15404 13.37L2.15393 13.37L2.15381 13.37L2.15369 13.37L2.15357 13.37L2.15346 13.37L2.15334 13.37L2.15322 13.37L2.1531 13.37L2.15299 13.37L2.15287 13.37L2.15275 13.37L2.15263 13.37L2.15252 13.37L2.1524 13.37L2.15228 13.37L2.15216 13.37L2.15204 13.37L2.15193 13.37L2.15181 13.37L2.15169 13.37L2.15157 13.37L2.15146 13.37L2.15134 13.37L2.15122 13.37L2.1511 13.37L2.15099 13.37L2.15087 13.37L2.15075 13.37L2.15063 13.37L2.15052 13.37L2.1504 13.37L2.15028 13.37L2.15016 13.37L2.15005 13.37L2.14993 13.37L2.14981 13.37L2.14969 13.37L2.14957 13.37L2.14946 13.37L2.14934 13.37L2.14922 13.37L2.1491 13.37L2.14899 13.37L2.14887 13.37L2.14875 13.37L2.14863 13.37L2.14852 13.37L2.1484 13.37L2.14828 13.37L2.14816 13.37L2.14805 13.37L2.14793 13.37L2.14781 13.37L2.14769 13.37L2.14758 13.37L2.14746 13.37L2.14734 13.37L2.14722 13.37L2.1471 13.37L2.14699 13.37L2.14687 13.37L2.14675 13.37L2.14663 13.37L2.14652 13.37L2.1464 13.37L2.14628 13.37L2.14616 13.37L2.14605 13.37L2.14593 13.37L2.14581 13.37L2.14569 13.37L2.14558 13.37L2.14546 13.37L2.14534 13.37L2.14522 13.37L2.14511 13.37L2.14499 13.37L2.14487 13.37L2.14475 13.37L2.14463 13.37L2.14452 13.37L2.1444 13.37L2.14428 13.37L2.14416 13.37L2.14405 13.37L2.14393 13.37L2.14381 13.37L2.14369 13.37L2.14358 13.37L2.14346 13.37L2.14334 13.37L2.14322 13.37L2.14311 13.37L2.14299 13.37L2.14287 13.37L2.14275 13.37L2.14264 13.37L2.14252 13.37L2.1424 13.37L2.14228 13.37L2.14216 13.37L2.14205 13.37L2.14193 13.37L2.14181 13.37L2.14169 13.37L2.14158 13.37L2.14146 13.37L2.14134 13.37L2.14122 13.37L2.14111 13.37L2.14099 13.37L2.14087 13.37L2.14075 13.37L2.14064 13.37L2.14052 13.37L2.1404 13.37L2.14028 13.37L2.14017 13.37L2.14005 13.37L2.13993 13.37L2.13981 13.37L2.13969 13.37L2.13958 13.37L2.13946 13.37L2.13934 13.37L2.13922 13.37L2.13911 13.37L2.13899 13.37L2.13887 13.37L2.13875 13.37L2.13864 13.37L2.13852 13.37L2.1384 13.37L2.13828 13.37L2.13817 13.37L2.13805 13.37L2.13793 13.37L2.13781 13.37L2.1377 13.37L2.13758 13.37L2.13746 13.37L2.13734 13.37L2.13722 13.37L2.13711 13.37L2.13699 13.37L2.13687 13.37L2.13675 13.37L2.13664 13.37L2.13652 13.37L2.1364 13.37L2.13628 13.37L2.13617 13.37L2.13605 13.37L2.13593 13.37L2.13581 13.37L2.1357 13.37L2.13558 13.37L2.13546 13.37L2.13534 13.37L2.13522 13.37L2.13511 13.37L2.13499 13.37L2.13487 13.37L2.13475 13.37L2.13464 13.37L2.13452 13.37L2.1344 13.37L2.13428 13.37L2.13417 13.37L2.13405 13.37L2.13393 13.37L2.13381 13.37L2.1337 13.37L2.13358 13.37L2.13346 13.37L2.13334 13.37L2.13323 13.37L2.13311 13.37L2.13299 13.37L2.13287 13.37L2.13275 13.37L2.13264 13.37L2.13252 13.37L2.1324 13.37L2.13228 13.37L2.13217 13.37L2.13205 13.37L2.13193 13.37L2.13181 13.37L2.1317 13.37L2.13158 13.37L2.13146 13.37L2.13134 13.37L2.13123 13.37L2.13111 13.37L2.13099 13.37L2.13087 13.37L2.13076 13.37L2.13064 13.37L2.13052 13.37L2.1304 13.37L2.13028 13.37L2.13017 13.37L2.13005 13.37L2.12993 13.37L2.12981 13.37L2.1297 13.37L2.12958 13.37L2.12946 13.37L2.12934 13.37L2.12923 13.37L2.12911 13.37L2.12899 13.37L2.12887 13.37L2.12876 13.37L2.12864 13.37L2.12852 13.37L2.1284 13.37L2.12829 13.37L2.12817 13.37L2.12805 13.37L2.12793 13.37L2.12781 13.37L2.1277 13.37L2.12758 13.37L2.12746 13.37L2.12734 13.37L2.12723 13.37L2.12711 13.37L2.12699 13.37L2.12687 13.37L2.12676 13.37L2.12664 13.37L2.12652 13.37L2.1264 13.37L2.12629 13.37L2.12617 13.37L2.12605 13.37L2.12593 13.37L2.12582 13.37L2.1257 13.37L2.12558 13.37L2.12546 13.37L2.12534 13.37L2.12523 13.37L2.12511 13.37L2.12499 13.37L2.12487 13.37L2.12476 13.37L2.12464 13.37L2.12452 13.37L2.1244 13.37L2.12429 13.37L2.12417 13.37L2.12405 13.37L2.12393 13.37L2.12382 13.37L2.1237 13.37L2.12358 13.37L2.12346 13.37L2.12335 13.37L2.12323 13.37L2.12311 13.37L2.12299 13.37L2.12287 13.37L2.12276 13.37L2.12264 13.37L2.12252 13.37L2.1224 13.37L2.12229 13.37L2.12217 13.37L2.12205 13.37L2.12193 13.37L2.12182 13.37L2.1217 13.37L2.12158 13.37L2.12146 13.37L2.12135 13.37L2.12123 13.37L2.12111 13.37L2.12099 13.37L2.12087 13.37L2.12076 13.37L2.12064 13.37L2.12052 13.37L2.1204 13.37L2.12029 13.37L2.12017 13.37L2.12005 13.37L2.11993 13.37L2.11982 13.37L2.1197 13.37L2.11958 13.37L2.11946 13.37L2.11935 13.37L2.11923 13.37L2.11911 13.37L2.11899 13.37L2.11888 13.37L2.11876 13.37L2.11864 13.37L2.11852 13.37L2.1184 13.37L2.11829 13.37L2.11817 13.37L2.11805 13.37L2.11794 13.37L2.11782 13.37L2.1177 13.37L2.11758 13.37L2.11746 13.37L2.11735 13.37L2.11723 13.37L2.11711 13.37L2.11699 13.37L2.11688 13.37L2.11676 13.37L2.11664 13.37L2.11652 13.37L2.11641 13.37L2.11629 13.37L2.11617 13.37L2.11605 13.37L2.11593 13.37L2.11582 13.37L2.1157 13.37L2.11558 13.37L2.11547 13.37L2.11535 13.37L2.11523 13.37L2.11511 13.37L2.11499 13.37L2.11488 13.37L2.11476 13.37L2.11464 13.37L2.11452 13.37L2.11441 13.37L2.11429 13.37L2.11417 13.37L2.11405 13.37L2.11394 13.37L2.11382 13.37L2.1137 13.37L2.11358 13.37L2.11346 13.37L2.11335 13.37L2.11323 13.37L2.11311 13.37L2.113 13.37L2.11288 13.37L2.11276 13.37L2.11264 13.37L2.11252 13.37L2.11241 13.37L2.11229 13.37L2.11217 13.37L2.11205 13.37L2.11194 13.37L2.11182 13.37L2.1117 13.37L2.11158 13.37L2.11147 13.37L2.11135 13.37L2.11123 13.37L2.11111 13.37L2.11099 13.37L2.11088 13.37L2.11076 13.37L2.11064 13.37L2.11053 13.37L2.11041 13.37L2.11029 13.37L2.11017 13.37L2.11005 13.37L2.10994 13.37L2.10982 13.37L2.1097 13.37L2.10958 13.37L2.10947 13.37L2.10935 13.37L2.10923 13.37L2.10911 13.37L2.109 13.37L2.10888 13.37L2.10876 13.37L2.10864 13.37L2.10852 13.37L2.10841 13.37L2.10829 13.37L2.10817 13.37L2.10806 13.37L2.10794 13.37L2.10782 13.37L2.1077 13.37L2.10758 13.37L2.10747 13.37L2.10735 13.37L2.10723 13.37L2.10711 13.37L2.107 13.37L2.10688 13.37L2.10676 13.37L2.10664 13.37L2.10653 13.37L2.10641 13.37L2.10629 13.37L2.10617 13.37L2.10605 13.37L2.10594 13.37L2.10582 13.37L2.1057 13.37L2.10559 13.37L2.10547 13.37C0.937293 13.37 0.301997 11.9299 1.11604 11.0355L1.11612 11.0354C2.01171 10.0504 3.07419 8.88111 4.17476 7.66994C6.54041 5.06653 9.08204 2.26947 10.5204 0.692309L10.5211 0.691628C11.0541 0.10279 11.9459 0.10279 12.4789 0.69163L12.4796 0.692309C13.9182 2.26969 16.4603 5.06731 18.8262 7.67102C19.9264 8.88181 20.9886 10.0507 21.8839 11.0354L21.884 11.0355C22.698 11.9299 22.0627 13.37 20.8945 13.37L20.8944 13.37L20.8943 13.37L20.8942 13.37L20.8941 13.37L20.8939 13.37L20.8938 13.37L20.8937 13.37L20.8936 13.37L20.8935 13.37L20.8933 13.37L20.8932 13.37L20.8931 13.37L20.893 13.37L20.8928 13.37L20.8927 13.37L20.8926 13.37L20.8925 13.37L20.8923 13.37L20.8922 13.37L20.8921 13.37L20.892 13.37L20.8918 13.37L20.8917 13.37L20.8916 13.37L20.8915 13.37L20.8913 13.37L20.8912 13.37L20.8911 13.37L20.8909 13.37L20.8908 13.37L20.8907 13.37L20.8905 13.37L20.8904 13.37L20.8903 13.37L20.8902 13.37L20.89 13.37L20.8899 13.37L20.8898 13.37L20.8896 13.37L20.8895 13.37L20.8894 13.37L20.8892 13.37L20.8891 13.37L20.889 13.37L20.8888 13.37L20.8887 13.37L20.8885 13.37L20.8884 13.37L20.8883 13.37L20.8881 13.37L20.888 13.37L20.8879 13.37L20.8877 13.37L20.8876 13.37L20.8874 13.37L20.8873 13.37L20.8872 13.37L20.887 13.37L20.8869 13.37L20.8867 13.37L20.8866 13.37L20.8865 13.37L20.8863 13.37L20.8862 13.37L20.886 13.37L20.8859 13.37L20.8858 13.37L20.8856 13.37L20.8855 13.37L20.8853 13.37L20.8852 13.37L20.885 13.37L20.8849 13.37L20.8848 13.37L20.8846 13.37L20.8845 13.37L20.8843 13.37L20.8842 13.37L20.884 13.37L20.8839 13.37L20.8837 13.37L20.8836 13.37L20.8834 13.37L20.8833 13.37L20.8832 13.37L20.883 13.37L20.8829 13.37L20.8827 13.37L20.8826 13.37L20.8824 13.37L20.8823 13.37L20.8821 13.37L20.882 13.37L20.8818 13.37L20.8817 13.37L20.8815 13.37L20.8814 13.37L20.8812 13.37L20.8811 13.37L20.8809 13.37L20.8808 13.37L20.8806 13.37L20.8805 13.37L20.8803 13.37L20.8802 13.37L20.88 13.37L20.8799 13.37L20.8797 13.37L20.8796 13.37L20.8794 13.37L20.8793 13.37L20.8791 13.37L20.879 13.37L20.8788 13.37L20.8787 13.37L20.8785 13.37L20.8783 13.37L20.8782 13.37L20.878 13.37L20.8779 13.37L20.8777 13.37L20.8776 13.37L20.8774 13.37L20.8773 13.37L20.8771 13.37L20.877 13.37L20.8768 13.37L20.8767 13.37L20.8765 13.37L20.8763 13.37L20.8762 13.37L20.876 13.37L20.8759 13.37L20.8757 13.37L20.8756 13.37L20.8754 13.37L20.8753 13.37L20.8751 13.37L20.875 13.37L20.8748 13.37L20.8746 13.37L20.8745 13.37L20.8743 13.37L20.8742 13.37L20.874 13.37L20.8739 13.37L20.8737 13.37L20.8735 13.37L20.8734 13.37L20.8732 13.37L20.8731 13.37L20.8729 13.37L20.8728 13.37L20.8726 13.37L20.8725 13.37L20.8723 13.37L20.8721 13.37L20.872 13.37L20.8718 13.37L20.8717 13.37L20.8715 13.37L20.8714 13.37L20.8712 13.37L20.871 13.37L20.8709 13.37L20.8707 13.37L20.8706 13.37L20.8704 13.37L20.8703 13.37L20.8701 13.37L20.8699 13.37L20.8698 13.37L20.8696 13.37L20.8695 13.37L20.8693 13.37L20.8692 13.37L20.869 13.37L20.8688 13.37L20.8687 13.37L20.8685 13.37L20.8684 13.37L20.8682 13.37L20.8681 13.37L20.8679 13.37L20.8678 13.37L20.8676 13.37L20.8674 13.37L20.8673 13.37L20.8671 13.37L20.867 13.37L20.8668 13.37L20.8667 13.37L20.8665 13.37L20.8663 13.37L20.8662 13.37L20.866 13.37L20.8659 13.37L20.8657 13.37L20.8656 13.37L20.8654 13.37L20.8653 13.37L20.8651 13.37L20.8649 13.37L20.8648 13.37L20.8646 13.37L20.8645 13.37L20.8643 13.37L20.8642 13.37L20.864 13.37L20.8639 13.37L20.8637 13.37L20.8635 13.37L20.8634 13.37L20.8632 13.37L20.8631 13.37L20.8629 13.37L20.8628 13.37L20.8626 13.37L20.8625 13.37L20.8623 13.37L20.8622 13.37L20.862 13.37L20.8619 13.37L20.8617 13.37L20.8615 13.37L20.8614 13.37L20.8612 13.37L20.8611 13.37L20.8609 13.37L20.8608 13.37L20.8606 13.37L20.8605 13.37L20.8603 13.37L20.8602 13.37L20.86 13.37L20.8599 13.37L20.8597 13.37L20.8596 13.37L20.8594 13.37L20.8593 13.37L20.8591 13.37L20.859 13.37L20.8588 13.37L20.8587 13.37L20.8585 13.37L20.8584 13.37L20.8582 13.37L20.8581 13.37L20.8579 13.37L20.8578 13.37L20.8576 13.37L20.8575 13.37L20.8573 13.37L20.8572 13.37L20.857 13.37L20.8569 13.37L20.8567 13.37L20.8566 13.37L20.8565 13.37L20.8563 13.37L20.8562 13.37L20.856 13.37L20.8559 13.37L20.8557 13.37L20.8556 13.37L20.8554 13.37L20.8553 13.37L20.8551 13.37L20.855 13.37L20.8549 13.37L20.8547 13.37L20.8546 13.37L20.8544 13.37L20.8543 13.37L20.8541 13.37L20.854 13.37L20.8539 13.37L20.8537 13.37L20.8536 13.37L20.8534 13.37L20.8533 13.37L20.8532 13.37L20.853 13.37L20.8529 13.37L20.8527 13.37L20.8526 13.37L20.8525 13.37L20.8523 13.37L20.8522 13.37L20.852 13.37L20.8519 13.37L20.8518 13.37L20.8516 13.37L20.8515 13.37L20.8514 13.37L20.8512 13.37L20.8511 13.37L20.851 13.37L20.8508 13.37L20.8507 13.37L20.8506 13.37L20.8504 13.37L20.8503 13.37L20.8502 13.37L20.85 13.37L20.8499 13.37L20.8498 13.37L20.8496 13.37L20.8495 13.37L20.8494 13.37L20.8492 13.37L20.8491 13.37L20.849 13.37L20.8488 13.37L20.8487 13.37L20.8486 13.37L20.8485 13.37L20.8483 13.37L20.8482 13.37L20.8481 13.37L20.8479 13.37L20.8478 13.37L20.8477 13.37L20.8476 13.37L20.8474 13.37L20.8473 13.37L20.8472 13.37L20.8471 13.37L20.8469 13.37L20.8468 13.37L20.8467 13.37L20.8466 13.37L20.8465 13.37L20.8463 13.37L20.8462 13.37L20.8461 13.37L20.846 13.37L20.8459 13.37L20.8457 13.37L20.8456 13.37L20.8455 13.37L20.8454 13.37L20.8453 13.37L20.8452 13.37L20.845 13.37L20.8449 13.37L20.8448 13.37L20.8447 13.37L20.8446 13.37L20.8445 13.37L20.8443 13.37L20.8442 13.37L20.8441 13.37L20.844 13.37L20.8439 13.37L20.8438 13.37L20.8437 13.37L20.8436 13.37L20.8435 13.37L20.8434 13.37L20.8432 13.37L20.8431 13.37L20.843 13.37L20.8429 13.37L20.8428 13.37L20.8427 13.37L20.8426 13.37L20.8425 13.37L20.8424 13.37L20.8423 13.37L20.8422 13.37L20.8421 13.37L20.842 13.37L20.8419 13.37L20.8418 13.37L20.8417 13.37L20.8416 13.37L20.8415 13.37L20.8414 13.37L20.8413 13.37L20.8412 13.37L20.8411 13.37L20.841 13.37L20.8409 13.37L20.8408 13.37L20.8407 13.37L20.8406 13.37L20.8405 13.37L20.8404 13.37L20.8403 13.37L20.8402 13.37L20.8402 13.37L20.8401 13.37L20.84 13.37L20.8399 13.37L20.8398 13.37L20.8397 13.37L20.8396 13.37L20.8395 13.37L20.8394 13.37L20.8394 13.37L20.8393 13.37L20.8392 13.37L20.8391 13.37L20.839 13.37L20.8389 13.37L20.8389 13.37L20.8388 13.37L20.8387 13.37L20.8386 13.37L20.8385 13.37L20.8385 13.37L20.8384 13.37L20.8383 13.37L20.8382 13.37L20.8381 13.37L20.8381 13.37L20.838 13.37L20.8379 13.37L20.8379 13.37L20.8378 13.37L20.8377 13.37L20.8376 13.37L20.8376 13.37L20.8375 13.37L20.8374 13.37L20.8374 13.37L20.8373 13.37L20.8372 13.37L20.8372 13.37L20.8371 13.37L20.837 13.37L20.837 13.37L20.8369 13.37L20.8368 13.37L20.8368 13.37L20.8367 13.37L20.8366 13.37L20.8366 13.37L20.8365 13.37L20.8365 13.37L20.8364 13.37L20.8364 13.37L20.8363 13.37L20.8362 13.37L20.8362 13.37L20.8361 13.37L20.8361 13.37L20.836 13.37L20.836 13.37L20.8359 13.37L20.8359 13.37L20.8358 13.37L20.8358 13.37L20.8357 13.37L20.8357 13.37L20.8356 13.37L20.8356 13.37L20.8355 13.37L20.8355 13.37L20.8354 13.37L20.8354 13.37L20.8354 13.37L20.8353 13.37L20.8353 13.37L20.8352 13.37L20.8352 13.37L20.8352 13.37L20.8351 13.37L20.8351 13.37L20.8351 13.37L20.835 13.37L20.835 13.37L20.835 13.37L20.8349 13.37L20.8349 13.37L20.8349 13.37L20.8348 13.37L20.8348 13.37L20.8348 13.37L20.8347 13.37L20.8347 13.37L20.8347 13.37L20.8347 13.37L20.8346 13.37L20.8346 13.37L20.8346 13.37L20.8346 13.37L20.8345 13.37L20.8345 13.37L20.8345 13.37L20.8345 13.37L20.8345 13.37L20.8345 13.37L20.8344 13.37L20.8344 13.37L20.8344 13.37L20.8344 13.37L20.8344 13.37L20.8344 13.37L20.8344 13.37L20.8344 13.37L20.8343 13.37L20.8343 13.37L20.8343 13.37L20.8343 13.37L20.8343 13.37L20.8343 13.37L20.8343 13.37L17.6125 13.37C17.188 13.37 16.8606 13.7133 16.8606 14.1335L16.8606 18.3566Z" stroke="black" stroke-width="0.5"/>
</g>
<defs>
<filter id="filter0_d_9161_10109" x="0.5" y="0" width="22" height="21" filterUnits="userSpaceOnUse" color-interpolation-filters="sRGB">
<feFlood flood-opacity="0" result="BackgroundImageFix"/>
<feColorMatrix in="SourceAlpha" type="matrix" values="0 0 0 0 0 0 0 0 0 0 0 0 0 0 0 0 0 0 127 0" result="hardAlpha"/>
<feOffset dy="1"/>
<feComposite in2="hardAlpha" operator="out"/>
<feColorMatrix type="matrix" values="0 0 0 0 0 0 0 0 0 0 0 0 0 0 0 0 0 0 1 0"/>
<feBlend mode="normal" in2="BackgroundImageFix" result="effect1_dropShadow_9161_10109"/>
<feBlend mode="normal" in="SourceGraphic" in2="effect1_dropShadow_9161_10109" result="shape"/>
</filter>
</defs>
</svg>
