<svg  viewBox="0 0 19 16" fill="none" xmlns="http://www.w3.org/2000/svg">
<path fill-rule="evenodd" clip-rule="evenodd" d="M6.65 1.88235C5.07599 1.88235 3.8 3.14649 3.8 4.70588C3.8 6.26527 5.07599 7.52941 6.65 7.52941C8.22401 7.52941 9.5 6.26527 9.5 4.70588C9.5 3.14649 8.22401 1.88235 6.65 1.88235ZM1.9 4.70588C1.9 2.1069 4.02665 0 6.65 0C9.27335 0 11.4 2.1069 11.4 4.70588C11.4 7.30487 9.27335 9.41177 6.65 9.41177C4.02665 9.41177 1.9 7.30487 1.9 4.70588ZM11.4 0.941176C11.4 0.421379 11.8253 0 12.35 0C14.9734 0 17.1 2.1069 17.1 4.70588C17.1 7.30487 14.9734 9.41177 12.35 9.41177C11.8253 9.41177 11.4 8.99039 11.4 8.47059C11.4 7.95079 11.8253 7.52941 12.35 7.52941C13.924 7.52941 15.2 6.26527 15.2 4.70588C15.2 3.14649 13.924 1.88235 12.35 1.88235C11.8253 1.88235 11.4 1.46097 11.4 0.941176ZM2.09253 11.6137C3.30051 10.8158 4.91459 10.3529 6.65 10.3529C8.38541 10.3529 9.99949 10.8158 11.2075 11.6137C12.4088 12.4071 13.3 13.6066 13.3 15.0588C13.3 15.5786 12.8747 16 12.35 16C11.8253 16 11.4 15.5786 11.4 15.0588C11.4 14.4318 11.0152 13.749 10.1535 13.1799C9.29853 12.6152 8.06262 12.2353 6.65 12.2353C5.23738 12.2353 4.00147 12.6152 3.14646 13.1799C2.2848 13.749 1.9 14.4318 1.9 15.0588C1.9 15.5786 1.47467 16 0.95 16C0.42533 16 0 15.5786 0 15.0588C0 13.6066 0.891185 12.4071 2.09253 11.6137ZM13.3253 11.2924C13.4457 10.7865 13.9572 10.473 14.4679 10.5922C16.8465 11.1475 19 12.7617 19 15.0588C19 15.5786 18.5747 15.9999 18.05 15.9999C17.5253 15.9999 17.1 15.5786 17.1 15.0588C17.1 14.0775 16.0812 12.9027 14.0321 12.4244C13.5214 12.3051 13.205 11.7984 13.3253 11.2924Z" fill="#6A8098"/>
</svg>
