<svg viewBox="0 0 84 100" fill="none" xmlns="http://www.w3.org/2000/svg">
<mask id="mask0_9161_10260" style="mask-type:alpha" maskUnits="userSpaceOnUse" x="0" y="0" width="84" height="100">
<path d="M39.1362 5.26173C40.9798 4.55502 43.0196 4.55503 44.8632 5.26173L78.5298 18.1673C81.6237 19.3533 83.6663 22.3238 83.6663 25.6373V76.1773C83.6663 79.3321 81.8123 82.1923 78.9324 83.4803L45.2657 98.5368C43.1875 99.4662 40.8118 99.4662 38.7336 98.5368L5.06697 83.4803C2.18706 82.1923 0.333008 79.3321 0.333008 76.1773V25.6373C0.333008 22.3238 2.37561 19.3533 5.46952 18.1673L39.1362 5.26173Z" fill="#109BD8"/>
<path d="M39.1362 1.09767C40.9798 0.390961 43.0196 0.390963 44.8632 1.09767L78.5298 14.0032C81.6237 15.1892 83.6663 18.1598 83.6663 21.4732V72.0133C83.6663 75.1681 81.8123 78.0283 78.9324 79.3162L45.2657 94.3727C43.1875 95.3021 40.8118 95.3021 38.7336 94.3727L5.06697 79.3162C2.18706 78.0283 0.333008 75.1681 0.333008 72.0133V21.4732C0.333008 18.1598 2.37561 15.1892 5.46952 14.0032L39.1362 1.09767Z" fill="#44C2FD"/>
<path d="M39.1267 11.5201C40.9763 10.8082 43.0244 10.8082 44.8741 11.5201L69.35 20.9409C72.4386 22.1297 74.4763 25.0975 74.4763 28.407V65.6536C74.4763 68.8039 72.6274 71.661 69.7535 72.9515L45.2775 83.9425C43.193 84.8785 40.8077 84.8785 38.7232 83.9425L14.2473 72.9515C11.3734 71.661 9.52441 68.8039 9.52441 65.6536V28.407C9.52441 25.0975 11.5622 22.1297 14.6507 20.9409L39.1267 11.5201Z" fill="#1CB0F6"/>
</mask>
<g mask="url(#mask0_9161_10260)">
<path d="M39.1362 5.26173C40.9798 4.55502 43.0196 4.55503 44.8632 5.26173L78.5298 18.1673C81.6237 19.3533 83.6663 22.3238 83.6663 25.6373V76.1773C83.6663 79.3321 81.8123 82.1923 78.9324 83.4803L45.2657 98.5368C43.1875 99.4662 40.8118 99.4662 38.7336 98.5368L5.06697 83.4803C2.18706 82.1923 0.333008 79.3321 0.333008 76.1773V25.6373C0.333008 22.3238 2.37561 19.3533 5.46952 18.1673L39.1362 5.26173Z" fill="#109BD8"/>
<path d="M39.1362 1.09767C40.9798 0.390961 43.0196 0.390963 44.8632 1.09767L78.5298 14.0032C81.6237 15.1892 83.6663 18.1598 83.6663 21.4732V72.0133C83.6663 75.1681 81.8123 78.0283 78.9324 79.3162L45.2657 94.3727C43.1875 95.3021 40.8118 95.3021 38.7336 94.3727L5.06697 79.3162C2.18706 78.0283 0.333008 75.1681 0.333008 72.0133V21.4732C0.333008 18.1598 2.37561 15.1892 5.46952 14.0032L39.1362 1.09767Z" fill="#44C2FD"/>
<path d="M39.1267 11.5201C40.9763 10.8082 43.0244 10.8082 44.8741 11.5201L69.35 20.9409C72.4386 22.1297 74.4763 25.0975 74.4763 28.407V65.6536C74.4763 68.8039 72.6274 71.661 69.7535 72.9515L45.2775 83.9425C43.193 84.8785 40.8077 84.8785 38.7232 83.9425L14.2473 72.9515C11.3734 71.661 9.52441 68.8039 9.52441 65.6536V28.407C9.52441 25.0975 11.5622 22.1297 14.6507 20.9409L39.1267 11.5201Z" fill="#1CB0F6"/>
<rect opacity="0.15" x="79.5" y="-16.6641" width="41.6667" height="147.649" transform="rotate(45 79.5 -16.6641)" fill="white"/>
</g>
</svg>
