<svg  viewBox="0 0 44 48" fill="none" xmlns="http://www.w3.org/2000/svg">
<g opacity="0.5">
<mask id="mask0_9161_9969" style="mask-type:alpha" maskUnits="userSpaceOnUse" x="0" y="0" width="44" height="48">
<path d="M0 11C0 6.58172 3.58172 3 8 3H36C40.4183 3 44 6.58172 44 11V28C44 39.0457 35.0457 48 24 48H20C8.9543 48 0 39.0457 0 28V11Z" fill="#ABC1D5"/>
<path d="M0 8C0 3.58172 3.58172 0 8 0H36C40.4183 0 44 3.58172 44 8V25C44 36.0457 35.0457 45 24 45H20C8.9543 45 0 36.0457 0 25V8Z" fill="#D6E4EF"/>
<path d="M5 7C5 5.89543 5.89543 5 7 5H37C38.1046 5 39 5.89543 39 7V25C39 33.8366 31.8366 41 23 41H21C12.1634 41 5 33.8366 5 25V7Z" fill="#C3D1DE"/>
</mask>
<g mask="url(#mask0_9161_9969)">
<path d="M0 11C0 6.58172 3.58172 3 8 3H36C40.4183 3 44 6.58172 44 11V28C44 39.0457 35.0457 48 24 48H20C8.9543 48 0 39.0457 0 28V11Z" fill="#ABC1D5"/>
<path d="M0 8C0 3.58172 3.58172 0 8 0H36C40.4183 0 44 3.58172 44 8V25C44 36.0457 35.0457 45 24 45H20C8.9543 45 0 36.0457 0 25V8Z" fill="#D6E4EF"/>
<path d="M5 7C5 5.89543 5.89543 5 7 5H37C38.1046 5 39 5.89543 39 7V25C39 33.8366 31.8366 41 23 41H21C12.1634 41 5 33.8366 5 25V7Z" fill="#C3D1DE"/>
<g filter="url(#filter0_i_9161_9969)">
<path d="M23.5556 23.1818C23.5556 22.7803 23.4036 22.4375 23.0998 22.1534C22.796 21.8693 22.4294 21.7273 22 21.7273C21.5706 21.7273 21.204 21.8693 20.9002 22.1534C20.5964 22.4375 20.4444 22.7803 20.4444 23.1818C20.4444 23.4621 20.5214 23.7159 20.6753 23.9432C20.8293 24.1705 21.0359 24.3485 21.2951 24.4773L20.4566 27.0795C20.4161 27.1932 20.4363 27.2992 20.5174 27.3977C20.5984 27.4962 20.7037 27.5455 20.8333 27.5455H23.1667C23.2963 27.5455 23.4016 27.4962 23.4826 27.3977C23.5637 27.2992 23.5839 27.1932 23.5434 27.0795L22.7049 24.4773C22.9641 24.3485 23.1707 24.1705 23.3247 23.9432C23.4786 23.7159 23.5556 23.4621 23.5556 23.1818ZM18.8889 20.2727H25.1111V18.0909C25.1111 17.2879 24.8073 16.6023 24.1997 16.0341C23.592 15.4659 22.8588 15.1818 22 15.1818C21.1412 15.1818 20.408 15.4659 19.8003 16.0341C19.1927 16.6023 18.8889 17.2879 18.8889 18.0909V20.2727ZM29 21.3636V27.9091C29 28.2121 28.8866 28.4697 28.6597 28.6818C28.4329 28.8939 28.1574 29 27.8333 29H16.1667C15.8426 29 15.5671 28.8939 15.3403 28.6818C15.1134 28.4697 15 28.2121 15 27.9091V21.3636C15 21.0606 15.1134 20.803 15.3403 20.5909C15.5671 20.3788 15.8426 20.2727 16.1667 20.2727H16.5556V18.0909C16.5556 16.697 17.0903 15.5 18.1597 14.5C19.2292 13.5 20.5093 13 22 13C23.4907 13 24.7708 13.5 25.8403 14.5C26.9097 15.5 27.4444 16.697 27.4444 18.0909V20.2727H27.8333C28.1574 20.2727 28.4329 20.3788 28.6597 20.5909C28.8866 20.803 29 21.0606 29 21.3636Z" fill="#ABC1D5"/>
</g>
<rect opacity="0.3" x="40" y="-8" width="20" height="70.8716" transform="rotate(45 40 -8)" fill="white"/>
</g>
</g>
<defs>
<filter id="filter0_i_9161_9969" x="15" y="13" width="14" height="17" filterUnits="userSpaceOnUse" color-interpolation-filters="sRGB">
<feFlood flood-opacity="0" result="BackgroundImageFix"/>
<feBlend mode="normal" in="SourceGraphic" in2="BackgroundImageFix" result="shape"/>
<feColorMatrix in="SourceAlpha" type="matrix" values="0 0 0 0 0 0 0 0 0 0 0 0 0 0 0 0 0 0 127 0" result="hardAlpha"/>
<feOffset dy="1"/>
<feGaussianBlur stdDeviation="4"/>
<feComposite in2="hardAlpha" operator="arithmetic" k2="-1" k3="1"/>
<feColorMatrix type="matrix" values="0 0 0 0 0 0 0 0 0 0 0 0 0 0 0 0 0 0 0.6 0"/>
<feBlend mode="normal" in2="shape" result="effect1_innerShadow_9161_9969"/>
</filter>
</defs>
</svg>
