<svg viewBox="0 0 15 16" fill="none" xmlns="http://www.w3.org/2000/svg">
<path d="M7.49968 15.9915C7.36045 16.0028 7.22047 16.0028 7.08124 15.9915C6.83907 15.9499 6.60425 15.8752 6.38383 15.7695C4.51109 15.0214 2.90846 13.7536 1.77746 12.1255C0.646471 10.4974 0.0376183 8.58167 0.0274717 6.61921V3.40503C-0.051587 2.7056 0.0405694 1.99796 0.296471 1.33946C0.535036 0.886705 0.915096 0.518501 1.38243 0.287377C2.06213 0.0394575 2.79255 -0.0498243 3.5145 0.0267684H11.4849C12.2036 -0.0501186 12.9308 0.0391942 13.607 0.287377C14.0743 0.518501 14.4544 0.886705 14.6929 1.33946C14.9574 1.99251 15.0532 2.69829 14.9719 3.39538V6.61921C14.9609 8.58276 14.3506 10.4993 13.2178 12.1275C12.0849 13.7558 10.4802 15.0229 8.60557 15.7695C8.38804 15.8737 8.15672 15.9484 7.91813 15.9915C7.77888 16.0025 7.63893 16.0025 7.49968 15.9915ZM3.5145 1.62903C3.0543 1.59158 2.5909 1.62086 2.13962 1.7159C1.98021 1.79332 1.8509 1.91859 1.77099 2.07303C1.67288 2.51024 1.64266 2.95918 1.68132 3.40503V6.61921C1.68932 8.27876 2.20587 9.89862 3.16547 11.2734C4.12507 12.6481 5.48447 13.7158 7.07128 14.3409C7.15772 14.3961 7.25707 14.4293 7.3602 14.4375H7.64913C7.7452 14.4255 7.83719 14.3925 7.91813 14.3409C9.50493 13.7158 10.8643 12.6481 11.8239 11.2734C12.7835 9.89862 13.3001 8.27876 13.3081 6.61921V3.39538C13.3463 2.95273 13.3161 2.50703 13.2184 2.07303C13.1283 1.9123 12.9842 1.78628 12.8099 1.7159C12.3621 1.62067 11.9019 1.59138 11.445 1.62903H3.5145Z" fill="#6A8098"/>
</svg>
