<svg  viewBox="0 0 16 16" fill="none" xmlns="http://www.w3.org/2000/svg">
<path fill-rule="evenodd" clip-rule="evenodd" d="M1.64952 7.2H4.01862C4.10115 5.43678 4.45438 3.82553 5.00621 2.58392C5.05442 2.47545 5.10451 2.36898 5.15649 2.26479C3.27588 3.199 1.91999 5.03096 1.64952 7.2ZM8 0C3.58172 0 0 3.58172 0 8C0 12.4183 3.58172 16 8 16C12.4183 16 16 12.4183 16 8C16 3.58172 12.4183 0 8 0ZM8 1.6C7.81848 1.6 7.58532 1.67944 7.30592 1.94533C7.02241 2.21514 6.73069 2.64337 6.46831 3.23374C6.01914 4.24437 5.70189 5.62678 5.62054 7.2H10.3795C10.2981 5.62678 9.98086 4.24437 9.53169 3.23374C9.26931 2.64337 8.97759 2.21514 8.69408 1.94533C8.41468 1.67944 8.18152 1.6 8 1.6ZM11.9814 7.2C11.8989 5.43678 11.5456 3.82553 10.9938 2.58392C10.9456 2.47545 10.8955 2.36898 10.8435 2.26479C12.7241 3.199 14.08 5.03096 14.3505 7.2H11.9814ZM10.3795 8.8H5.62054C5.70189 10.3732 6.01914 11.7556 6.46831 12.7663C6.73069 13.3566 7.02241 13.7849 7.30592 14.0547C7.58532 14.3206 7.81848 14.4 8 14.4C8.18152 14.4 8.41468 14.3206 8.69408 14.0547C8.97759 13.7849 9.26931 13.3566 9.53169 12.7663C9.98086 11.7556 10.2981 10.3732 10.3795 8.8ZM10.8435 13.7352C10.8955 13.631 10.9456 13.5246 10.9938 13.4161C11.5456 12.1745 11.8989 10.5632 11.9814 8.8H14.3505C14.08 10.969 12.7241 12.801 10.8435 13.7352ZM5.15649 13.7352C5.10451 13.631 5.05442 13.5246 5.00621 13.4161C4.45438 12.1745 4.10115 10.5632 4.01862 8.8H1.64952C1.91999 10.969 3.27588 12.801 5.15649 13.7352Z" fill="#6A8098"/>
</svg>
