<svg  viewBox="0 0 44 48" fill="none" xmlns="http://www.w3.org/2000/svg">
<mask id="mask0_9161_10272" style="mask-type:alpha" maskUnits="userSpaceOnUse" x="0" y="0" width="44" height="48">
<path d="M0 11C0 6.58172 3.58172 3 8 3H36C40.4183 3 44 6.58172 44 11V28C44 39.0457 35.0457 48 24 48H20C8.9543 48 0 39.0457 0 28V11Z" fill="#ABC1D5"/>
<path d="M0 8C0 3.58172 3.58172 0 8 0H36C40.4183 0 44 3.58172 44 8V25C44 36.0457 35.0457 45 24 45H20C8.9543 45 0 36.0457 0 25V8Z" fill="#D6E4EF"/>
<path d="M5 7C5 5.89543 5.89543 5 7 5H37C38.1046 5 39 5.89543 39 7V25C39 33.8366 31.8366 41 23 41H21C12.1634 41 5 33.8366 5 25V7Z" fill="#C3D1DE"/>
</mask>
<g mask="url(#mask0_9161_10272)">
<path d="M0 11C0 6.58172 3.58172 3 8 3H36C40.4183 3 44 6.58172 44 11V28C44 39.0457 35.0457 48 24 48H20C8.9543 48 0 39.0457 0 28V11Z" fill="#FFC000"/>
<path d="M0 8C0 3.58172 3.58172 0 8 0H36C40.4183 0 44 3.58172 44 8V25C44 36.0457 35.0457 45 24 45H20C8.9543 45 0 36.0457 0 25V8Z" fill="#FDE333"/>
<path d="M5 7C5 5.89543 5.89543 5 7 5H37C38.1046 5 39 5.89543 39 7V25C39 33.8366 31.8366 41 23 41H21C12.1634 41 5 33.8366 5 25V7Z" fill="#FEC701"/>
<rect opacity="0.3" x="40" y="-8" width="20" height="70.8716" transform="rotate(45 40 -8)" fill="white"/>
</g>
</svg>
