<svg width="372" height="390" viewBox="0 0 372 390" fill="none" xmlns="http://www.w3.org/2000/svg">
<path d="M358.397 0.84375H0.396973V166.033H358.397V0.84375Z" fill="url(#paint0_linear_2375_22002)"/>
<path opacity="0.05" d="M358.396 36.4414V63.283C353.538 63.5142 348.701 63.9624 343.915 64.6251C342.279 64.8532 340.704 65.0992 339.189 65.3632C314.541 69.7048 305.949 79.2201 321.021 84.8837C322.687 85.504 324.417 86.0246 326.194 86.4405C332.532 87.8661 339.071 88.7331 345.677 89.024L347.951 89.1381C351.191 89.2924 354.663 89.373 358.396 89.3863V107.504C355.46 103.928 350.152 101.525 343.225 99.9083C334.07 97.7744 322.095 97.0093 309.055 96.7342C307.757 96.7007 306.442 96.6806 305.117 96.6604C262.676 96.043 211.088 99.4989 208.242 77.7103C203.847 43.9839 316.993 57.2772 355.478 38.0654C356.507 37.5352 357.501 36.9984 358.396 36.4414Z" fill="white"/>
<path d="M205.593 60.4878C206.987 60.4878 208.117 59.6406 208.117 58.5955C208.117 57.5504 206.987 56.7031 205.593 56.7031C204.2 56.7031 203.069 57.5504 203.069 58.5955C203.069 59.6406 204.2 60.4878 205.593 60.4878Z" fill="white"/>
<path d="M124.854 80.8393C125.557 80.8393 126.125 80.4127 126.125 79.8864C126.125 79.3601 125.557 78.9336 124.854 78.9336C124.153 78.9336 123.583 79.3601 123.583 79.8864C123.583 80.4127 124.153 80.8393 124.854 80.8393Z" fill="white"/>
<path d="M148.806 61.1901C149.063 61.1901 149.271 61.0338 149.271 60.8411C149.271 60.6484 149.063 60.4922 148.806 60.4922C148.549 60.4922 148.34 60.6484 148.34 60.8411C148.34 61.0338 148.549 61.1901 148.806 61.1901Z" fill="white"/>
<path d="M245.93 65.5777C246.632 65.5777 247.201 65.151 247.201 64.6248C247.201 64.0985 246.632 63.6719 245.93 63.6719C245.229 63.6719 244.659 64.0985 244.659 64.6248C244.659 65.151 245.229 65.5777 245.93 65.5777Z" fill="white"/>
<path d="M322.758 69.4025C323.371 69.4025 323.868 69.0299 323.868 68.5704C323.868 68.1109 323.371 67.7383 322.758 67.7383C322.145 67.7383 321.648 68.1109 321.648 68.5704C321.648 69.0299 322.145 69.4025 322.758 69.4025Z" fill="white"/>
<path d="M333.007 56.6973C333.658 56.6973 334.188 56.3008 334.188 55.8116C334.188 55.3224 333.658 54.9258 333.007 54.9258C332.354 54.9258 331.825 55.3224 331.825 55.8116C331.825 56.3008 332.354 56.6973 333.007 56.6973Z" fill="white"/>
<path d="M40.0631 81.3493C40.9529 81.3493 41.6741 80.8085 41.6741 80.1414C41.6741 79.4744 40.9529 78.9336 40.0631 78.9336C39.1734 78.9336 38.4521 79.4744 38.4521 80.1414C38.4521 80.8085 39.1734 81.3493 40.0631 81.3493Z" fill="white"/>
<path d="M73.7329 98.5004C74.3013 98.5004 74.7621 98.155 74.7621 97.7288C74.7621 97.3026 74.3013 96.957 73.7329 96.957C73.1644 96.957 72.7036 97.3026 72.7036 97.7288C72.7036 98.155 73.1644 98.5004 73.7329 98.5004Z" fill="white"/>
<path d="M241.644 95.2647C242.662 95.2647 243.487 94.6458 243.487 93.8824C243.487 93.1189 242.662 92.5 241.644 92.5C240.625 92.5 239.8 93.1189 239.8 93.8824C239.8 94.6458 240.625 95.2647 241.644 95.2647Z" fill="white"/>
<path d="M273.076 93.8847C273.808 93.8847 274.401 93.44 274.401 92.8916C274.401 92.343 273.808 91.8984 273.076 91.8984C272.344 91.8984 271.751 92.343 271.751 92.8916C271.751 93.44 272.344 93.8847 273.076 93.8847Z" fill="white"/>
<path d="M191.559 85.0685C192.019 85.0685 192.392 84.7891 192.392 84.4444C192.392 84.0998 192.019 83.8203 191.559 83.8203C191.1 83.8203 190.728 84.0998 190.728 84.4444C190.728 84.7891 191.1 85.0685 191.559 85.0685Z" fill="white"/>
<path d="M292.418 105.713C293.115 105.713 293.68 105.289 293.68 104.766C293.68 104.244 293.115 103.82 292.418 103.82C291.721 103.82 291.156 104.244 291.156 104.766C291.156 105.289 291.721 105.713 292.418 105.713Z" fill="white"/>
<path d="M312.93 98.503C313.563 98.503 314.075 98.1185 314.075 97.644C314.075 97.1697 313.563 96.7852 312.93 96.7852C312.298 96.7852 311.784 97.1697 311.784 97.644C311.784 98.1185 312.298 98.503 312.93 98.503Z" fill="white"/>
<path d="M97.9342 59.1475C98.5669 59.1475 99.0798 58.763 99.0798 58.2886C99.0798 57.8142 98.5669 57.4297 97.9342 57.4297C97.3015 57.4297 96.7886 57.8142 96.7886 58.2886C96.7886 58.763 97.3015 59.1475 97.9342 59.1475Z" fill="white"/>
<path d="M25.8775 115.214C26.09 115.214 26.2624 115.085 26.2624 114.925C26.2624 114.766 26.09 114.637 25.8775 114.637C25.6649 114.637 25.4927 114.766 25.4927 114.925C25.4927 115.085 25.6649 115.214 25.8775 115.214Z" fill="white"/>
<path d="M161.847 131.239C162.188 131.239 162.464 131.031 162.464 130.776C162.464 130.52 162.188 130.312 161.847 130.312C161.505 130.312 161.229 130.52 161.229 130.776C161.229 131.031 161.505 131.239 161.847 131.239Z" fill="white"/>
<path d="M323.063 130.777C323.843 130.777 324.477 130.302 324.477 129.716C324.477 129.131 323.843 128.656 323.063 128.656C322.281 128.656 321.648 129.131 321.648 129.716C321.648 130.302 322.281 130.777 323.063 130.777Z" fill="white"/>
<path d="M358.397 24.9727V119.381H281.615C277.864 116.808 274.867 113.68 272.812 110.194C270.757 106.708 269.689 102.94 269.675 99.1292V99.0285C269.673 92.1163 273.122 85.4537 279.343 80.3528C285.565 75.2521 294.109 72.0827 303.292 71.469C303.363 71.167 303.435 70.865 303.524 70.5697C303.703 69.9591 303.91 69.3619 304.151 68.7713C304.276 68.4627 304.411 68.1607 304.554 67.8587C304.626 67.7111 304.688 67.5702 304.769 67.4292C304.885 67.1877 305.019 66.9462 305.145 66.7112C305.27 66.4764 305.404 66.2684 305.538 66.0402C305.672 65.8121 305.815 65.6041 305.959 65.3692C306.001 65.2957 306.049 65.224 306.102 65.1545C306.156 65.0807 306.209 65.0136 306.254 64.9398C306.38 64.7518 306.523 64.564 306.666 64.376C306.809 64.1882 306.907 64.0607 307.033 63.9063C307.563 63.2404 308.142 62.5974 308.769 61.9805C308.975 61.7724 309.19 61.5711 309.405 61.3698L309.942 60.8934C310.121 60.7323 310.3 60.578 310.497 60.4237C310.694 60.2693 311.06 59.9673 311.392 59.7526C311.722 59.5379 311.821 59.4305 312.036 59.2829C312.036 59.2829 312.251 59.1218 312.367 59.048C312.806 58.7326 313.262 58.4374 313.745 58.1555C314.041 57.9744 314.345 57.7999 314.64 57.6321C314.936 57.4644 315.24 57.3033 315.535 57.1423C315.678 57.0685 315.821 56.9879 315.974 56.9208L316.404 56.7128C317.048 56.3974 317.719 56.1022 318.409 55.8338C318.775 55.6794 319.16 55.5385 319.545 55.4043C319.93 55.2701 320.252 55.156 320.61 55.0419L320.95 54.9345H321.03L321.764 54.7198C321.87 54.6856 321.977 54.6565 322.087 54.6326C322.687 54.4581 323.304 54.3105 323.93 54.1763C324.199 54.1159 324.467 54.0555 324.745 54.0085C325.38 53.881 326.034 53.767 326.687 53.6797C326.829 53.653 326.972 53.6329 327.116 53.6193C327.367 53.6193 327.618 53.5522 327.868 53.5321L328.298 53.4851C328.683 53.4448 329.077 53.418 329.471 53.3912C329.865 53.3643 330.276 53.3375 330.678 53.3241C331.082 53.3106 331.663 53.3241 332.156 53.3241C333.698 53.3244 335.24 53.4141 336.764 53.5925C335.71 51.3021 335.175 48.8956 335.181 46.4728C335.181 46.1708 335.181 45.8755 335.181 45.5803C335.181 45.285 335.181 44.9898 335.252 44.6945C335.324 44.3993 335.306 44.2114 335.35 43.9765C335.396 43.7416 335.396 43.6812 335.422 43.5403C335.485 43.1645 335.565 42.7887 335.664 42.4197C335.664 42.2788 335.726 42.1311 335.772 41.9902C335.816 41.8493 335.897 41.5473 335.968 41.3192C336.04 41.091 336.048 41.0843 336.084 40.9769C336.125 40.8364 336.177 40.6976 336.237 40.5609C336.237 40.4267 336.335 40.2925 336.398 40.1515C336.443 39.9989 336.503 39.8486 336.577 39.7019C336.588 39.6675 336.602 39.6338 336.621 39.6013C336.618 39.5745 336.618 39.5476 336.621 39.5208C336.729 39.2792 336.836 39.0376 336.961 38.8028C337.212 38.2928 337.49 37.7962 337.794 37.3064C337.928 37.0916 338.063 36.8836 338.206 36.6353L338.546 36.1455C338.587 36.0727 338.639 36.0031 338.698 35.9375C338.823 35.7562 338.966 35.575 339.101 35.4006C339.306 35.1188 339.539 34.8437 339.781 34.5753C340.022 34.3069 340.255 34.0317 340.506 33.77L340.881 33.3808C341.078 33.1795 341.285 32.9849 341.49 32.7903C341.696 32.5956 341.938 32.3676 342.18 32.1662C342.564 31.8239 342.967 31.4952 343.379 31.1797L343.71 30.9315C343.816 30.8436 343.93 30.7608 344.05 30.6832C344.229 30.549 344.399 30.4283 344.587 30.3007C344.721 30.2015 344.862 30.1073 345.008 30.0189C345.124 29.9383 345.231 29.8645 345.348 29.7974L346.01 29.3814C346.297 29.207 346.592 29.0325 346.905 28.8714C347.218 28.7104 347.532 28.5292 347.8 28.3682C348.069 28.2071 348.337 28.0997 348.606 27.9655L348.883 27.838C349.301 27.6367 349.73 27.4489 350.172 27.2744C350.422 27.167 350.682 27.0663 350.941 26.9657C351.051 26.9179 351.165 26.8752 351.281 26.8382L351.8 26.6436C352.427 26.4221 353.063 26.2141 353.707 26.0262C354.056 25.9188 354.414 25.8249 354.772 25.731C355.452 25.5498 356.132 25.3954 356.84 25.2545C357.431 25.1338 357.914 25.0465 358.397 24.9727Z" fill="#134D30"/>
<path d="M50.5886 117.979C50.5933 121.596 49.3751 125.155 47.0477 128.323C44.7203 131.492 41.3598 134.166 37.2799 136.096C35.6437 136.878 33.9041 137.53 32.0889 138.043C31.1401 138.307 30.1719 138.531 29.1891 138.714C27.4738 139.046 25.7211 139.26 23.9534 139.351C23.3179 139.385 22.6735 139.398 22.0202 139.398L18.1985 139.203L0.396973 138.318V78.7227L0.701273 78.8502C4.97022 80.7449 8.50756 83.4404 10.9651 86.6714C13.4227 89.9024 14.7157 93.5574 14.717 97.277C17.0931 96.8008 19.5427 96.5617 22.0023 96.5656C27.9704 96.5764 33.7858 97.9814 38.6397 100.585C43.4935 103.189 47.1445 106.862 49.085 111.094C50.0846 113.312 50.5926 115.637 50.5886 117.979Z" fill="#134D30"/>
<path d="M358.397 62.5508V119.381H301.117C299.254 116.826 298.082 114.021 297.667 111.127C297.254 108.232 297.604 105.304 298.7 102.511C299.853 99.6081 301.79 96.9136 304.389 94.595C306.989 92.2765 310.196 90.3833 313.813 89.0329C317.429 87.6826 321.376 86.9039 325.411 86.7453C329.446 86.5866 333.481 87.0514 337.265 88.1106C336.901 86.7226 336.718 85.3113 336.72 83.8965C336.701 78.8264 339.008 73.9056 343.253 69.9591C347.12 66.3434 352.426 63.7479 358.397 62.5508Z" fill="#10402C"/>
<path d="M26.352 130.452C26.3708 132.349 26.0701 134.241 25.457 136.082C25.0665 137.189 24.5639 138.273 23.9534 139.323C23.3179 139.357 22.6735 139.37 22.0202 139.37L18.1985 139.176L0.396973 138.317V107.898C4.67895 108.372 8.77639 109.527 12.4146 111.285C16.0528 113.043 19.1479 115.363 21.4921 118.092C24.671 121.773 26.359 126.066 26.352 130.452Z" fill="#10402C"/>
<path d="M358.397 114.698V389.71H0.396973V124.811L2.28542 124.14C3.18042 123.824 4.07542 123.523 4.97042 123.221L6.57246 122.684C8.88156 121.914 11.2235 121.163 13.5982 120.429C14.717 120.08 15.8357 119.758 16.9634 119.402C18.0911 119.047 19.0756 118.772 20.1407 118.47C20.5792 118.335 21.0357 118.208 21.4653 118.087C22.1365 117.886 22.8167 117.698 23.4969 117.51C23.5743 117.482 23.6553 117.459 23.7386 117.443C23.7455 117.44 23.7532 117.439 23.7609 117.439C23.7687 117.439 23.7763 117.44 23.7833 117.443L25.5733 116.933C27.5423 116.383 29.5292 115.846 31.534 115.322L33.2524 114.88L35.9374 114.209L37.0741 113.927C39.3772 113.35 41.6952 112.79 44.0282 112.249L44.8427 112.054L45.7824 111.84L48.0199 111.336L48.548 111.216L48.9955 111.115L49.8905 110.927C51.5641 110.558 53.2557 110.196 54.9472 109.84L56.8893 109.438C57.8469 109.236 58.8046 109.041 59.7712 108.854L60.4245 108.719L61.4806 108.511L64.3267 107.961L67.9067 107.29L71.075 106.713C72.6502 106.422 74.2254 106.145 75.8006 105.881H75.8812C77.4743 105.606 79.0674 105.344 80.6605 105.082C81.0632 105.015 81.4749 104.955 81.8777 104.881C85.953 104.232 90.0461 103.615 94.1571 103.029L97.3075 102.593L98.2025 102.479C99.6434 102.284 101.084 102.09 102.525 101.908L104.056 101.714C105.971 101.472 107.893 101.249 109.82 101.043L112.155 100.774L115.601 100.385L117.391 100.191L118.555 100.07L119.727 99.9489L120.273 99.8953C121.642 99.7543 123.02 99.6135 124.399 99.4859C125.777 99.3584 127.344 99.2041 128.812 99.0699C166.681 95.6522 204.902 94.9915 242.942 97.097H243.094L244.078 97.1507C244.41 97.1507 244.74 97.191 245.063 97.2112C247.02 97.323 248.977 97.4482 250.934 97.5869C252.322 97.6742 253.7 97.7681 255.069 97.8822C256.17 97.956 257.262 98.0432 258.362 98.1305L261.191 98.3519C264.019 98.5867 266.821 98.835 269.621 99.1034C270.857 99.2198 272.092 99.3405 273.327 99.4658L276.388 99.7812C277.927 99.9356 279.458 100.103 280.997 100.278L283.458 100.56C284.953 100.727 286.439 100.902 287.933 101.09L291.513 101.546L294.377 101.915L297.062 102.284L298.619 102.506L298.879 102.539L302.459 103.063L303.256 103.183L305.941 103.593C309.037 104.076 312.098 104.577 315.123 105.096L318.05 105.612C319.548 105.872 321.04 106.143 322.525 106.425C323.679 106.639 324.817 106.854 325.953 107.096C328.638 107.619 331.323 108.162 333.963 108.726L337.812 109.531L341.392 110.35L341.607 110.404L344.578 111.075C344.918 111.155 345.267 111.236 345.616 111.33C346.627 111.571 347.648 111.82 348.65 112.075C349.831 112.377 351.004 112.672 352.158 112.981H352.204C353.278 113.256 354.334 113.537 355.39 113.833C356.446 114.128 357.412 114.417 358.397 114.698Z" fill="#22665B"/>
<path d="M307.499 267.495C299.237 283.305 322.096 293.492 358.397 303.423V373.211C313.531 373.567 301.171 352.2 258.292 344.752C203.697 335.264 106.142 337.928 125.706 299.645C138.487 274.675 188.849 268.912 228.023 262.128C229.088 261.953 230.135 261.764 231.191 261.583C232.086 261.416 232.981 261.261 233.822 261.107L236.83 260.537C238.208 260.282 239.568 260.02 240.902 259.745C242.478 259.423 244.035 259.074 245.538 258.766C258.471 255.913 268.727 252.464 273.766 247.358C295.524 225.22 287.119 168.363 358.397 174.422V244.143C343.496 247.163 314.22 254.632 307.499 267.495Z" fill="#1C544F"/>
<path d="M70.2069 136.084C62.0445 138.808 54.4728 142.123 48.5926 146.679C47.6738 147.382 46.7967 148.12 45.9613 148.894C44.449 150.293 43.0359 151.751 41.7281 153.262C19.4784 178.916 38.2465 207.099 0.396973 209.945V124.81L2.28542 124.139C3.18042 123.824 4.07542 123.522 4.97042 123.22L6.57246 122.683C8.88156 121.914 11.2235 121.162 13.5982 120.428C14.717 120.079 15.8357 119.757 16.9634 119.402C18.0911 119.046 19.0756 118.771 20.1407 118.469C20.5792 118.335 21.0357 118.207 21.4653 118.086C22.1365 117.885 22.8167 117.697 23.4969 117.509C23.5743 117.481 23.6553 117.459 23.7386 117.442C23.7455 117.44 23.7532 117.439 23.7609 117.439C23.7687 117.439 23.7763 117.44 23.7833 117.442L25.5733 116.932C27.5423 116.382 29.5292 115.845 31.534 115.322L33.2524 114.879L35.9374 114.208L37.0741 113.926C39.3772 113.349 41.6952 112.79 44.0282 112.248L45.8181 111.839L48.0556 111.336L48.5837 111.215L49.058 111.114L49.953 110.92C51.6267 110.551 53.3182 110.188 55.0098 109.833L56.9519 109.43C57.9096 109.229 58.8672 109.034 59.8338 108.846L60.4872 108.712L61.5433 108.504L64.3894 107.954L67.9694 107.283L71.1377 106.706C72.7129 106.415 74.2881 106.138 75.8633 105.874H75.9438C77.5369 105.598 79.13 105.337 80.7231 105.075C81.1259 105.008 81.5376 104.947 81.9403 104.874C86.0155 104.225 90.1087 103.608 94.2197 103.022L98.2383 102.471C99.6792 102.277 101.12 102.082 102.561 101.901L104.092 101.706C106.007 101.465 107.929 101.241 109.855 101.035L112.191 100.767L115.637 100.378L118.573 100.062L119.745 99.9416L120.291 99.8879C121.66 99.7469 123.038 99.606 124.417 99.4785C125.795 99.351 127.362 99.1968 128.829 99.0625C140.912 124.173 101.272 125.716 70.2069 136.084Z" fill="#1C544F"/>
<path d="M358.397 114.659V133.495C339.181 124.201 307.193 122.758 281.741 119.403H281.588C258.131 116.256 240.257 111.418 243.103 97.1445L244.087 97.205C244.419 97.205 244.75 97.2452 245.072 97.2654C247.029 97.3772 248.986 97.5024 250.943 97.6411C252.331 97.7284 253.709 97.8223 255.078 97.9363C256.179 98.0103 257.271 98.0974 258.372 98.1846L261.2 98.4062C264.028 98.6342 266.838 98.8803 269.631 99.1443C279.529 100.077 289.231 101.204 298.655 102.54C318.995 105.29 338.983 109.345 358.397 114.659Z" fill="#1C544F"/>
<path d="M149.504 236.168C189.206 237.087 249.297 230.444 239.174 194.45C230.439 163.374 196.482 133.761 100.852 178.09C60.1382 196.96 42.5605 233.685 149.504 236.168Z" fill="#267366"/>
<path d="M50.311 146.391C49.2377 147.477 48.0716 148.51 46.8205 149.484C45.6302 150.423 44.4309 151.336 43.2405 152.229C42.0502 153.121 40.7614 153.98 39.4457 154.839C38.0891 155.731 36.6571 156.555 35.1587 157.308C35.5386 155.935 36.2613 154.628 37.2888 153.457C38.2359 152.297 39.3725 151.231 40.6719 150.283C41.9831 149.322 43.4541 148.492 45.0484 147.813C46.6713 147.101 48.4552 146.619 50.311 146.391Z" fill="#174747"/>
<path d="M41.0833 142.68C40.242 144.022 39.2933 145.189 38.3983 146.377C37.5033 147.565 36.6711 148.686 35.8298 149.826C34.9885 150.967 34.2098 152.141 33.4043 153.329L30.8983 157.06C30.3755 155.631 30.3112 154.129 30.7104 152.678C31.4315 149.77 33.3502 147.104 36.1967 145.055C37.5945 144.024 39.257 143.216 41.0833 142.68Z" fill="#174747"/>
<path d="M32.8945 133.527C32.617 135.608 32.1874 137.594 31.7578 139.567L30.4153 145.445C29.9499 147.391 29.5203 149.337 29.1086 151.303C28.6969 153.269 28.33 155.242 27.7572 157.302C26.8442 155.33 26.346 153.263 26.2804 151.176C26.1825 149.101 26.3775 147.025 26.8622 144.982C27.3311 142.944 28.0563 140.945 29.0281 139.01C29.9792 137.059 31.28 135.215 32.8945 133.527Z" fill="#174747"/>
<path d="M15.8364 142.68C17.5421 143.321 19.0368 144.237 20.213 145.364C21.3988 146.467 22.3442 147.703 23.0143 149.028C23.698 150.337 24.1261 151.713 24.2852 153.114C24.4624 154.529 24.2523 155.956 23.6677 157.308C22.7727 156.02 22.1372 154.799 21.4928 153.584L19.6312 150.001C19.0316 148.813 18.4051 147.639 17.7607 146.444C17.1163 145.25 16.445 144.069 15.8364 142.68Z" fill="#174747"/>
<path d="M220.665 101.289C222.238 102.169 223.556 103.278 224.541 104.55C225.543 105.812 226.274 107.184 226.707 108.617C227.156 110.045 227.295 111.518 227.119 112.979C226.989 114.459 226.397 115.895 225.391 117.173L224.29 113.079C223.932 111.771 223.601 110.489 223.189 109.214C222.777 107.939 222.411 106.671 221.936 105.376C221.462 104.081 220.997 102.772 220.665 101.289Z" fill="#174747"/>
<path d="M239.8 100.363C238.861 101.86 237.948 103.235 237.062 104.611C236.176 105.987 235.272 107.295 234.475 108.684C233.679 110.073 232.82 111.409 232.05 112.811C231.281 114.214 230.493 115.643 229.455 117.126C229.007 115.515 228.962 113.857 229.32 112.234C229.641 110.609 230.274 109.026 231.199 107.537C232.105 106.044 233.285 104.655 234.708 103.41C236.111 102.145 237.844 101.108 239.8 100.363Z" fill="#174747"/>
<path d="M198.764 173.793C198.066 175.135 197.269 176.182 196.669 177.322C196.311 177.866 196.07 178.443 195.774 178.98C195.479 179.517 195.202 180.087 194.978 180.657C194.459 181.778 193.976 182.912 193.519 184.093C193.063 185.274 192.624 186.489 192.033 187.817C191.165 186.591 190.708 185.226 190.7 183.838C190.675 182.453 190.978 181.077 191.595 179.772C191.905 179.118 192.282 178.483 192.723 177.873C193.191 177.271 193.734 176.702 194.342 176.175C195.528 175.117 197.048 174.298 198.764 173.793Z" fill="#174747"/>
<path d="M184.4 187.037C184.095 185.333 183.836 183.756 183.505 182.2C183.174 180.642 182.807 179.126 182.341 177.63C182.25 177.253 182.131 176.881 181.983 176.516L181.599 175.394C181.285 174.67 181.044 173.912 180.704 173.18C180.113 171.67 179.262 170.228 178.574 168.57C180.474 169.535 182.074 170.796 183.264 172.267C183.884 172.994 184.416 173.759 184.857 174.556C185.28 175.359 185.621 176.184 185.877 177.025C186.401 178.702 186.559 180.431 186.342 182.146C186.171 183.862 185.508 185.53 184.4 187.037Z" fill="#174747"/>
<path d="M171.163 175.105C172.901 175.22 174.576 175.658 176.032 176.381C177.507 177.077 178.78 177.989 179.773 179.065C180.785 180.135 181.503 181.347 181.885 182.628C182.306 183.904 182.259 185.242 181.75 186.499L179.244 183.399C178.448 182.433 177.661 181.507 176.819 180.614C175.978 179.723 175.127 178.83 174.134 177.931C173.141 177.031 172.237 176.233 171.163 175.105Z" fill="#174747"/>
<path d="M347.335 201.673C346.977 199.701 346.682 197.869 346.306 196.064C345.93 194.258 345.5 192.5 344.963 190.762C344.838 190.326 344.721 189.889 344.542 189.467L344.095 188.172C343.728 187.327 343.45 186.447 343.039 185.596C342.341 183.843 341.366 182.172 340.56 180.227C342.761 181.35 344.619 182.813 346.01 184.515C346.724 185.369 347.341 186.267 347.854 187.199C348.347 188.129 348.742 189.087 349.035 190.064C349.65 192.008 349.834 194.015 349.582 196.003C349.386 197.992 348.619 199.926 347.335 201.673Z" fill="#174747"/>
<path d="M331.976 187.832C333.992 187.964 335.933 188.468 337.624 189.302C341.059 190.97 343.493 193.577 344.408 196.569C344.908 198.05 344.855 199.605 344.255 201.064L341.391 197.469C340.496 196.347 339.557 195.274 338.581 194.234C337.606 193.194 336.621 192.16 335.493 191.154C334.366 190.147 333.166 189.1 331.976 187.832Z" fill="#174747"/>
<path d="M340.497 54.1435C344.721 55.9418 349.268 60.3841 349.268 60.3841C349.268 60.3841 331.609 52.6873 319.733 58.2435C307.856 63.7997 306.978 71.4093 306.978 71.4093C312.788 71.4093 316.662 76.3548 316.662 76.3548C297.42 72.1944 283.7 77.2742 271.707 89.7756C274.073 84.78 278.298 80.3973 283.883 77.1459C289.468 73.8946 296.178 71.9109 303.219 71.4294C304.409 66.33 307.961 61.709 313.25 58.3809C318.538 55.0528 325.224 53.2313 332.128 53.2376C333.672 53.2378 335.213 53.3276 336.738 53.506C334.222 48.0181 334.716 42.0062 338.109 36.7909C341.502 31.5756 347.518 27.5834 354.835 25.6914C332.442 38.6224 340.497 54.1435 340.497 54.1435Z" fill="#1C7348"/>
<path d="M47.832 108.772C31.722 92.4186 10.3225 100.283 3.82482 105.148C3.82482 105.148 3.48472 102.249 11.2354 97.4581C11.2354 97.4581 11.9604 86.4598 0.396973 82.2188V78.7227L0.701273 78.8502C4.97022 80.7449 8.50756 83.4404 10.9651 86.6714C13.4227 89.9024 14.7157 93.5574 14.717 97.277C17.0931 96.8008 19.5427 96.5617 22.0023 96.5656C27.4069 96.5593 32.703 97.7029 37.2753 99.8635C41.8475 102.024 45.5081 105.113 47.832 108.772Z" fill="#1C7348"/>
<path opacity="0.2" d="M210.077 210.298C226.024 216.497 241.472 230.091 286.916 226.992C332.36 223.892 313.633 219.104 347.705 206.405C374.679 196.353 358.559 172.396 273.847 175.568C152.232 180.083 190.443 202.663 210.077 210.298Z" fill="#FBCC40"/>
<path d="M205.026 193.723L186.767 136.797C186.767 136.797 217.582 112.18 276.176 112.18C334.77 112.18 370.521 132.464 370.521 132.464L352.332 194.085C352.332 194.085 341.299 205.17 280.147 205.17C218.993 205.17 205.026 193.723 205.026 193.723Z" fill="url(#paint1_linear_2375_22002)"/>
<path d="M278.767 181.348C238.042 181.348 205.026 186.684 205.026 193.264C205.026 199.844 238.042 205.169 278.767 205.169C319.492 205.169 352.507 199.833 352.507 193.259C352.507 186.684 319.492 181.348 278.767 181.348ZM278.767 198.992C251.691 198.992 229.743 195.809 229.743 191.884C229.743 187.959 251.691 184.787 278.767 184.787C305.843 184.787 327.785 187.97 327.785 191.899C327.785 195.83 305.838 198.992 278.767 198.992Z" fill="#FFCD33"/>
<path d="M278.766 182.398C242.273 182.398 212.689 187.102 212.689 192.935C212.689 198.767 242.273 203.467 278.766 203.467C315.26 203.467 344.845 198.762 344.845 192.935C344.845 187.107 315.255 182.398 278.766 182.398ZM277.644 200.617C246.541 200.617 221.321 196.824 221.321 192.151C221.321 187.479 246.541 183.684 277.644 183.684C308.746 183.684 333.96 187.479 333.96 192.151C333.96 196.824 308.741 200.617 277.644 200.617Z" fill="white"/>
<path d="M336.832 156.896L320.567 139.543L323.42 135.838L332.072 134.285L340.701 117.868L335.428 103.498L336.466 92.9365L331.056 78.6126L322.661 74.5417L331.387 56.9844L315.915 71.0407L309.54 67.3711L293.418 71.9247L281.763 71.8432L276.912 75.1407L270.115 57.8335L271.063 79.1244L264.813 83.3698L264.054 91.4941L254.358 101.305L232.659 78.8918L248.77 106.958L241.585 114.233L215.423 108.295L233.72 117.973L230.45 124.975L224.806 133.704L233.19 155.762L233.834 163.753L239.941 175.495L249.734 177.431L256.903 182.427L264.55 180.77L285.399 183.444L297.533 176.495L302.737 170.249L302.184 163.415L314.5 147.429L336.832 156.896Z" fill="#FFCD33"/>
<path d="M329.977 152.512L316.142 139.537L321.497 132.675L328.27 131.558L335.981 116.624L332.46 103.196L333.424 94.5305L328.237 83.9228L326.536 85.0976L326.85 83.225L319.898 77.5664L325.228 65.6211L316.114 75.1703L316.017 74.0247L305.151 72.5243L298.148 74.9493L296.436 74.8214L291.922 76.8337L291.613 76.5254L287.812 74.804L284.183 75.1064L276.415 79.9973L272.968 69.0465L273.316 81.9456L268.562 84.9348L269.116 91.7913L255.664 105.51L241.51 90.1804L252.263 108.982L244.363 117.043L231.893 114.042L240.066 119.735L236.425 122.079L236.265 126.255L236.311 126.377L232.481 126.697L229.936 133.065L236.242 153.024L236.591 157.38L239.182 158.595L239.222 160.259L238.109 163.394L241.151 168.866L247.926 172.035L252.308 176.763L260.516 178.019L262.387 176.106L264.157 176.176L265.263 178.689L270.92 177.316L285.672 179.863L288.623 177.827L297.88 169.052L297.44 163.55L313.181 143.347L329.977 152.512Z" fill="white"/>
<path d="M271.771 92.883L271.245 86.3113L294.942 85.8984L320.048 108.155L321.468 115.267L328.221 117.477L325.229 123.828L326.599 129.19L320.116 130.254L322.274 127.375L321.338 123.194L323.757 117.157L317.987 115.349L314.763 108.259L293.623 90.7022L274.442 90.0449L271.771 92.883Z" fill="#649BA6"/>
<path d="M271.245 86.3122L284.994 77.647L287.379 77.4492L290.456 80.328L296.888 77.4667L304.211 78.0192L328.575 98.49L333.249 116.315L326.599 129.191L325.229 123.829L328.221 117.478L321.468 115.268L320.048 108.156L294.942 85.8993L271.245 86.3122Z" fill="#CADCE6"/>
<path d="M298.48 77.5875L305.414 75.1914L313.644 76.3196L313.769 77.9189L315.351 79.2333L317.622 79.0472L324.071 84.2987L323.689 86.6016L326.389 88.3463L327.255 87.7531L330.799 94.9935L329.858 103.391L328.575 98.4888L304.211 78.0178L298.48 77.5875Z" fill="#EEA064"/>
<path d="M243.2 121.916L271.77 92.8849L274.441 90.0469L293.622 90.704L314.762 108.261L317.986 115.351L323.757 117.159L321.337 123.196L322.273 127.377L320.115 130.256L294.81 162.736L289.679 144.307L282.694 137.357L275.794 136.537L275.309 130.547L263.905 123.149L243.2 121.916Z" fill="#FFCD33"/>
<path d="M294.942 85.8993L304.211 78.0192L296.888 77.4667L290.456 80.328L287.379 77.4492L284.994 77.647L271.245 86.3122L294.942 85.8993Z" fill="#B8CDD9"/>
<path d="M328.574 98.4922L320.047 108.158L321.468 115.27L328.22 117.48L325.229 123.831L326.599 129.193L333.248 116.317L328.574 98.4922Z" fill="#A3BECC"/>
<path d="M296.248 84.7889L304.209 78.0195L324.264 94.8731L304.375 80.0957L296.248 84.7889Z" fill="#E6F6FF"/>
<path d="M326.519 100.813L320.048 108.158L304.176 94.0898L320.018 106.25L326.519 100.813Z" fill="#E6F6FF"/>
<path d="M309.626 85.8008L310.516 92.9773L314.984 100.886L312.263 92.89L309.626 85.8008Z" fill="#7D9CB3"/>
<path d="M309.626 85.8008L310.516 92.9773L314.984 100.886L309.791 93.1866L309.626 85.8008Z" fill="#E6F6FF"/>
<path d="M328.22 117.476L332.186 112.242L333.248 116.313L326.599 129.189L325.229 123.827L328.22 117.476Z" fill="#8FADBF"/>
<path d="M321.338 123.197L325.23 123.831L328.22 117.48L323.758 117.16L321.338 123.197Z" fill="#7DA6B3"/>
<path d="M317.987 115.351L321.468 115.27L328.221 117.479L323.757 117.16L317.987 115.351Z" fill="#5B808C"/>
<path d="M287.779 142.423L314.762 108.262L317.987 115.351L323.757 117.16L321.338 123.196L322.273 127.378L294.81 162.736L289.68 144.307L287.779 142.423Z" fill="#ED9B2F"/>
<path d="M264.482 123.533L293.622 90.704L274.441 90.0469L243.2 121.916L263.905 123.149L264.482 123.533Z" fill="#F7AE31"/>
<path d="M312.023 111.727L316.195 123.986L315.094 130.674L309.859 136.873L305.305 143.584L296.682 146.742L294.798 155.169L292.864 155.751L289.68 144.306L287.779 142.421L312.023 111.727Z" fill="#FFCD33"/>
<path d="M287.778 142.419L282.694 137.354L275.794 136.534L275.308 130.544L271.821 128.287L264.482 123.53L289.941 94.8477L296.362 97.203L296.721 101.669L302.434 103.699L307.902 107.962L312.022 111.725L287.778 142.419Z" fill="#FFE14D"/>
<path d="M289.941 94.8477L280.65 96.0515L276.997 99.4885L270.679 100.541L264.128 105.13L257.753 115.016L249.626 118.046L247.742 122.187L263.905 123.146L264.482 123.53L289.941 94.8477Z" fill="#FFCD33"/>
<path d="M283.692 101.895L290.889 106.646L301.692 109.35L306.869 118.248L287.778 142.423L282.694 137.358L275.794 136.538L275.308 130.548L264.482 123.534L283.692 101.895Z" fill="#FFF266"/>
<path d="M283.693 101.895L278.784 103.348L271.759 104.5L267.901 110.606L262.353 114.811L259.94 118.841L253.941 122.557L263.906 123.15L264.482 123.534L283.693 101.895Z" fill="#FFE14D"/>
<path d="M306.869 118.246L309.506 125.748L308.051 132.919L302.487 136.164L300.854 142.044L295.991 142.451L291.306 150.133L289.68 144.306L287.779 142.422L306.869 118.246Z" fill="#FFE14D"/>
<path d="M293.338 157.473L294.987 159.299L313.992 136.188L320.789 126.988L319.962 122.987L322.433 117.735L317.051 116.561L313.866 109.384L314.762 108.262L317.987 115.351L323.757 117.16L321.337 123.196L322.273 127.378L320.116 130.256L294.81 162.736L293.338 157.473Z" fill="#D9762A"/>
<path d="M247.743 122.19L245.523 121.085L259.477 106.406L268.717 98.0957L274.646 91.1635L292.75 91.6868L293.622 90.704L274.441 90.0469L243.2 121.916L247.743 122.19Z" fill="#D9762A"/>
<path d="M292.749 91.6859L313.866 109.383L314.762 108.26L293.623 90.7031L292.749 91.6859Z" fill="#EB8C2D"/>
<path d="M316.377 88.2405L319.311 83.8672L318.677 90.1829L316.377 88.2405Z" fill="#CC7347"/>
<path d="M323.689 86.6016L322.616 93.4872L325.538 95.9414L326.387 88.3462L323.689 86.6016Z" fill="#CC7347"/>
<path d="M315.351 79.2362L307.771 81.0099L305.608 79.1896L313.769 77.9219L315.351 79.2362Z" fill="#CC7347"/>
<path d="M298.48 77.5875L305.414 75.1914L313.644 76.3196L305.1 76.372L301.122 77.7852L298.48 77.5875Z" fill="#FFC787"/>
<path d="M310.207 80.4408L315.35 79.2369L317.621 79.0508L324.07 84.3023L317.375 80.2082L315.446 80.3652L310.207 80.4408Z" fill="#FFC787"/>
<path d="M327.255 87.7539L327.101 93.9941L327.758 91.0049L330.8 94.9944L327.255 87.7539Z" fill="#FFC787"/>
<path d="M327.255 87.7539L327.102 93.9941L326.703 96.9193L325.538 95.9423L326.389 88.3471L327.255 87.7539Z" fill="#D98757"/>
<path d="M319.311 83.8672L318.677 90.1829L317.861 89.5374L318.625 84.8849L319.311 83.8672Z" fill="#D98757"/>
<path d="M313.644 76.3242L304.512 78.2725L305.608 79.1913L313.769 77.9235L313.644 76.3242Z" fill="#D98757"/>
<path opacity="0.4" d="M275.046 95.4064L258.101 114.016C258.101 114.016 265.88 113.644 266.326 113.33C266.77 113.016 283.937 94.6445 283.937 94.6445L275.046 95.4064Z" fill="white"/>
<path d="M272.181 103.591C271.639 102.62 271.182 101.847 270.823 101.114L271.394 101.387C270.594 101.754 269.778 102.085 268.962 102.382L269.31 101.678C269.614 102.64 269.873 103.609 270.086 104.586L269.481 104.312C270.252 104.08 271.108 103.882 272.181 103.591ZM272.181 103.591C271.43 104.164 270.643 104.684 269.824 105.15L269.425 105.377L269.218 104.877C268.842 103.934 268.517 102.987 268.208 102.015L268.048 101.486L268.551 101.312C269.378 101.021 270.217 100.765 271.073 100.544L271.524 100.422L271.627 100.806C271.871 101.721 272.056 102.652 272.181 103.591Z" fill="white"/>
<path d="M300.106 140.521L299.033 138.445L298.542 137.526C298.383 137.217 298.257 136.903 298.115 136.595L298.771 136.915C297.504 137.497 296.22 137.979 294.918 138.456L295.335 137.625C295.581 138.398 295.797 139.177 296.014 139.91C296.231 140.643 296.425 141.463 296.585 142.236L295.872 141.905C296.5 141.672 297.156 141.469 297.841 141.254L300.106 140.521ZM300.106 140.521C299.582 140.881 298.965 141.271 298.349 141.684C297.733 142.097 297.03 142.481 296.328 142.847L295.849 143.091L295.615 142.51C295.318 141.736 295.045 141.021 294.799 140.259C294.554 139.497 294.302 138.759 294.08 137.997L293.885 137.357L294.496 137.142C295.797 136.682 297.11 136.264 298.446 135.897L298.983 135.746L299.108 136.206C299.216 136.595 299.33 136.985 299.422 137.369L299.695 138.491C299.844 139.201 300.004 139.904 300.106 140.521Z" fill="white"/>
<path d="M290.501 102.592C291.277 103.127 291.938 103.529 292.509 104.011H292.013C292.264 103.732 292.532 103.43 292.784 103.191C293.034 102.953 293.32 102.662 293.588 102.4V103.058C293.28 102.749 292.989 102.43 292.726 102.11C292.464 101.79 292.155 101.458 291.865 101.115L292.362 101.074C291.825 101.557 291.22 101.988 290.501 102.592ZM290.501 102.592C290.898 101.896 291.34 101.228 291.825 100.592L292.03 100.336L292.332 100.58C292.669 100.865 292.972 101.162 293.303 101.458C293.633 101.755 293.919 102.04 294.216 102.377L294.553 102.715L294.199 103.034L293.366 103.785C293.081 104.023 292.795 104.267 292.498 104.5L292.218 104.709L292.025 104.5C291.479 103.896 290.97 103.259 290.501 102.592Z" fill="white"/>
<path d="M299.432 145.171C300.163 145.753 300.802 146.154 301.366 146.602L301.019 146.631C301.526 146.05 302.063 145.555 302.599 145.032V145.526C301.995 144.898 301.396 144.264 300.836 143.607L301.207 143.572C300.63 144.096 300.071 144.59 299.432 145.171ZM299.432 145.171C299.866 144.5 300.337 143.853 300.842 143.235L300.996 143.043L301.213 143.229C301.863 143.811 302.479 144.421 303.085 145.038L303.335 145.299L303.073 145.532C302.503 146.044 301.967 146.544 301.361 147.021L301.167 147.178L301.013 147.021C300.453 146.434 299.926 145.816 299.432 145.171Z" fill="white"/>
<path d="M277.825 122.761C277.443 121.994 277.1 121.389 276.827 120.766L277.157 120.923C276.518 121.208 275.867 121.459 275.217 121.697L275.422 121.272C275.656 122.052 275.873 122.825 276.061 123.599L275.707 123.424C276.335 123.197 277.014 123.011 277.825 122.761ZM277.825 122.761C277.283 123.122 276.62 123.546 275.919 123.924L275.667 124.046L275.559 123.756C275.268 122.982 274.988 122.209 274.783 121.476L274.686 121.162L274.988 121.057C275.651 120.825 276.313 120.609 276.986 120.423L277.249 120.348L277.317 120.58C277.546 121.331 277.7 122.127 277.825 122.761Z" fill="white"/>
<path d="M272.267 106.975C272.9 107.266 273.408 107.47 273.888 107.714L273.533 107.795C273.797 107.289 274.105 106.795 274.384 106.306L274.476 106.778C273.948 106.416 273.44 106.028 272.952 105.614L273.334 105.527C273.049 105.963 272.677 106.411 272.267 106.975ZM272.267 106.975C272.439 106.379 272.653 105.796 272.906 105.231L273.02 104.98L273.288 105.132C273.859 105.457 274.379 105.835 274.938 106.19L275.2 106.376L275.023 106.65C274.715 107.132 274.396 107.597 274.047 108.051L273.877 108.278L273.688 108.133C273.188 107.782 272.712 107.395 272.267 106.975Z" fill="white"/>
<path d="M311.486 124.37C312.12 124.655 312.628 124.852 313.108 125.102L312.754 125.178C313.016 124.672 313.325 124.189 313.604 123.701L313.695 124.16C313.176 123.794 312.656 123.41 312.172 122.997L312.554 122.904C312.24 123.352 311.903 123.794 311.486 124.37ZM311.486 124.37C311.657 123.772 311.873 123.189 312.132 122.625L312.24 122.363L312.514 122.526C313.085 122.846 313.599 123.23 314.158 123.573L314.426 123.765L314.243 124.038C313.935 124.515 313.615 124.992 313.267 125.44L313.102 125.661L312.908 125.527C312.41 125.173 311.935 124.787 311.486 124.37Z" fill="white"/>
<path d="M260.259 120.399C260.898 120.678 261.4 120.882 261.879 121.132L261.52 121.213C261.787 120.709 262.072 120.215 262.376 119.73L262.462 120.195C261.942 119.829 261.429 119.439 260.938 119.032L261.32 118.933C260.992 119.441 260.638 119.93 260.259 120.399ZM260.259 120.399C260.435 119.803 260.65 119.22 260.903 118.654L261.018 118.398L261.286 118.561C261.857 118.887 262.376 119.265 262.935 119.608L263.198 119.8L263.027 120.079C262.713 120.55 262.393 121.021 262.045 121.481L261.874 121.696L261.691 121.556C261.187 121.205 260.709 120.818 260.259 120.399Z" fill="white"/>
<path d="M294.016 99.0064C294.656 99.2857 295.158 99.4892 295.638 99.7393L295.278 99.8149C295.541 99.3088 295.848 98.8204 296.134 98.3318L296.22 98.7971C295.7 98.4249 295.192 98.0411 294.695 97.634L295.079 97.5351C294.804 97.983 294.439 98.4307 294.016 99.0064ZM294.016 99.0064C294.19 98.4099 294.406 97.8268 294.662 97.2618L294.77 97.0117L295.044 97.1745C295.614 97.4944 296.128 97.8782 296.687 98.2213L296.956 98.4133L296.784 98.6807C296.471 99.1635 296.145 99.6345 295.803 100.088L295.631 100.309L295.449 100.17C294.947 99.8143 294.469 99.4258 294.016 99.0064Z" fill="white"/>
<path d="M294.867 146.254C295.512 146.534 296.008 146.737 296.487 146.987L296.128 147.075C296.397 146.563 296.699 146.074 296.984 145.586L297.069 146.057C296.55 145.685 296.043 145.295 295.546 144.894L295.928 144.801C295.66 145.243 295.289 145.685 294.867 146.254ZM294.867 146.254C295.045 145.659 295.261 145.077 295.512 144.51L295.626 144.254L295.894 144.417C296.465 144.742 296.984 145.12 297.503 145.469L297.766 145.661L297.595 145.941C297.281 146.411 296.961 146.883 296.614 147.336L296.442 147.557L296.208 147.423C295.735 147.065 295.287 146.675 294.867 146.254Z" fill="white"/>
<path d="M243.2 121.914L241.203 122.083L238.932 123.548L240.101 125.962L239.045 128.759L234.263 129.16L232.659 133.167L256.264 133.592L263.906 123.147L243.2 121.914Z" fill="#B8CDD9"/>
<path d="M256.264 133.593L279.115 154.431L289.679 144.306L282.694 137.356L275.794 136.536L275.308 130.546L263.906 123.148L256.264 133.593Z" fill="#CADCE6"/>
<path d="M289.679 144.309L294.81 162.738L295.232 168.013L287.019 175.783L279.115 154.434L289.679 144.309Z" fill="#A3BECC"/>
<path d="M287.02 175.779L285.097 177.117L270.835 174.656L278.048 170.917L271.514 155.511L253.616 140.286L241.356 140.054L239.771 140.827L238.772 152.511L232.659 133.168L256.264 133.593L279.116 154.43L287.02 175.779Z" fill="#7D9CB3"/>
<path d="M287.379 77.4492L290.141 78.7054L291.346 79.9383L290.455 80.328L287.379 77.4492Z" fill="#8FADBF"/>
<path d="M274.749 84.1022L284.993 77.647L287.379 77.4492L290.455 80.328L296.887 77.4667L303.296 77.9494L296.744 78.6415L289.827 81.7877L287.064 78.2052L285.415 78.4262L274.749 84.1022Z" fill="#D5E8F2"/>
<path d="M240.666 130.063L248.599 126.801L258.335 125.492L248.838 128.441L240.666 130.063Z" fill="#7D9CB3"/>
<path d="M238.93 123.551L240.1 125.964L239.472 127.645L238.845 125.854L238.93 123.551Z" fill="#7D9CB3"/>
<path d="M294.079 160.066L284.713 169.54L287.019 175.779L295.232 168.01L294.81 162.736L294.079 160.066Z" fill="#8FADBF"/>
<path d="M269.031 126.477L265.526 142.045L275.634 151.263L277.694 136.764L275.794 136.538L275.308 130.547L269.031 126.477Z" fill="#DAEAF2"/>
<path d="M257.548 131.831L263.906 123.148L275.308 130.546L264.373 125.481L257.548 131.831Z" fill="#E6F6FF"/>
<path d="M287.995 145.928L279.115 154.431L266.753 143.16L278.938 152.227L287.995 145.928Z" fill="#E6F6FF"/>
<path d="M240.666 130.063L248.838 128.441L258.335 125.492L249.072 129.173L240.666 130.063Z" fill="#D5E8F2"/>
<path d="M233.145 131.958L234.263 129.16L239.045 128.759L240.101 125.962L238.931 123.548L241.203 122.083L243.2 121.914L260.465 122.943L243.07 122.461L241.044 122.751L239.788 123.798L240.832 126.171L239.542 129.591L234.577 129.777L233.145 131.958Z" fill="#D5E8F2"/>
<path d="M293.623 90.7022L294.942 85.8984L271.245 86.3113L271.771 92.883L274.442 90.0449L293.623 90.7022Z" fill="#548E99"/>
<path d="M314.763 108.261L320.048 108.156L321.468 115.269L317.987 115.35L314.763 108.261Z" fill="#548E99"/>
<path d="M325.229 123.829L326.599 129.191L320.116 130.255L322.273 127.377L321.337 123.195L325.229 123.829Z" fill="#548E99"/>
<path d="M238.771 152.512L239.022 155.646L241.705 156.908L241.79 160.688L240.917 163.149L242.972 166.853L249.449 169.877L253.564 174.321L259.613 175.245L261.365 173.448L265.84 173.639L266.73 175.652L270.834 174.658L278.048 170.919L271.513 155.513L253.616 140.287L241.356 140.055L239.77 140.828L238.771 152.512Z" fill="#EEA064"/>
<path d="M261.366 173.45L263.489 166.657L260.282 162.4L256.572 162.406L257.81 168.745L252.925 161.667L258.986 156.898L268.443 166.639L265.84 173.641L261.366 173.45Z" fill="#CC7347"/>
<path d="M276.478 167.219L267.798 158.641L268.597 153.035L271.514 155.513L276.478 167.219Z" fill="#CC7347"/>
<path d="M265.042 150.012L263.524 157.066L261.737 147.203L265.042 150.012Z" fill="#CC7347"/>
<path d="M253.616 140.288L247.868 149.175L251.395 150.599L255.527 144.702L254.631 153.693L244.672 151.96L245.243 147.296L249.249 140.207L253.616 140.288Z" fill="#CC7347"/>
<path d="M273.785 173.129L278.048 170.919L271.512 155.513L253.615 140.288L241.356 140.055L239.769 140.829L239.456 144.452L238.439 139.957L241.139 138.863L254.357 138.968L272.842 154.711L279.994 171.744L273.785 173.129Z" fill="#536D80"/>
<path d="M275.794 136.535L282.979 137.384L289.679 144.305L282.614 138.873L275.794 136.535Z" fill="#E6F6FF"/>
<path d="M266.73 175.653L269.515 166.419L258.986 156.898L268.442 166.639L265.84 173.641L266.73 175.653Z" fill="#D98757"/>
<path d="M257.81 168.742L256.571 162.402L255.864 162.623L256.474 166.806L257.81 168.742Z" fill="#D98757"/>
<path d="M241.79 160.69L247.348 161.848L251.116 166.936L248.713 160.714L241.705 156.91L241.79 160.69Z" fill="#CC7347"/>
<path d="M248.713 160.714L241.705 156.91L239.023 155.648L238.92 154.328L249.541 159.964L251.116 166.936L248.713 160.714Z" fill="#D98757"/>
<path d="M255.528 144.703L254.352 146.378L253.507 153.502L254.632 153.694L255.528 144.703Z" fill="#D98757"/>
<path d="M249.25 140.205L245.244 147.294L244.673 151.958L244.45 147.038L247.749 140.176L249.25 140.205Z" fill="#D98757"/>
<path d="M263.678 148.848L263.523 157.065L265.041 150.011L263.678 148.848Z" fill="#D98757"/>
<path d="M268.597 153.035L269.618 153.913L269.116 158.159L275.137 165.899L267.798 158.641L268.597 153.035Z" fill="#D98757"/>
<path d="M267.798 158.641L268.887 161.374L267.507 162.956L262.518 160.083L269.516 166.417L268.728 164.741L270.274 162.694L273.721 164.497L267.798 158.641Z" fill="#FAB57D"/>
<path d="M240.917 163.148L242.971 166.853L249.449 169.877L253.564 174.32L259.613 175.245L261.365 173.447L263.489 166.655L260.304 173.226L259.146 174.198L253.655 173.442L250.859 170.453L256.526 170.894L249.934 169.01L243.228 165.869L240.917 163.148Z" fill="#FFC787"/>
<path d="M241.356 140.055L238.771 152.512L239.77 140.828L241.356 140.055Z" fill="#FFC787"/>
<path d="M244.673 151.961L251.253 153.107L248.571 153.31L247.897 157.666L249.541 159.963L241.979 155.95L245.592 156.584L245.916 153.944L244.673 151.961Z" fill="#FAB57D"/>
<path d="M253.616 140.289L261.954 147.384L263.524 157.067L260.899 148.483L253.616 140.289Z" fill="#FFC787"/>
<path d="M307.782 104.297L282.26 106.03L277.963 111.683L290.386 118.272L277.192 130.851L301.407 123.465L305.494 118.028L292.749 111.171L307.782 104.297Z" fill="white"/>
<path d="M307.783 104.297L282.26 106.03L280.913 107.792L303.176 106.408L307.783 104.297Z" fill="#ED9B2F"/>
<path d="M292.75 111.168L305.494 118.025L303.947 120.083L292.59 113.657L292.75 111.168Z" fill="#ED9B2F"/>
<path d="M290.386 118.27L288.686 121.55L279.275 130.215L277.192 130.849L290.386 118.27Z" fill="#ED9B2F"/>
<path d="M304.098 74.1495L304.406 75.346L305.364 79.0875L321.322 94.5916L370.156 86.045L370.66 83.8863L371.032 82.2782L370.679 80.1068L365.296 46.5156L363.682 46.7309V46.6676L350.82 48.4465L315.698 53.1376L305.611 71.4019L304.098 74.1495ZM315.521 72.8834C315.521 70.9398 317.412 69.3444 319.67 69.3571C321.926 69.3697 323.787 70.6232 323.774 72.5541C323.761 74.485 321.882 76.055 319.625 76.0361C317.368 76.017 315.508 74.8522 315.521 72.915V72.8834Z" fill="white"/>
<path d="M363.984 50.4766L317.052 56.744L306.865 75.1983L321.699 89.8097L369.078 82.2128L363.984 50.4766ZM320.482 79.4526C319.719 79.5369 318.947 79.4693 318.211 79.2536C317.474 79.0378 316.788 78.6783 316.19 78.1954C315.592 77.7125 315.095 77.1159 314.726 76.4397C314.359 75.7636 314.127 75.0212 314.045 74.255C314.014 73.9329 314.014 73.6084 314.045 73.2864C314.109 72.17 314.49 71.0954 315.143 70.1892C315.795 69.2832 316.692 68.5833 317.728 68.1723C318.763 67.7613 319.894 67.6563 320.988 67.8696C322.081 68.083 323.091 68.6059 323.897 69.3766C324.704 70.1472 325.274 71.1335 325.541 72.2191C325.808 73.3048 325.76 74.4444 325.403 75.5035C325.046 76.5628 324.395 77.4973 323.526 78.1971C322.658 78.8967 321.608 79.3323 320.501 79.4526H320.482Z" fill="#2E992E"/>
<path d="M363.776 48.5586L316.845 54.8261L306.045 74.3945L306.865 75.1985L321.699 89.81L369.078 82.213H369.178L363.776 48.5586ZM325.482 72.0395C325.406 73.4257 324.843 74.7399 323.892 75.7481C322.943 76.7562 321.666 77.3931 320.292 77.545C318.918 77.697 317.535 77.3543 316.388 76.578C315.242 75.8016 314.407 74.642 314.033 73.3057C313.943 72.9971 313.88 72.6816 313.844 72.3623C313.7 70.8269 314.163 69.296 315.134 68.101C316.105 66.9059 317.505 66.1426 319.032 65.9761C320.559 65.8098 322.09 66.2537 323.293 67.2118C324.497 68.1699 325.276 69.5654 325.463 71.0962C325.493 71.4097 325.499 71.725 325.482 72.0395Z" fill="#45E645"/>
<path d="M306.039 74.3945L321.699 89.81L369.178 82.2004L368.656 84.4415L321.92 92.6208L307.004 78.1297L306.039 74.3945Z" fill="#2E992E"/>
<path d="M361.708 48.7891L358.934 83.8426L343.967 86.242L348.412 50.6313L361.708 48.7891Z" fill="#4DFF4D"/>
<path d="M342.233 51.4414L336.377 87.4572L329.845 88.5082L336.326 52.2264L342.233 51.4414Z" fill="#4DFF4D"/>
<path d="M306.039 74.3945L316.845 54.8261L363.776 48.5586L318.326 56.4721L306.039 74.3945Z" fill="#AAFF99"/>
<path d="M322.784 58.9229L347.895 54.7383L321.586 62.9303L322.784 58.9229Z" fill="#3DCC3D"/>
<path d="M356.053 68.8499L354.364 55.321L349.106 56.3339L348.595 53.5547L344.189 54.3587L344.699 57.1822L338.962 58.2901L339.806 62.7153L350.512 60.6515L351.079 65.2223L340.154 67.3305L341.699 80.5934L346.736 79.7515L347.139 82.6003L351.577 81.9736L351.161 79.0171L356.842 78.0738L356.11 73.6359L345.607 75.3769L345.09 70.9644L356.053 68.8499Z" fill="#2E992E"/>
<path d="M356.053 68.8516L345.089 70.9661L345.606 75.3786L346.066 71.6941L356.053 68.8516Z" fill="#AAFF99"/>
<path d="M351.577 81.974L351.161 79.0175L356.842 78.0742L352.145 79.5999L351.577 81.974Z" fill="#AAFF99"/>
<path d="M335.884 62.3849L336.994 62.5559C338.112 62.7277 339.137 63.2776 339.902 64.1145C340.666 64.9514 341.124 66.0251 341.199 67.1583L341.533 71.5899L341.835 67.5635C341.922 66.3542 342.444 65.2179 343.304 64.3663C344.163 63.5148 345.301 63.0064 346.507 62.9357L348.134 62.8534L346.161 62.5369C345.028 62.3357 343.998 61.7522 343.242 60.8829C342.485 60.0136 342.047 58.9108 341.999 57.7571L341.841 53.6484L341.362 57.8711C341.239 59.0037 340.734 60.0601 339.931 60.8658C339.129 61.6715 338.077 62.1783 336.949 62.3026L335.884 62.3849ZM340.297 62.4736C340.808 62.0832 341.259 61.618 341.634 61.0934C342.022 61.6955 342.508 62.2283 343.071 62.6698C342.541 63.0578 342.073 63.5255 341.684 64.0562C341.306 63.454 340.832 62.9191 340.278 62.4736H340.297Z" fill="white"/>
<defs>
<linearGradient id="paint0_linear_2375_22002" x1="179.397" y1="139.594" x2="179.397" y2="7.95005" gradientUnits="userSpaceOnUse">
<stop stop-color="#61AAF2"/>
<stop offset="0.13" stop-color="#5798D9"/>
<stop offset="0.15" stop-color="#5391D1"/>
<stop offset="0.27" stop-color="#4070AB"/>
<stop offset="0.39" stop-color="#32578D"/>
<stop offset="0.5" stop-color="#274577"/>
<stop offset="0.61" stop-color="#213A6A"/>
<stop offset="0.72" stop-color="#1F3666"/>
</linearGradient>
<linearGradient id="paint1_linear_2375_22002" x1="278.643" y1="205.175" x2="278.643" y2="112.18" gradientUnits="userSpaceOnUse">
<stop stop-color="#FBCC40"/>
<stop offset="0.02" stop-color="#FBCD40" stop-opacity="0.91"/>
<stop offset="0.08" stop-color="#FBD040" stop-opacity="0.72"/>
<stop offset="0.14" stop-color="#FBD340" stop-opacity="0.55"/>
<stop offset="0.2" stop-color="#FBD640" stop-opacity="0.4"/>
<stop offset="0.27" stop-color="#FBD840" stop-opacity="0.28"/>
<stop offset="0.35" stop-color="#FBD940" stop-opacity="0.18"/>
<stop offset="0.43" stop-color="#FBDA40" stop-opacity="0.1"/>
<stop offset="0.52" stop-color="#FBDB40" stop-opacity="0.04"/>
<stop offset="0.64" stop-color="#FBDC40" stop-opacity="0.01"/>
<stop offset="0.85" stop-color="#FBDC40" stop-opacity="0"/>
</linearGradient>
</defs>
</svg>
