<svg width="376" height="232" viewBox="0 0 376 232" fill="none" xmlns="http://www.w3.org/2000/svg">
<path d="M359.951 0.648438H0.833008V231.707H359.951V0.648438Z" fill="url(#paint0_linear_2375_21539)"/>
<path opacity="0.05" d="M220.353 0.648438H157.507C155.461 8.0245 143.143 15.8823 120.204 14.4429C103.756 13.4175 100.533 6.92491 104.977 0.648438H0.833008V22.4491C36.6641 12.1388 110.687 45.4419 170.624 35.3107C174.638 34.6435 178.573 33.7679 182.395 32.6914L183.103 32.4876C202.612 26.9277 213.584 20.7008 218.522 14.5233C220.267 12.4392 221.334 10.1194 221.651 7.7241C221.966 5.32886 221.524 2.91479 220.353 0.648438Z" fill="white"/>
<path opacity="0.05" d="M359.95 33.4219V58.132C355.077 58.3451 350.226 58.7576 345.424 59.3676C343.784 59.5776 342.204 59.8041 340.684 60.0471C315.958 64.044 307.34 72.8037 322.458 78.0176C324.13 78.5887 325.865 79.0679 327.648 79.4507C334.007 80.7632 340.566 81.5614 347.193 81.8291L349.473 81.9342C352.723 82.0762 356.207 82.1504 359.95 82.1627V98.8421C357.006 95.5495 351.682 93.3379 344.733 91.8491C335.548 89.8846 323.536 89.1804 310.455 88.9271C309.153 88.8962 307.834 88.8777 306.505 88.8592C263.931 88.2908 212.183 91.4723 209.327 71.4138C204.919 40.3654 318.418 52.6032 357.024 34.9169C358.056 34.4288 359.053 33.9346 359.95 33.4219Z" fill="white"/>
<path d="M206.67 55.5545C208.069 55.5545 209.203 54.7746 209.203 53.8124C209.203 52.8503 208.069 52.0703 206.67 52.0703C205.273 52.0703 204.139 52.8503 204.139 53.8124C204.139 54.7746 205.273 55.5545 206.67 55.5545Z" fill="white"/>
<path d="M45.8648 42.9021C47.263 42.9021 48.3966 42.1222 48.3966 41.16C48.3966 40.1979 47.263 39.418 45.8648 39.418C44.4665 39.418 43.333 40.1979 43.333 41.16C43.333 42.1222 44.4665 42.9021 45.8648 42.9021Z" fill="white"/>
<path d="M125.679 74.2896C126.384 74.2896 126.955 73.8968 126.955 73.4124C126.955 72.9279 126.384 72.5352 125.679 72.5352C124.975 72.5352 124.404 72.9279 124.404 73.4124C124.404 73.8968 124.975 74.2896 125.679 74.2896Z" fill="white"/>
<path d="M149.716 56.2089C149.972 56.2089 150.182 56.0651 150.182 55.8877C150.182 55.7102 149.972 55.5664 149.716 55.5664C149.458 55.5664 149.248 55.7102 149.248 55.8877C149.248 56.0651 149.458 56.2089 149.716 56.2089Z" fill="white"/>
<path d="M247.143 60.2388C247.847 60.2388 248.417 59.8461 248.417 59.3616C248.417 58.8771 247.847 58.4844 247.143 58.4844C246.439 58.4844 245.868 58.8771 245.868 59.3616C245.868 59.8461 246.439 60.2388 247.143 60.2388Z" fill="white"/>
<path d="M324.203 63.7664C324.818 63.7664 325.316 63.4235 325.316 63.0004C325.316 62.5773 324.818 62.2344 324.203 62.2344C323.588 62.2344 323.09 62.5773 323.09 63.0004C323.09 63.4235 323.588 63.7664 324.203 63.7664Z" fill="white"/>
<path d="M334.491 52.0683C335.146 52.0683 335.677 51.7032 335.677 51.2529C335.677 50.8026 335.146 50.4375 334.491 50.4375C333.837 50.4375 333.307 50.8026 333.307 51.2529C333.307 51.7032 333.837 52.0683 334.491 52.0683Z" fill="white"/>
<path d="M40.6234 74.7591C41.5158 74.7591 42.2393 74.2612 42.2393 73.6472C42.2393 73.033 41.5158 72.5352 40.6234 72.5352C39.7308 72.5352 39.0073 73.033 39.0073 73.6472C39.0073 74.2612 39.7308 74.7591 40.6234 74.7591Z" fill="white"/>
<path d="M74.4002 90.5537C74.9704 90.5537 75.4326 90.2356 75.4326 89.8432C75.4326 89.4509 74.9704 89.1328 74.4002 89.1328C73.8299 89.1328 73.3677 89.4509 73.3677 89.8432C73.3677 90.2356 73.8299 90.5537 74.4002 90.5537Z" fill="white"/>
<path d="M242.843 87.5686C243.864 87.5686 244.693 86.9989 244.693 86.296C244.693 85.5932 243.864 85.0234 242.843 85.0234C241.822 85.0234 240.994 85.5932 240.994 86.296C240.994 86.9989 241.822 87.5686 242.843 87.5686Z" fill="white"/>
<path d="M274.365 86.3012C275.098 86.3012 275.693 85.8919 275.693 85.3869C275.693 84.882 275.098 84.4727 274.365 84.4727C273.631 84.4727 273.036 84.882 273.036 85.3869C273.036 85.8919 273.631 86.3012 274.365 86.3012Z" fill="white"/>
<path d="M192.603 78.1802C193.064 78.1802 193.438 77.923 193.438 77.6057C193.438 77.2884 193.064 77.0312 192.603 77.0312C192.142 77.0312 191.768 77.2884 191.768 77.6057C191.768 77.923 192.142 78.1802 192.603 78.1802Z" fill="white"/>
<path d="M293.776 97.1835C294.475 97.1835 295.042 96.7935 295.042 96.3124C295.042 95.8313 294.475 95.4414 293.776 95.4414C293.077 95.4414 292.51 95.8313 292.51 96.3124C292.51 96.7935 293.077 97.1835 293.776 97.1835Z" fill="white"/>
<path d="M314.351 90.5502C314.986 90.5502 315.501 90.1962 315.501 89.7594C315.501 89.3227 314.986 88.9688 314.351 88.9688C313.718 88.9688 313.203 89.3227 313.203 89.7594C313.203 90.1962 313.718 90.5502 314.351 90.5502Z" fill="white"/>
<path d="M98.6843 54.3275C99.319 54.3275 99.8335 53.9735 99.8335 53.5369C99.8335 53.1001 99.319 52.7461 98.6843 52.7461C98.0497 52.7461 97.5352 53.1001 97.5352 53.5369C97.5352 53.9735 98.0497 54.3275 98.6843 54.3275Z" fill="white"/>
<path d="M26.3938 105.934C26.607 105.934 26.7799 105.815 26.7799 105.668C26.7799 105.521 26.607 105.402 26.3938 105.402C26.1806 105.402 26.0078 105.521 26.0078 105.668C26.0078 105.815 26.1806 105.934 26.3938 105.934Z" fill="white"/>
<path d="M162.788 120.696C163.13 120.696 163.407 120.505 163.407 120.27C163.407 120.035 163.13 119.844 162.788 119.844C162.446 119.844 162.169 120.035 162.169 120.27C162.169 120.505 162.446 120.696 162.788 120.696Z" fill="white"/>
<path d="M324.515 120.261C325.299 120.261 325.934 119.824 325.934 119.285C325.934 118.746 325.299 118.309 324.515 118.309C323.732 118.309 323.097 118.746 323.097 119.285C323.097 119.824 323.732 120.261 324.515 120.261Z" fill="white"/>
<path d="M359.951 0.648438H0.833008V231.707H359.951V0.648438Z" fill="url(#paint1_linear_2375_21539)"/>
<path opacity="0.05" d="M220.353 0.648438H157.507C155.461 8.0245 143.143 15.8823 120.204 14.4429C103.756 13.4175 100.533 6.92491 104.977 0.648438H0.833008V22.4491C36.6641 12.1388 110.687 45.4419 170.624 35.3107C174.638 34.6435 178.573 33.7679 182.395 32.6914L183.103 32.4876C202.612 26.9277 213.584 20.7008 218.522 14.5233C220.267 12.4392 221.334 10.1194 221.651 7.7241C221.966 5.32886 221.524 2.91479 220.353 0.648438Z" fill="white"/>
<path opacity="0.05" d="M359.95 33.4219V58.132C355.077 58.3451 350.226 58.7576 345.424 59.3676C343.784 59.5776 342.204 59.8041 340.684 60.0471C315.958 64.044 307.34 72.8037 322.458 78.0176C324.13 78.5887 325.865 79.0679 327.648 79.4507C334.007 80.7632 340.566 81.5614 347.193 81.8291L349.473 81.9342C352.723 82.0762 356.207 82.1504 359.95 82.1627V98.8421C357.006 95.5495 351.682 93.3379 344.733 91.8491C335.548 89.8846 323.536 89.1804 310.455 88.9271C309.153 88.8962 307.834 88.8777 306.505 88.8592C263.931 88.2908 212.183 91.4723 209.327 71.4138C204.919 40.3654 318.418 52.6032 357.024 34.9169C358.056 34.4288 359.053 33.9346 359.95 33.4219Z" fill="white"/>
<path d="M206.67 55.5545C208.069 55.5545 209.203 54.7746 209.203 53.8124C209.203 52.8503 208.069 52.0703 206.67 52.0703C205.273 52.0703 204.139 52.8503 204.139 53.8124C204.139 54.7746 205.273 55.5545 206.67 55.5545Z" fill="white"/>
<path d="M45.8648 42.9021C47.263 42.9021 48.3966 42.1222 48.3966 41.16C48.3966 40.1979 47.263 39.418 45.8648 39.418C44.4665 39.418 43.333 40.1979 43.333 41.16C43.333 42.1222 44.4665 42.9021 45.8648 42.9021Z" fill="white"/>
<path d="M125.679 74.2896C126.384 74.2896 126.955 73.8968 126.955 73.4124C126.955 72.9279 126.384 72.5352 125.679 72.5352C124.975 72.5352 124.404 72.9279 124.404 73.4124C124.404 73.8968 124.975 74.2896 125.679 74.2896Z" fill="white"/>
<path d="M149.716 56.2089C149.972 56.2089 150.182 56.0651 150.182 55.8877C150.182 55.7102 149.972 55.5664 149.716 55.5664C149.458 55.5664 149.248 55.7102 149.248 55.8877C149.248 56.0651 149.458 56.2089 149.716 56.2089Z" fill="white"/>
<path d="M247.143 60.2388C247.847 60.2388 248.417 59.8461 248.417 59.3616C248.417 58.8771 247.847 58.4844 247.143 58.4844C246.439 58.4844 245.868 58.8771 245.868 59.3616C245.868 59.8461 246.439 60.2388 247.143 60.2388Z" fill="white"/>
<path d="M324.203 63.7664C324.818 63.7664 325.316 63.4235 325.316 63.0004C325.316 62.5773 324.818 62.2344 324.203 62.2344C323.588 62.2344 323.09 62.5773 323.09 63.0004C323.09 63.4235 323.588 63.7664 324.203 63.7664Z" fill="white"/>
<path d="M334.491 52.0683C335.146 52.0683 335.677 51.7032 335.677 51.2529C335.677 50.8026 335.146 50.4375 334.491 50.4375C333.837 50.4375 333.307 50.8026 333.307 51.2529C333.307 51.7032 333.837 52.0683 334.491 52.0683Z" fill="white"/>
<path d="M40.6234 74.7591C41.5158 74.7591 42.2393 74.2612 42.2393 73.6472C42.2393 73.033 41.5158 72.5352 40.6234 72.5352C39.7308 72.5352 39.0073 73.033 39.0073 73.6472C39.0073 74.2612 39.7308 74.7591 40.6234 74.7591Z" fill="white"/>
<path d="M74.4002 90.5537C74.9704 90.5537 75.4326 90.2356 75.4326 89.8432C75.4326 89.4509 74.9704 89.1328 74.4002 89.1328C73.8299 89.1328 73.3677 89.4509 73.3677 89.8432C73.3677 90.2356 73.8299 90.5537 74.4002 90.5537Z" fill="white"/>
<path d="M242.843 87.5686C243.864 87.5686 244.693 86.9989 244.693 86.296C244.693 85.5932 243.864 85.0234 242.843 85.0234C241.822 85.0234 240.994 85.5932 240.994 86.296C240.994 86.9989 241.822 87.5686 242.843 87.5686Z" fill="white"/>
<path d="M274.365 86.3012C275.098 86.3012 275.693 85.8919 275.693 85.3869C275.693 84.882 275.098 84.4727 274.365 84.4727C273.631 84.4727 273.036 84.882 273.036 85.3869C273.036 85.8919 273.631 86.3012 274.365 86.3012Z" fill="white"/>
<path d="M192.603 78.1802C193.064 78.1802 193.438 77.923 193.438 77.6057C193.438 77.2884 193.064 77.0312 192.603 77.0312C192.142 77.0312 191.768 77.2884 191.768 77.6057C191.768 77.923 192.142 78.1802 192.603 78.1802Z" fill="white"/>
<path d="M293.776 97.1835C294.475 97.1835 295.042 96.7935 295.042 96.3124C295.042 95.8313 294.475 95.4414 293.776 95.4414C293.077 95.4414 292.51 95.8313 292.51 96.3124C292.51 96.7935 293.077 97.1835 293.776 97.1835Z" fill="white"/>
<path d="M314.351 90.5502C314.986 90.5502 315.501 90.1962 315.501 89.7594C315.501 89.3227 314.986 88.9688 314.351 88.9688C313.718 88.9688 313.203 89.3227 313.203 89.7594C313.203 90.1962 313.718 90.5502 314.351 90.5502Z" fill="white"/>
<path d="M98.6843 54.3275C99.319 54.3275 99.8335 53.9735 99.8335 53.5369C99.8335 53.1001 99.319 52.7461 98.6843 52.7461C98.0497 52.7461 97.5352 53.1001 97.5352 53.5369C97.5352 53.9735 98.0497 54.3275 98.6843 54.3275Z" fill="white"/>
<path d="M26.3938 105.934C26.607 105.934 26.7799 105.815 26.7799 105.668C26.7799 105.521 26.607 105.402 26.3938 105.402C26.1806 105.402 26.0078 105.521 26.0078 105.668C26.0078 105.815 26.1806 105.934 26.3938 105.934Z" fill="white"/>
<path d="M162.788 120.696C163.13 120.696 163.407 120.505 163.407 120.27C163.407 120.035 163.13 119.844 162.788 119.844C162.446 119.844 162.169 120.035 162.169 120.27C162.169 120.505 162.446 120.696 162.788 120.696Z" fill="white"/>
<path d="M324.515 120.261C325.299 120.261 325.934 119.824 325.934 119.285C325.934 118.746 325.299 118.309 324.515 118.309C323.732 118.309 323.097 118.746 323.097 119.285C323.097 119.824 323.732 120.261 324.515 120.261Z" fill="white"/>
<path d="M359.951 0.648438H0.833008V231.707H359.951V0.648438Z" fill="url(#paint2_linear_2375_21539)"/>
<path opacity="0.05" d="M220.353 0.648438H157.507C155.461 8.0245 143.143 15.8823 120.204 14.4429C103.756 13.4175 100.533 6.92491 104.977 0.648438H0.833008V22.4491C36.6641 12.1388 110.687 45.4419 170.624 35.3107C174.638 34.6435 178.573 33.7679 182.395 32.6914L183.103 32.4876C202.612 26.9277 213.584 20.7008 218.522 14.5233C220.267 12.4392 221.334 10.1194 221.651 7.7241C221.966 5.32886 221.524 2.91479 220.353 0.648438Z" fill="white"/>
<path opacity="0.05" d="M359.95 33.4219V58.132C355.077 58.3451 350.226 58.7576 345.424 59.3676C343.784 59.5776 342.204 59.8041 340.684 60.0471C315.958 64.044 307.34 72.8037 322.458 78.0176C324.13 78.5887 325.865 79.0679 327.648 79.4507C334.007 80.7632 340.566 81.5614 347.193 81.8291L349.473 81.9342C352.723 82.0762 356.207 82.1504 359.95 82.1627V98.8421C357.006 95.5495 351.682 93.3379 344.733 91.8491C335.548 89.8846 323.536 89.1804 310.455 88.9271C309.153 88.8962 307.834 88.8777 306.505 88.8592C263.931 88.2908 212.183 91.4723 209.327 71.4138C204.919 40.3654 318.418 52.6032 357.024 34.9169C358.056 34.4288 359.053 33.9346 359.95 33.4219Z" fill="white"/>
<path d="M206.67 55.5545C208.069 55.5545 209.203 54.7746 209.203 53.8124C209.203 52.8503 208.069 52.0703 206.67 52.0703C205.273 52.0703 204.139 52.8503 204.139 53.8124C204.139 54.7746 205.273 55.5545 206.67 55.5545Z" fill="white"/>
<path d="M45.8648 42.9021C47.263 42.9021 48.3966 42.1222 48.3966 41.16C48.3966 40.1979 47.263 39.418 45.8648 39.418C44.4665 39.418 43.333 40.1979 43.333 41.16C43.333 42.1222 44.4665 42.9021 45.8648 42.9021Z" fill="white"/>
<path d="M125.679 74.2896C126.384 74.2896 126.955 73.8968 126.955 73.4124C126.955 72.9279 126.384 72.5352 125.679 72.5352C124.975 72.5352 124.404 72.9279 124.404 73.4124C124.404 73.8968 124.975 74.2896 125.679 74.2896Z" fill="white"/>
<path d="M149.716 56.2089C149.972 56.2089 150.182 56.0651 150.182 55.8877C150.182 55.7102 149.972 55.5664 149.716 55.5664C149.458 55.5664 149.248 55.7102 149.248 55.8877C149.248 56.0651 149.458 56.2089 149.716 56.2089Z" fill="white"/>
<path d="M247.143 60.2388C247.847 60.2388 248.417 59.8461 248.417 59.3616C248.417 58.8771 247.847 58.4844 247.143 58.4844C246.439 58.4844 245.868 58.8771 245.868 59.3616C245.868 59.8461 246.439 60.2388 247.143 60.2388Z" fill="white"/>
<path d="M324.203 63.7664C324.818 63.7664 325.316 63.4235 325.316 63.0004C325.316 62.5773 324.818 62.2344 324.203 62.2344C323.588 62.2344 323.09 62.5773 323.09 63.0004C323.09 63.4235 323.588 63.7664 324.203 63.7664Z" fill="white"/>
<path d="M334.491 52.0683C335.146 52.0683 335.677 51.7032 335.677 51.2529C335.677 50.8026 335.146 50.4375 334.491 50.4375C333.837 50.4375 333.307 50.8026 333.307 51.2529C333.307 51.7032 333.837 52.0683 334.491 52.0683Z" fill="white"/>
<path d="M40.6234 74.7591C41.5158 74.7591 42.2393 74.2612 42.2393 73.6472C42.2393 73.033 41.5158 72.5352 40.6234 72.5352C39.7308 72.5352 39.0073 73.033 39.0073 73.6472C39.0073 74.2612 39.7308 74.7591 40.6234 74.7591Z" fill="white"/>
<path d="M74.4002 90.5537C74.9704 90.5537 75.4326 90.2356 75.4326 89.8432C75.4326 89.4509 74.9704 89.1328 74.4002 89.1328C73.8299 89.1328 73.3677 89.4509 73.3677 89.8432C73.3677 90.2356 73.8299 90.5537 74.4002 90.5537Z" fill="white"/>
<path d="M242.843 87.5686C243.864 87.5686 244.693 86.9989 244.693 86.296C244.693 85.5932 243.864 85.0234 242.843 85.0234C241.822 85.0234 240.994 85.5932 240.994 86.296C240.994 86.9989 241.822 87.5686 242.843 87.5686Z" fill="white"/>
<path d="M274.365 86.3012C275.098 86.3012 275.693 85.8919 275.693 85.3869C275.693 84.882 275.098 84.4727 274.365 84.4727C273.631 84.4727 273.036 84.882 273.036 85.3869C273.036 85.8919 273.631 86.3012 274.365 86.3012Z" fill="white"/>
<path d="M192.603 78.1802C193.064 78.1802 193.438 77.923 193.438 77.6057C193.438 77.2884 193.064 77.0312 192.603 77.0312C192.142 77.0312 191.768 77.2884 191.768 77.6057C191.768 77.923 192.142 78.1802 192.603 78.1802Z" fill="white"/>
<path d="M293.776 97.1835C294.475 97.1835 295.042 96.7935 295.042 96.3124C295.042 95.8313 294.475 95.4414 293.776 95.4414C293.077 95.4414 292.51 95.8313 292.51 96.3124C292.51 96.7935 293.077 97.1835 293.776 97.1835Z" fill="white"/>
<path d="M314.351 90.5502C314.986 90.5502 315.501 90.1962 315.501 89.7594C315.501 89.3227 314.986 88.9688 314.351 88.9688C313.718 88.9688 313.203 89.3227 313.203 89.7594C313.203 90.1962 313.718 90.5502 314.351 90.5502Z" fill="white"/>
<path d="M98.6843 54.3275C99.319 54.3275 99.8335 53.9735 99.8335 53.5369C99.8335 53.1001 99.319 52.7461 98.6843 52.7461C98.0497 52.7461 97.5352 53.1001 97.5352 53.5369C97.5352 53.9735 98.0497 54.3275 98.6843 54.3275Z" fill="white"/>
<path d="M26.3938 105.934C26.607 105.934 26.7799 105.815 26.7799 105.668C26.7799 105.521 26.607 105.402 26.3938 105.402C26.1806 105.402 26.0078 105.521 26.0078 105.668C26.0078 105.815 26.1806 105.934 26.3938 105.934Z" fill="white"/>
<path d="M162.788 120.696C163.13 120.696 163.407 120.505 163.407 120.27C163.407 120.035 163.13 119.844 162.788 119.844C162.446 119.844 162.169 120.035 162.169 120.27C162.169 120.505 162.446 120.696 162.788 120.696Z" fill="white"/>
<path d="M324.515 120.261C325.299 120.261 325.934 119.824 325.934 119.285C325.934 118.746 325.299 118.309 324.515 118.309C323.732 118.309 323.097 118.746 323.097 119.285C323.097 119.824 323.732 120.261 324.515 120.261Z" fill="white"/>
<path d="M258.868 121.561L250.407 160.995L289.76 144.249L327.002 166.376L327.467 133.145L285.922 106.371L331.17 116.252L354.457 94.7245L336.911 89.9308L332.017 91.1264L328.359 89.2153L321.504 88.9541L320.772 85.5069L313.503 83.5108L294.799 45.4141L271.827 82.7297L229.398 87.764L258.868 121.561Z" fill="url(#paint3_linear_2375_21539)"/>
<path d="M354.456 94.7227L331.17 116.25L285.92 106.385L293.056 110.968L332.753 120.261L352.736 101.248L354.456 94.7227Z" fill="#3261BF"/>
<path d="M250.409 160.997L251.586 165.688L273.76 156.063L273.761 156.047L275.889 152.357L276.74 150.9L277.597 151.12L282.371 152.299L289.694 149.124L325.927 170.825L327.003 166.378L289.761 144.25L279.129 148.771L273.043 151.369L250.409 160.997Z" fill="#3261BF"/>
<path d="M229.398 87.7617L231.177 94.3315L257.767 126.646L258.851 121.558L229.398 87.7617Z" fill="#A642A6"/>
<path d="M267.4 140.456L273.043 151.365L274.199 153.591L275.889 152.353L276.739 150.897L277.597 151.117L279.719 149.562L279.129 148.768L272.29 139.589L276.583 122.98L267.4 140.456Z" fill="#3261BF"/>
<path d="M285.921 106.387L327.468 133.144L327.002 166.375L323.922 135.363L285.921 106.387Z" fill="#66FFB3"/>
<path d="M331.17 116.251L354.457 94.7235L336.911 89.9297L332.016 91.1254L328.359 89.2144L321.504 88.9531L327.4 90.8278L330.643 93.3036L336.729 91.9876L349.217 95.9134L331.17 116.251Z" fill="#66FFB3"/>
<path d="M267.399 140.457L273.043 151.366L259.842 156.691L270.281 150.088L267.399 140.457Z" fill="#999EFF"/>
<path d="M286.922 80.3828L272.161 93.3435L250.933 94.6853L274.007 97.6181L286.922 80.3828Z" fill="#7D48B3"/>
<path d="M286.922 80.3828L274.007 97.6181L250.933 94.6853L274.76 99.966L286.922 80.3828Z" fill="#CD8CFF"/>
<path d="M309.52 75.4027L294.799 45.4141L271.827 82.7297L229.398 87.764L252.869 114.638L234.435 89.452L273.15 85.673L294.555 51.7548L309.52 75.4027Z" fill="#E980FF"/>
<path style="mix-blend-mode:screen" opacity="0.7" d="M268.538 109.286C288.083 99.7877 298.15 80.228 291.024 65.5985C283.899 50.969 262.277 46.8097 242.733 56.3084C223.188 65.8072 213.121 85.367 220.247 99.9965C227.372 114.626 248.994 118.785 268.538 109.286Z" fill="url(#paint4_radial_2375_21539)"/>
<path style="mix-blend-mode:screen" opacity="0.7" d="M336.666 175.241C351.846 168.716 357.081 147.018 348.361 126.777C339.639 106.536 320.264 95.4168 305.084 101.942C289.904 108.467 284.668 130.165 293.39 150.407C302.11 170.647 321.486 181.768 336.666 175.241Z" fill="url(#paint5_radial_2375_21539)"/>
<path d="M268.541 67.9453L263.456 82.3453L248.448 79.4871L262.863 84.5723L260.009 99.55L265.092 85.1661L280.083 88.0216L265.685 82.9391L268.541 67.9453Z" fill="white"/>
<path d="M317.472 130.465L316.013 145.662L300.758 146.519L315.972 147.966L316.837 163.191L318.291 148.027L333.532 147.151L318.335 145.706L317.472 130.465Z" fill="white"/>
<path opacity="0.2" d="M220.418 187.941C235.276 194.45 249.374 207.962 292.529 206.791C335.684 205.62 318.139 200.344 350.901 189.612C376.838 181.119 362.509 157.74 282.164 157.448C166.821 156.992 202.123 179.924 220.418 187.941Z" fill="#D179F8"/>
<path d="M216.281 172.005L201.216 117.234C201.216 117.234 231.361 95.0594 286.849 97.345C342.337 99.6306 375.397 120.287 375.397 120.287L355.764 178.095C355.764 178.095 344.883 188.19 286.971 185.805C229.059 183.42 216.281 172.005 216.281 172.005Z" fill="url(#paint6_linear_2375_21539)"/>
<path d="M286.596 163.132C248.031 161.543 216.556 165.323 216.299 171.572C216.041 177.821 247.099 184.166 285.664 185.754C324.23 187.342 355.704 183.563 355.961 177.32C356.218 171.076 325.162 164.72 286.596 163.132ZM285.906 179.888C260.265 178.832 239.606 174.953 239.759 171.225C239.913 167.498 260.821 165.341 286.461 166.397C312.102 167.453 332.757 171.333 332.603 175.064C332.449 178.797 311.542 180.944 285.906 179.888Z" fill="#D179F8"/>
<path d="M286.556 164.127C251.998 162.703 223.798 166.017 223.569 171.555C223.342 177.095 251.173 182.71 285.732 184.134C320.29 185.557 348.49 182.245 348.719 176.71C348.946 171.176 321.11 165.55 286.556 164.127ZM284.78 181.385C255.326 180.172 231.592 175.585 231.775 171.148C231.958 166.711 255.988 164.091 285.442 165.304C314.896 166.517 338.625 171.105 338.442 175.542C338.26 179.979 314.229 182.598 284.78 181.385Z" fill="white"/>
<path d="M325.917 26.1992L320.548 40.5014L305.593 37.3361L319.89 42.7174L316.746 57.6457L322.111 43.3596L337.051 46.5222L322.753 41.1409L325.917 26.1992Z" fill="white"/>
<path d="M275.386 171.051L273.061 186.151L287.647 190.717L272.549 188.392L267.97 202.944L270.29 187.876L255.723 183.296L270.821 185.621L275.386 171.051Z" fill="white"/>
<path d="M335.342 53.7617L335.719 69.0205L350.88 70.9738L335.591 71.3431L333.663 86.4608L333.283 71.218L318.139 69.2675L333.407 68.9118L335.342 53.7617Z" fill="white"/>
<defs>
<linearGradient id="paint0_linear_2375_21539" x1="180.392" y1="194.729" x2="180.392" y2="10.5882" gradientUnits="userSpaceOnUse">
<stop offset="0.07" stop-color="#F5E8AB"/>
<stop offset="0.35" stop-color="#D9829F"/>
<stop offset="0.63" stop-color="#8F6BB3"/>
<stop offset="1" stop-color="#334080"/>
</linearGradient>
<linearGradient id="paint1_linear_2375_21539" x1="180.392" y1="194.729" x2="180.392" y2="10.5882" gradientUnits="userSpaceOnUse">
<stop offset="0.07" stop-color="#F5E8AB"/>
<stop offset="0.35" stop-color="#D9829F"/>
<stop offset="0.63" stop-color="#8F6BB3"/>
<stop offset="1" stop-color="#334080"/>
</linearGradient>
<linearGradient id="paint2_linear_2375_21539" x1="180.392" y1="194.729" x2="180.392" y2="10.5882" gradientUnits="userSpaceOnUse">
<stop offset="0.07" stop-color="#F5E8AB"/>
<stop offset="0.35" stop-color="#D9829F"/>
<stop offset="0.63" stop-color="#8F6BB3"/>
<stop offset="1" stop-color="#334080"/>
</linearGradient>
<linearGradient id="paint3_linear_2375_21539" x1="338.475" y1="165.138" x2="256.726" y2="70.8504" gradientUnits="userSpaceOnUse">
<stop stop-color="#2C96FB"/>
<stop offset="0.1" stop-color="#3792FB"/>
<stop offset="0.29" stop-color="#5688FB"/>
<stop offset="0.53" stop-color="#8777FB"/>
<stop offset="0.82" stop-color="#CA61FA"/>
<stop offset="1" stop-color="#F652FA"/>
</linearGradient>
<radialGradient id="paint4_radial_2375_21539" cx="0" cy="0" r="1" gradientUnits="userSpaceOnUse" gradientTransform="translate(255.801 83.1365) rotate(-115.97) scale(29.5012 39.3467)">
<stop stop-color="#E980FF"/>
<stop offset="0.2" stop-color="#E980FF" stop-opacity="0.77"/>
<stop offset="0.49" stop-color="#E980FF" stop-opacity="0.44"/>
<stop offset="0.73" stop-color="#E980FF" stop-opacity="0.2"/>
<stop offset="0.91" stop-color="#E980FF" stop-opacity="0.06"/>
<stop offset="1" stop-color="#E980FF" stop-opacity="0"/>
</radialGradient>
<radialGradient id="paint5_radial_2375_21539" cx="0" cy="0" r="1" gradientUnits="userSpaceOnUse" gradientTransform="translate(321.323 138.399) rotate(156.739) scale(29.9418 39.9072)">
<stop stop-color="#66FFB3"/>
<stop offset="0.2" stop-color="#66FFB3" stop-opacity="0.77"/>
<stop offset="0.49" stop-color="#66FFB3" stop-opacity="0.44"/>
<stop offset="0.73" stop-color="#66FFB3" stop-opacity="0.2"/>
<stop offset="0.91" stop-color="#66FFB3" stop-opacity="0.06"/>
<stop offset="1" stop-color="#66FFB3" stop-opacity="0"/>
</radialGradient>
<linearGradient id="paint6_linear_2375_21539" x1="285.547" y1="185.752" x2="289.185" y2="97.4412" gradientUnits="userSpaceOnUse">
<stop stop-color="#CD65FB"/>
<stop offset="0.02" stop-color="#CD65FB" stop-opacity="0.91"/>
<stop offset="0.08" stop-color="#CD65FB" stop-opacity="0.72"/>
<stop offset="0.14" stop-color="#CD65FB" stop-opacity="0.55"/>
<stop offset="0.2" stop-color="#CD65FB" stop-opacity="0.4"/>
<stop offset="0.27" stop-color="#CD65FB" stop-opacity="0.28"/>
<stop offset="0.35" stop-color="#CD65FB" stop-opacity="0.18"/>
<stop offset="0.43" stop-color="#CD65FB" stop-opacity="0.1"/>
<stop offset="0.52" stop-color="#CD65FB" stop-opacity="0.04"/>
<stop offset="0.64" stop-color="#CD65FB" stop-opacity="0.01"/>
<stop offset="0.85" stop-color="#CD65FB" stop-opacity="0"/>
</linearGradient>
</defs>
</svg>
