<svg width="415" height="266" viewBox="0 0 415 266" fill="none" xmlns="http://www.w3.org/2000/svg">
<path d="M394.885 0.890625H0.0322266V265.707H394.885V0.890625Z" fill="url(#paint0_linear_2375_21951)"/>
<path opacity="0.05" d="M241.396 0.890625H172.297C170.046 13.7351 156.502 27.4186 131.281 24.9121C113.197 23.1264 109.653 11.8203 114.54 0.890625H0.0322266V38.8538C39.4287 20.8996 120.818 78.8931 186.719 61.2509C191.132 60.0891 195.458 58.5643 199.66 56.6897L200.44 56.3347C221.89 46.653 233.953 35.8094 239.383 25.052C241.301 21.4227 242.474 17.3833 242.822 13.2121C243.169 9.04094 242.683 4.83726 241.396 0.890625Z" fill="white"/>
<path opacity="0.05" d="M394.886 57.957V100.987C389.528 101.358 384.195 102.076 378.914 103.138C377.111 103.504 375.373 103.899 373.702 104.322C346.516 111.282 337.04 126.536 353.664 135.615C355.502 136.609 357.41 137.444 359.369 138.111C366.36 140.397 373.573 141.787 380.859 142.253L383.366 142.435C386.94 142.683 390.769 142.812 394.886 142.833V171.879C391.649 166.145 385.794 162.294 378.154 159.701C368.055 156.28 354.848 155.054 340.465 154.613C339.034 154.559 337.583 154.527 336.122 154.495C289.312 153.505 232.414 159.045 229.275 124.116C224.428 70.0485 349.221 91.359 391.668 60.5603C392.804 59.7105 393.899 58.8499 394.886 57.957Z" fill="white"/>
<path d="M226.352 96.5048C227.89 96.5048 229.135 95.1466 229.135 93.4711C229.135 91.7957 227.89 90.4375 226.352 90.4375C224.815 90.4375 223.568 91.7957 223.568 93.4711C223.568 95.1466 224.815 96.5048 226.352 96.5048Z" fill="white"/>
<path d="M49.5464 74.493C51.0838 74.493 52.3301 73.1349 52.3301 71.4594C52.3301 69.784 51.0838 68.4258 49.5464 68.4258C48.009 68.4258 46.7627 69.784 46.7627 71.4594C46.7627 73.1349 48.009 74.493 49.5464 74.493Z" fill="white"/>
<path d="M137.302 129.138C138.077 129.138 138.704 128.453 138.704 127.61C138.704 126.766 138.077 126.082 137.302 126.082C136.528 126.082 135.9 126.766 135.9 127.61C135.9 128.453 136.528 129.138 137.302 129.138Z" fill="white"/>
<path d="M163.718 97.6305C164.002 97.6305 164.232 97.3801 164.232 97.0712C164.232 96.7622 164.002 96.5117 163.718 96.5117C163.435 96.5117 163.206 96.7622 163.206 97.0712C163.206 97.3801 163.435 97.6305 163.718 97.6305Z" fill="white"/>
<path d="M99.7525 54.0094C100.036 54.0094 100.266 53.759 100.266 53.4501C100.266 53.1411 100.036 52.8906 99.7525 52.8906C99.469 52.8906 99.2393 53.1411 99.2393 53.4501C99.2393 53.759 99.469 54.0094 99.7525 54.0094Z" fill="white"/>
<path d="M43.3286 30.7112C44.0591 30.7112 44.6514 30.0657 44.6514 29.2696C44.6514 28.4735 44.0591 27.8281 43.3286 27.8281C42.598 27.8281 42.0059 28.4735 42.0059 29.2696C42.0059 30.0657 42.598 30.7112 43.3286 30.7112Z" fill="white"/>
<path d="M270.843 104.668C271.617 104.668 272.245 103.985 272.245 103.141C272.245 102.297 271.617 101.613 270.843 101.613C270.068 101.613 269.441 102.297 269.441 103.141C269.441 103.985 270.068 104.668 270.843 104.668Z" fill="white"/>
<path d="M263.213 44.4226C263.697 44.4226 264.091 43.9939 264.091 43.4653C264.091 42.9365 263.697 42.5078 263.213 42.5078C262.727 42.5078 262.333 42.9365 262.333 43.4653C262.333 43.9939 262.727 44.4226 263.213 44.4226Z" fill="white"/>
<path d="M340.683 59.9365C341.184 59.9365 341.591 59.4933 341.591 58.9467C341.591 58.4001 341.184 57.957 340.683 57.957C340.181 57.957 339.774 58.4001 339.774 58.9467C339.774 59.4933 340.181 59.9365 340.683 59.9365Z" fill="white"/>
<path d="M355.577 110.797C356.253 110.797 356.802 110.2 356.802 109.463C356.802 108.726 356.253 108.129 355.577 108.129C354.901 108.129 354.354 108.726 354.354 109.463C354.354 110.2 354.901 110.797 355.577 110.797Z" fill="white"/>
<path d="M366.881 90.4298C367.6 90.4298 368.184 89.7941 368.184 89.0098C368.184 88.2256 367.6 87.5898 366.881 87.5898C366.161 87.5898 365.578 88.2256 365.578 89.0098C365.578 89.7941 366.161 90.4298 366.881 90.4298Z" fill="white"/>
<path d="M43.7827 129.955C44.764 129.955 45.5595 129.088 45.5595 128.018C45.5595 126.95 44.764 126.082 43.7827 126.082C42.8014 126.082 42.0059 126.95 42.0059 128.018C42.0059 129.088 42.8014 129.955 43.7827 129.955Z" fill="white"/>
<path d="M80.9175 157.443C81.5444 157.443 82.0527 156.889 82.0527 156.206C82.0527 155.523 81.5444 154.969 80.9175 154.969C80.2905 154.969 79.7822 155.523 79.7822 156.206C79.7822 156.889 80.2905 157.443 80.9175 157.443Z" fill="white"/>
<path d="M20.6524 64.0483C21.2575 64.0483 21.7481 63.5137 21.7481 62.8542C21.7481 62.1947 21.2575 61.6602 20.6524 61.6602C20.0472 61.6602 19.5566 62.1947 19.5566 62.8542C19.5566 63.5137 20.0472 64.0483 20.6524 64.0483Z" fill="white"/>
<path d="M72.2815 55.9295C73.3009 55.9295 74.1274 55.0289 74.1274 53.9179C74.1274 52.8068 73.3009 51.9062 72.2815 51.9062C71.262 51.9062 70.4355 52.8068 70.4355 53.9179C70.4355 55.0289 71.262 55.9295 72.2815 55.9295Z" fill="white"/>
<path d="M266.113 152.272C267.236 152.272 268.147 151.28 268.147 150.055C268.147 148.832 267.236 147.84 266.113 147.84C264.99 147.84 264.079 148.832 264.079 150.055C264.079 151.28 264.99 152.272 266.113 152.272Z" fill="white"/>
<path d="M300.782 150.047C301.588 150.047 302.242 149.335 302.242 148.455C302.242 147.576 301.588 146.863 300.782 146.863C299.974 146.863 299.32 147.576 299.32 148.455C299.32 149.335 299.974 150.047 300.782 150.047Z" fill="white"/>
<path d="M210.874 135.919C211.382 135.919 211.792 135.471 211.792 134.918C211.792 134.365 211.382 133.918 210.874 133.918C210.367 133.918 209.956 134.365 209.956 134.918C209.956 135.471 210.367 135.919 210.874 135.919Z" fill="white"/>
<path d="M157.343 44.4226C157.828 44.4226 158.221 43.9939 158.221 43.4653C158.221 42.9365 157.828 42.5078 157.343 42.5078C156.857 42.5078 156.463 42.9365 156.463 43.4653C156.463 43.9939 156.857 44.4226 157.343 44.4226Z" fill="white"/>
<path d="M344.74 157.45C345.438 157.45 346.004 156.833 346.004 156.073C346.004 155.312 345.438 154.695 344.74 154.695C344.042 154.695 343.477 155.312 343.477 156.073C343.477 156.833 344.042 157.45 344.74 157.45Z" fill="white"/>
<path d="M107.61 94.3671C108.308 94.3671 108.874 93.7507 108.874 92.9902C108.874 92.2298 108.308 91.6133 107.61 91.6133C106.912 91.6133 106.347 92.2298 106.347 92.9902C106.347 93.7507 106.912 94.3671 107.61 94.3671Z" fill="white"/>
<path d="M220.676 64.6292C221.428 64.6292 222.037 63.9645 222.037 63.1447C222.037 62.3248 221.428 61.6602 220.676 61.6602C219.923 61.6602 219.313 62.3248 219.313 63.1447C219.313 63.9645 219.923 64.6292 220.676 64.6292Z" fill="white"/>
<path d="M347.267 30.7112C347.998 30.7112 348.589 30.0657 348.589 29.2696C348.589 28.4735 347.998 27.8281 347.267 27.8281C346.536 27.8281 345.944 28.4735 345.944 29.2696C345.944 30.0657 346.536 30.7112 347.267 30.7112Z" fill="white"/>
<path d="M259.179 159.999L255.605 127.308L231.187 108.907L226.635 98.2472L224.835 94.6465L249.465 84.8266L253.181 85.3104L255.392 83.8304L257.548 83.503L257.718 81.5248L265.234 78.5503L280.505 36.168L373.498 55.2386L296.94 52.2642L312.296 71.8329L348.243 71.9895L391.79 65.4571L354.27 85.0258L353.788 88.171L340.869 107.953L412.989 83.7165L336.374 125.316L342.033 141.867L414.364 110.245L339.097 160.838L308.029 151.374L307.845 150.364L306.455 150.891L300.697 149.14L265.134 176.209L259.179 159.999Z" fill="#FAB23F"/>
<path d="M339.908 146.96L331.896 123.52L386.134 95.0417L331.712 115.279L350.288 86.8157L350.954 82.5035L379.611 69.2963L348.6 75.6722L310.513 75.5014L289.186 48.3329L288.916 47.9628L354.13 52.7875L282.919 40.3203L268.129 81.3649L261.167 84.1259L260.926 86.7018L256.756 87.3422L254.09 89.1355L249.936 88.5947L229.914 96.5788L229.985 96.7353L234.167 106.555L256.644 123.477L273.46 117.5L259.464 128.885L262.769 159.142L266.867 170.271L299.977 145.067L306.343 147.002L309.889 145.678L310.967 147.13L311.222 148.496L338.56 156.822L394.983 120.759L339.908 146.96Z" fill="white"/>
<path d="M324.435 112.919L336.106 147.688L304.115 138.209L298.699 136.601L289.879 143.276L267.149 160.439L263.362 130.453L298.344 101.989L278.776 108.621L261.775 114.385H261.76L258.286 115.566L234.989 98.5309L250.416 92.3684L254.982 92.952L258.116 90.8599L264.298 89.9063L264.61 86.7185L271.006 84.171L284.107 47.8086L289.056 54.1133L297.054 64.3033L308.738 79.1756L318.239 79.2183L331.596 79.2752L347.733 79.3464L324.435 112.919Z" fill="#F59D31"/>
<path d="M331.596 79.2757L304.115 138.21L298.699 136.601L289.878 143.276L318.238 79.2188L331.596 79.2757Z" fill="#FAB23F"/>
<path d="M297.053 64.3033L278.775 108.621L261.773 114.385L289.056 54.1133L297.053 64.3033Z" fill="#FAB23F"/>
<path d="M234.989 98.5156L258.286 115.565L298.344 101.988L292.332 106.884L257.265 119.351L237.2 104.237L234.989 98.5156Z" fill="#C75528"/>
<path d="M336.105 147.688L335.509 152.057L314.423 145.624H314.409L312.098 142.508L311.19 141.269L310.424 141.554L306.213 143.119L299.251 140.999L268.593 164.353L267.147 160.44L298.698 136.602L308.808 139.605L314.593 141.312L336.105 147.688Z" fill="#C75528"/>
<path d="M347.732 79.3438L346.783 85.4634L325.938 117.414L324.435 112.917L347.732 79.3438Z" fill="#C75528"/>
<path d="M318.607 130.879L314.594 141.31L313.772 143.446L312.098 142.507L311.191 141.268L310.425 141.553L308.341 140.371L308.808 139.603L314.084 130.595L308.497 116.035L318.607 130.879Z" fill="#C75528"/>
<path d="M298.345 101.988L263.363 130.452L267.15 160.438L266.809 132.103L298.345 101.988Z" fill="#FFE485"/>
<path d="M258.286 115.566L234.989 98.5165L250.416 92.3826L254.982 92.9518L258.116 90.8597L264.298 89.9062L259.137 92.2118L256.457 94.7877L250.785 94.2185L239.866 99.0573L258.286 115.566Z" fill="#FFE485"/>
<path d="M318.607 130.879L314.594 141.311L327.101 144.769L316.962 139.888L318.607 130.879Z" fill="#FFE485"/>
<path d="M294.798 78.6055L309.503 88.7955L328.901 87.8135L308.254 92.8516L294.798 78.6055Z" fill="#C75528"/>
<path d="M294.798 78.6055L308.254 92.8516L328.901 87.8135L307.815 95.0433L294.798 78.6055Z" fill="#FFE485"/>
<path d="M273.8 76.4288L284.109 47.8086L308.74 79.1756L347.735 79.3464L329.187 106.088L343.353 81.3815L307.832 81.9651L284.974 53.5156L273.8 76.4288Z" fill="#FFE485"/>
<path d="M285.427 58.2539L275.827 85.5363L289.085 64.1602L285.427 58.2539Z" fill="white"/>
<path d="M323.359 99.6545L339.17 83.7148L324.012 106.842L323.359 99.6545Z" fill="white"/>
<path d="M270.281 154.263L270.509 149.21L292.813 137.512L270.281 154.263Z" fill="white"/>
<defs>
<linearGradient id="paint0_linear_2375_21951" x1="197.459" y1="223.323" x2="197.459" y2="12.2828" gradientUnits="userSpaceOnUse">
<stop stop-color="#61AAF2"/>
<stop offset="0.13" stop-color="#5798D9"/>
<stop offset="0.15" stop-color="#5391D1"/>
<stop offset="0.27" stop-color="#4070AB"/>
<stop offset="0.39" stop-color="#32578D"/>
<stop offset="0.5" stop-color="#274577"/>
<stop offset="0.61" stop-color="#213A6A"/>
<stop offset="0.72" stop-color="#1F3666"/>
</linearGradient>
</defs>
</svg>
