<svg  viewBox="0 0 32 32" fill="none" xmlns="http://www.w3.org/2000/svg">
<path d="M32 16C32 24.8366 24.8366 32 16 32C7.16344 32 0 24.8366 0 16C0 7.16344 7.16344 0 16 0C24.8366 0 32 7.16344 32 16Z" fill="url(#paint0_linear_6784_6752)"/>
<path d="M10.5 16.9426C10.5 17.2395 10.7342 17.4601 11.0621 17.4601H15.473L13.1466 23.6244C12.8421 24.4083 13.6774 24.8268 14.2005 24.1876L21.297 15.5423C21.4297 15.3825 21.5 15.2303 21.5 15.0553C21.5 14.7661 21.2658 14.5378 20.9378 14.5378H16.527L18.8534 8.37341C19.1579 7.58955 18.3226 7.17095 17.7995 7.81786L10.703 16.4556C10.5703 16.623 10.5 16.7752 10.5 16.9426Z" fill="white"/>
<defs>
<linearGradient id="paint0_linear_6784_6752" x1="16" y1="0" x2="16" y2="32" gradientUnits="userSpaceOnUse">
<stop stop-color="#E0A2F3"/>
<stop offset="1" stop-color="#D669ED"/>
</linearGradient>
</defs>
</svg>
