<svg  viewBox="0 0 32 32" fill="none" xmlns="http://www.w3.org/2000/svg">
<g clip-path="url(#clip0_2229_12769)">
<path d="M29.7188 0H1.28125C-0.530934 0 -2 1.34315 -2 3V29C-2 30.6569 -0.530934 32 1.28125 32H29.7188C31.5309 32 33 30.6569 33 29V3C33 1.34315 31.5309 0 29.7188 0Z" fill="url(#paint0_linear_2229_12769)"/>
<path d="M21.1943 8H10.5551C8.59891 8 7.35903 10.1432 8.34316 11.8756L14.9093 23.4343C15.3378 24.1891 16.4115 24.1891 16.8401 23.4343L23.4075 11.8756C24.3903 10.1459 23.1505 8 21.1956 8H21.1943ZM14.9039 19.9681L13.4739 17.1573L10.0235 10.8897C9.79591 10.4885 10.0771 9.97445 10.5537 9.97445H14.9026V19.9694L14.9039 19.9681ZM21.7231 10.8883L18.274 17.1586L16.8441 19.9681V9.9732H21.193C21.6696 9.9732 21.9508 10.4872 21.7231 10.8883Z" fill="white"/>
</g>
<defs>
<linearGradient id="paint0_linear_2229_12769" x1="15.5" y1="0" x2="15.5" y2="32" gradientUnits="userSpaceOnUse">
<stop stop-color="#82B1FF"/>
<stop offset="1" stop-color="#665FFF"/>
</linearGradient>
<clipPath id="clip0_2229_12769">
<rect width="32" height="32" rx="16" fill="white"/>
</clipPath>
</defs>
</svg>
