<svg  viewBox="0 0 32 32" fill="none" xmlns="http://www.w3.org/2000/svg">
<path d="M32 16C32 24.8366 24.8366 32 16 32C7.16344 32 0 24.8366 0 16C0 7.16344 7.16344 0 16 0C24.8366 0 32 7.16344 32 16Z" fill="url(#paint0_linear_6784_6747)"/>
<path fill-rule="evenodd" clip-rule="evenodd" d="M16 7.36645C11.2319 7.36645 7.36645 11.2318 7.36645 16C7.36645 20.7682 11.2319 24.6336 16 24.6336C16.5278 24.6336 17.044 24.5863 17.5448 24.4959C17.9161 24.4288 18.2715 24.6755 18.3386 25.0468C18.4056 25.4182 18.1589 25.7735 17.7875 25.8405C17.2071 25.9453 16.6097 26 16 26C10.4771 26 6 21.5229 6 16C6 10.4771 10.4771 6 16 6C16.6097 6 17.2071 6.05465 17.7875 6.15945C18.1589 6.22645 18.4056 6.58185 18.3386 6.9532C18.2715 7.3245 17.9161 7.5712 17.5448 7.50415C17.044 7.41375 16.5278 7.36645 16 7.36645ZM21.6942 7.7785C21.3842 7.5634 20.9584 7.64035 20.7433 7.95035C20.5282 8.26039 20.6052 8.68609 20.9152 8.90119C21.7671 9.49229 22.5078 10.2328 23.0988 11.0848C23.3139 11.3948 23.7396 11.4717 24.0497 11.2566C24.3597 11.0415 24.4366 10.6158 24.2215 10.3058C23.5373 9.31969 22.6803 8.46269 21.6942 7.7785ZM25.8405 14.2124C25.7735 13.8411 25.4182 13.5944 25.0468 13.6615C24.6755 13.7285 24.4288 14.0839 24.4958 14.4552C24.5862 14.9559 24.6336 15.4722 24.6336 16C24.6336 16.5278 24.5862 17.044 24.4958 17.5448C24.4288 17.9161 24.6755 18.2715 25.0468 18.3385C25.4182 18.4056 25.7735 18.1589 25.8405 17.7876C25.9453 17.2071 26 16.6096 26 16C26 15.3904 25.9453 14.7929 25.8405 14.2124ZM24.2215 21.6942C24.4366 21.3841 24.3597 20.9584 24.0497 20.7433C23.7396 20.5282 23.3139 20.6052 23.0988 20.9152C22.5078 21.7672 21.7671 22.5077 20.9152 23.0988C20.6052 23.3139 20.5282 23.7396 20.7433 24.0496C20.9584 24.3597 21.3842 24.4366 21.6942 24.2215C22.6803 23.5373 23.5373 22.6803 24.2215 21.6942Z" fill="white"/>
<path fill-rule="evenodd" clip-rule="evenodd" d="M14.2838 13.8049L15.4865 11.3197C15.6252 11.033 15.9606 10.9178 16.2357 11.0624C16.3437 11.1192 16.4311 11.211 16.4846 11.324L17.6204 13.7208C17.7132 13.9165 17.8945 14.0502 18.1026 14.0761L20.481 14.3722C20.8039 14.4124 21.0343 14.7178 20.9958 15.0544C20.9799 15.193 20.9192 15.3218 20.8236 15.4196L18.9437 17.3429C18.8678 17.4206 18.831 17.5307 18.8442 17.6407L19.1567 20.2373C19.2014 20.609 18.9486 20.9481 18.5919 20.9947C18.4568 21.0124 18.3197 20.9854 18.2001 20.9176L16.2139 19.7918C16.0702 19.7104 15.8972 19.708 15.7516 19.7855L13.6938 20.8808C13.4042 21.0349 13.0495 20.9152 12.9016 20.6133C12.8463 20.5004 12.8259 20.3723 12.8432 20.2468L13.0077 19.0555C13.0881 18.4728 13.4355 17.9674 13.939 17.7006L16.2245 16.4896C16.2855 16.4573 16.3099 16.3795 16.2788 16.3159C16.2548 16.2666 16.2034 16.2387 16.1509 16.2465L13.3557 16.6619C12.9284 16.7254 12.4951 16.6003 12.16 16.3166L11.229 15.5283C10.9633 15.3033 10.9229 14.8964 11.1387 14.6195C11.2391 14.4907 11.3831 14.4071 11.541 14.3861L13.9279 14.0673C14.081 14.0469 14.2143 13.9486 14.2838 13.8049Z" fill="white"/>
<defs>
<linearGradient id="paint0_linear_6784_6747" x1="15.9593" y1="4.16902" x2="15.968" y2="32" gradientUnits="userSpaceOnUse">
<stop stop-color="#FAC546"/>
<stop offset="1" stop-color="#FFAB2E"/>
</linearGradient>
</defs>
</svg>
