<svg  viewBox="0 0 32 32" fill="none" xmlns="http://www.w3.org/2000/svg">
<path d="M32 16C32 24.8366 24.8366 32 16 32C7.16344 32 0 24.8366 0 16C0 7.16344 7.16344 0 16 0C24.8366 0 32 7.16344 32 16Z" fill="url(#paint0_linear_6784_6748)"/>
<path fill-rule="evenodd" clip-rule="evenodd" d="M7.3734 15.8319C11.966 13.7997 15.0284 12.46 16.5607 11.8127C20.9357 9.96458 21.8448 9.64353 22.4373 9.63293C22.5676 9.63058 22.859 9.66338 23.0478 9.81893C23.2072 9.95028 23.251 10.1277 23.272 10.2522C23.293 10.3768 23.3191 10.6604 23.2984 10.8821C23.0613 13.4121 22.0354 19.5517 21.5135 22.3853C21.2927 23.5843 20.8579 23.9863 20.4369 24.0257C19.522 24.1112 18.8273 23.4116 17.9412 22.8217C16.5547 21.8986 15.7714 21.324 14.4255 20.4232C12.8701 19.3822 13.8784 18.8101 14.7649 17.875C14.9968 17.6303 19.0277 13.9066 19.1057 13.5688C19.1155 13.5266 19.1245 13.3691 19.0324 13.2859C18.9403 13.2028 18.8043 13.2312 18.7062 13.2538C18.5671 13.2859 16.3522 14.7728 12.0612 17.7146C11.4324 18.1531 10.863 18.3667 10.3527 18.3555C9.79023 18.3432 8.70819 18.0325 7.90386 17.767C6.91728 17.4412 6.13313 17.269 6.20141 16.7159C6.237 16.4278 6.62765 16.1331 7.3734 15.8319Z" fill="white"/>
<defs>
<linearGradient id="paint0_linear_6784_6748" x1="16" y1="0" x2="16" y2="32" gradientUnits="userSpaceOnUse">
<stop stop-color="#72D5FD"/>
<stop offset="1" stop-color="#2A9EF1"/>
</linearGradient>
</defs>
</svg>
