<svg width="32" height="32" viewBox="0 0 32 32" fill="none" xmlns="http://www.w3.org/2000/svg">
<g clip-path="url(#clip0_2229_12786)">
<rect width="32" height="32" rx="16" fill="white"/>
<g clip-path="url(#clip1_2229_12786)">
<path d="M29 0H3C1.34315 0 0 1.34315 0 3V29C0 30.6569 1.34315 32 3 32H29C30.6569 32 32 30.6569 32 29V3C32 1.34315 30.6569 0 29 0Z" fill="url(#paint0_linear_2229_12786)"/>
<mask id="mask0_2229_12786" style="mask-type:luminance" maskUnits="userSpaceOnUse" x="6" y="6" width="20" height="20">
<path d="M25.8466 6H6.1543V26H25.8466V6Z" fill="white"/>
</mask>
<g mask="url(#mask0_2229_12786)">
<path fill-rule="evenodd" clip-rule="evenodd" d="M7.3773 15.8319C11.9699 13.7997 15.0323 12.46 16.5646 11.8127C20.9396 9.96458 21.8487 9.64353 22.4412 9.63293C22.5715 9.63058 22.8629 9.66338 23.0517 9.81893C23.2111 9.95028 23.2549 10.1277 23.2759 10.2522C23.2969 10.3768 23.3231 10.6604 23.3023 10.8821C23.0652 13.4121 22.0393 19.5517 21.5174 22.3853C21.2966 23.5843 20.8618 23.9863 20.4408 24.0257C19.5259 24.1112 18.8312 23.4116 17.9451 22.8217C16.5586 21.8986 15.7753 21.324 14.4294 20.4232C12.874 19.3822 13.8823 18.8101 14.7688 17.875C15.0007 17.6303 19.0316 13.9066 19.1096 13.5688C19.1194 13.5266 19.1284 13.3691 19.0363 13.2859C18.9442 13.2028 18.8082 13.2312 18.7101 13.2538C18.5711 13.2859 16.3561 14.7728 12.0651 17.7146C11.4363 18.1531 10.8669 18.3667 10.3566 18.3555C9.79414 18.3432 8.7121 18.0325 7.90777 17.767C6.92118 17.4412 6.13703 17.269 6.20532 16.7159C6.24091 16.4278 6.63156 16.1331 7.3773 15.8319Z" fill="white"/>
</g>
</g>
</g>
<defs>
<linearGradient id="paint0_linear_2229_12786" x1="16" y1="0" x2="16" y2="32" gradientUnits="userSpaceOnUse">
<stop stop-color="#72D5FD"/>
<stop offset="1" stop-color="#2A9EF1"/>
</linearGradient>
<clipPath id="clip0_2229_12786">
<rect width="32" height="32" rx="16" fill="white"/>
</clipPath>
<clipPath id="clip1_2229_12786">
<rect width="32" height="32" rx="16" fill="white"/>
</clipPath>
</defs>
</svg>
