<svg viewBox="0 0 32 32" fill="none" xmlns="http://www.w3.org/2000/svg">
<g clip-path="url(#clip0_2229_12830)">
<path d="M29.7188 -1H1.28125C-0.530934 -1 -2 0.469066 -2 2.28125V30.7188C-2 32.5309 -0.530934 34 1.28125 34H29.7188C31.5309 34 33 32.5309 33 30.7188V2.28125C33 0.469066 31.5309 -1 29.7188 -1Z" fill="url(#paint0_linear_2229_12830)"/>
<path d="M10.7207 16.9426C10.7207 17.2395 10.9455 17.4601 11.2602 17.4601H15.4939L13.2609 23.6244C12.9687 24.4083 13.7705 24.8268 14.2725 24.1876L21.0838 15.5423C21.2112 15.3825 21.2786 15.2303 21.2786 15.0553C21.2786 14.7661 21.0538 14.5378 20.7391 14.5378H16.5055L18.7384 8.3734C19.0307 7.58955 18.2289 7.17096 17.7268 7.81786L10.9155 16.4556C10.7881 16.623 10.7207 16.7752 10.7207 16.9426Z" fill="white"/>
</g>
<defs>
<linearGradient id="paint0_linear_2229_12830" x1="15.5" y1="-1" x2="15.5" y2="34" gradientUnits="userSpaceOnUse">
<stop stop-color="#E0A2F3"/>
<stop offset="1" stop-color="#D669ED"/>
</linearGradient>
<clipPath id="clip0_2229_12830">
<rect width="32" height="32" fill="white"/>
</clipPath>
</defs>
</svg>
