<svg  viewBox="0 0 32 32" fill="none" xmlns="http://www.w3.org/2000/svg">
<path d="M32 16C32 24.8366 24.8366 32 16 32C7.16344 32 0 24.8366 0 16C0 7.16344 7.16344 0 16 0C24.8366 0 32 7.16344 32 16Z" fill="url(#paint0_linear_6784_6750)"/>
<path d="M10.597 8C8.61025 8 7.351 10.1431 8.3505 11.8755L15.0192 23.434C15.4544 24.1887 16.545 24.1887 16.9802 23.434L23.6503 11.8755C24.6484 10.1458 23.3892 8 21.4038 8H10.597ZM15.0138 19.9677L13.5615 17.1571L10.0571 10.8896C9.82595 10.4884 10.1116 9.9744 10.5956 9.9744H15.0125V19.9691L15.0138 19.9677ZM21.9396 10.8882L18.4366 17.1584L16.9843 19.9677V9.97315H21.4011C21.8852 9.97315 22.1708 10.4871 21.9396 10.8882Z" fill="white"/>
<defs>
<linearGradient id="paint0_linear_6784_6750" x1="16" y1="0" x2="16" y2="32" gradientUnits="userSpaceOnUse">
<stop stop-color="#82B1FF"/>
<stop offset="1" stop-color="#665FFF"/>
</linearGradient>
</defs>
</svg>
